<?xml version="1.0" encoding="UTF-8"?>
<!DOCTYPE svg PUBLIC "-//W3C//DTD SVG 1.1//EN" "http://www.w3.org/Graphics/SVG/1.1/DTD/svg11.dtd">
<!-- Creator: CorelDRAW 2019 (64-Bit) -->
<svg xmlns="http://www.w3.org/2000/svg" xml:space="preserve" width="300px" height="300px" version="1.1" style="shape-rendering:geometricPrecision; text-rendering:geometricPrecision; image-rendering:optimizeQuality; fill-rule:evenodd; clip-rule:evenodd"
viewBox="0 0 300 300"
 xmlns:xlink="http://www.w3.org/1999/xlink"
 xmlns:xodm="http://www.corel.com/coreldraw/odm/2003">
 <defs>
  <style type="text/css">
   <![CDATA[
    .fil2 {fill:#142D2E;fill-rule:nonzero}
    .fil32 {fill:#17110B;fill-rule:nonzero}
    .fil28 {fill:#1F1C1A;fill-rule:nonzero}
    .fil27 {fill:#291E13;fill-rule:nonzero}
    .fil26 {fill:#302C29;fill-rule:nonzero}
    .fil29 {fill:#4F4843;fill-rule:nonzero}
    .fil4 {fill:#523E25;fill-rule:nonzero}
    .fil19 {fill:#6A4533;fill-rule:nonzero}
    .fil18 {fill:#896451;fill-rule:nonzero}
    .fil20 {fill:#A67F70;fill-rule:nonzero}
    .fil8 {fill:#ACA9A4;fill-rule:nonzero}
    .fil21 {fill:#BD9986;fill-rule:nonzero}
    .fil24 {fill:#C79A38;fill-rule:nonzero}
    .fil1 {fill:#D9D6D1;fill-rule:nonzero}
    .fil23 {fill:#F2C25A;fill-rule:nonzero}
    .fil25 {fill:#F2E5C9;fill-rule:nonzero}
    .fil3 {fill:#FCFCC2;fill-rule:nonzero}
    .fil22 {fill:#FFE3C2;fill-rule:nonzero}
    .fil5 {fill:#FFFFF8;fill-rule:nonzero}
    .fil33 {fill:white;fill-rule:nonzero}
    .fil12 {fill:url(#id0)}
    .fil17 {fill:url(#id1)}
    .fil7 {fill:url(#id2)}
    .fil6 {fill:url(#id3)}
    .fil15 {fill:url(#id4)}
    .fil13 {fill:url(#id5)}
    .fil16 {fill:url(#id6)}
    .fil10 {fill:url(#id7)}
    .fil14 {fill:url(#id8)}
    .fil9 {fill:url(#id9)}
    .fil11 {fill:url(#id10)}
    .fil0 {fill:url(#id11)}
    .fil31 {fill:url(#id12)}
    .fil30 {fill:url(#id13)}
   ]]>
  </style>
  <linearGradient id="id0" gradientUnits="userSpaceOnUse" x1="152.99" y1="115.24" x2="146.77" y2="113.44">
   <stop offset="0" style="stop-opacity:1; stop-color:#A69483"/>
   <stop offset="0" style="stop-opacity:1; stop-color:#A69483"/>
   <stop offset="1" style="stop-opacity:1; stop-color:#C6B8A7"/>
  </linearGradient>
  <linearGradient id="id1" gradientUnits="userSpaceOnUse" xlink:href="#id0" x1="152.66" y1="115.24" x2="146.33" y2="113.44">
  </linearGradient>
  <linearGradient id="id2" gradientUnits="userSpaceOnUse" xlink:href="#id0" x1="152.66" y1="115.24" x2="146.33" y2="113.44">
  </linearGradient>
  <linearGradient id="id3" gradientUnits="userSpaceOnUse" x1="174.09" y1="69.27" x2="167.58" y2="304.82">
   <stop offset="0" style="stop-opacity:1; stop-color:#CAB6A0"/>
   <stop offset="1" style="stop-opacity:1; stop-color:#AD8E6E"/>
  </linearGradient>
  <linearGradient id="id4" gradientUnits="userSpaceOnUse" xlink:href="#id3" x1="174.18" y1="69.27" x2="167.65" y2="304.82">
  </linearGradient>
  <linearGradient id="id5" gradientUnits="userSpaceOnUse" xlink:href="#id0" x1="152.65" y1="115.24" x2="146.33" y2="113.44">
  </linearGradient>
  <linearGradient id="id6" gradientUnits="userSpaceOnUse" xlink:href="#id0" x1="152.66" y1="115.24" x2="146.33" y2="113.44">
  </linearGradient>
  <linearGradient id="id7" gradientUnits="userSpaceOnUse" xlink:href="#id0" x1="152.79" y1="115.24" x2="146.5" y2="113.44">
  </linearGradient>
  <linearGradient id="id8" gradientUnits="userSpaceOnUse" xlink:href="#id0" x1="152.66" y1="115.24" x2="146.33" y2="113.44">
  </linearGradient>
  <linearGradient id="id9" gradientUnits="userSpaceOnUse" xlink:href="#id3" x1="174.18" y1="69.27" x2="167.65" y2="304.82">
  </linearGradient>
  <linearGradient id="id10" gradientUnits="userSpaceOnUse" xlink:href="#id0" x1="152.66" y1="115.24" x2="146.33" y2="113.44">
  </linearGradient>
  <linearGradient id="id11" gradientUnits="userSpaceOnUse" x1="152.67" y1="115.24" x2="146.35" y2="113.44">
   <stop offset="0" style="stop-opacity:1; stop-color:#D2BCA7"/>
   <stop offset="0" style="stop-opacity:1; stop-color:#E6D2BE"/>
   <stop offset="0" style="stop-opacity:1; stop-color:#D2BCA7"/>
   <stop offset="1" style="stop-opacity:1; stop-color:#FBE9D5"/>
  </linearGradient>
  <radialGradient id="id12" gradientUnits="userSpaceOnUse" gradientTransform="matrix(-0.701765 -8.59414E-17 8.59414E-17 -0.701765 236 119)" cx="138.76" cy="69.76" r="2.67" fx="138.76" fy="69.76">
   <stop offset="0" style="stop-opacity:1; stop-color:#694920"/>
   <stop offset="1" style="stop-opacity:1; stop-color:#3B1D00"/>
  </radialGradient>
  <radialGradient id="id13" gradientUnits="userSpaceOnUse" gradientTransform="matrix(-1.73611 -2.12612E-16 2.12612E-16 -1.73611 380 192)" cx="139.02" cy="70.13" r="4.93" fx="139.02" fy="70.13">
   <stop offset="0" style="stop-opacity:1; stop-color:#F9EEE5"/>
   <stop offset="0" style="stop-opacity:1; stop-color:#F9EEE5"/>
   <stop offset="0.701961" style="stop-opacity:1; stop-color:#8A7F72"/>
   <stop offset="1" style="stop-opacity:1; stop-color:#1C1000"/>
  </radialGradient>
 </defs>
 <g id="Layer_x0020_1">
  <metadata id="CorelCorpID_0Corel-Layer"/>
  <path class="fil0" d="M142.23 148.99c-0.28,-0.03 -0.55,-0.08 -0.81,-0.18 -0.92,-0.33 -1.51,-1.09 -1.88,-2l0.06 0.06c0.33,0.81 0.82,1.5 1.56,1.68l0.12 0.02c0.3,0.17 0.62,0.31 0.95,0.42zm7.49 -0.21c1.32,-0.13 2.63,-0.21 3.94,-0.21 0.32,0 0.63,0 0.95,0.01 0.08,0.01 0.16,0.02 0.24,0.03 -1.71,0.06 -3.42,0.12 -5.13,0.17zm7.35 -0.29c0.01,0 0.01,-0.01 0.02,-0.02l0.03 0.02c-0.02,0 -0.03,0 -0.05,0zm0.86 -0.17l-0.05 -0.08 -0.02 -0.02c0,-0.06 -0.03,-0.12 -0.08,-0.17 0.12,-0.15 0.11,-0.42 -0.13,-0.49 -0.26,-0.06 -0.47,-0.17 -0.68,-0.32 -0.05,-0.03 -0.1,-0.04 -0.14,-0.04 -0.02,0 -0.04,0 -0.05,0.01 -0.1,-0.11 -0.21,-0.2 -0.3,-0.32 -0.07,-0.06 -0.14,-0.09 -0.2,-0.09 -0.1,0 -0.18,0.05 -0.24,0.13 -0.1,-0.08 -0.21,-0.16 -0.32,-0.23 -0.06,-0.04 -0.11,-0.06 -0.16,-0.06 -0.1,0 -0.19,0.07 -0.23,0.16 -0.13,0.1 -0.19,0.28 -0.03,0.42l0.1 0.07c0.01,0.05 0.04,0.1 0.07,0.13 -0.12,0 -0.25,-0.01 -0.37,-0.02 -1.07,-0.6 -2.13,-1.21 -3.2,-1.81 -0.92,-0.53 -1.85,-1.05 -2.85,-1.4 1.5,0.82 2.92,1.78 4.23,2.87 0.11,0.09 0.22,0.19 0.32,0.29 -0.13,0 -0.26,0 -0.39,0 -0.95,0 -1.9,0.04 -2.85,0.13 -1.86,0.18 -3.73,0.6 -5.61,0.6 -0.35,0 -0.7,-0.01 -1.04,-0.05 -1.38,-0.13 -2.34,-0.71 -3,-1.57 -0.07,-0.14 -0.14,-0.29 -0.2,-0.44 -0.34,-0.94 -0.51,-1.94 -0.63,-2.92 -0.12,-1.09 -0.16,-2.19 -0.19,-3.29 -0.01,-0.72 0.06,-0.91 -0.37,-1.43l-0.13 -0.02c-0.04,-0.07 -0.07,-0.15 -0.11,-0.22 -0.03,-0.06 -0.1,-0.1 -0.16,-0.1 -0.05,0 -0.09,0.02 -0.12,0.07l-0.02 0.05 -0.03 -0.01c0.03,-0.07 0.03,-0.14 0,-0.19l-0.01 -0.03c-0.05,-0.09 -0.16,-0.17 -0.26,-0.17 -0.04,0 -0.08,0.01 -0.12,0.03 -0.01,0.01 -0.03,0.02 -0.04,0.03 -0.22,-2.92 -0.37,-5.86 -0.47,-8.79 0.37,0.2 0.71,0.44 1.05,0.69 -0.07,-0.01 -0.15,-0.03 -0.23,-0.04 1.42,1.86 3.56,3 5.62,4.09 3.93,2.08 7.85,4.21 11.53,6.71 1.06,0.73 2.11,1.49 3.29,2.02 0.85,0.38 1.79,0.63 2.72,0.63 0.35,0 0.7,-0.03 1.04,-0.11 0.39,-0.09 0.78,-0.24 1.04,-0.55 0.24,-0.27 0.33,-0.64 0.34,-1.01 0.02,-0.8 -0.37,-1.56 -0.88,-2.19 -0.51,-0.62 -1.13,-1.14 -1.7,-1.7 -1.1,-1.1 -1.98,-2.39 -3.14,-3.41 -1.85,-1.63 -4.29,-2.48 -6.08,-4.17 -1.37,-1.29 -2.45,-3.11 -4.27,-3.55 1.75,0.89 2.87,2.65 4.33,3.97 1.19,1.06 2.61,1.83 3.84,2.83 1,0.81 1.86,1.77 2.57,2.84 0.4,0.6 0.75,1.25 0.86,1.97 0.07,0.45 -0.09,1.06 -0.55,1.08 -0.01,0 -0.01,0 -0.02,0 -0.18,0 -0.35,-0.1 -0.5,-0.2 -2.24,-1.43 -4.31,-3.12 -6.65,-4.38 -1.28,-0.7 -2.62,-1.25 -3.97,-1.81 -2.96,-1.22 -5.95,-2.45 -9.1,-3.01l0.01 -0.01c0.04,-0.05 0.07,-0.11 0.08,-0.19l-0.01 -0.09 0 0 0 -0.03c-0.01,-0.12 -0.03,-0.24 -0.06,-0.36 0.03,-0.06 0.06,-0.13 0.05,-0.22 -0.12,-2.58 -0.18,-5.18 -0.45,-7.75 -0.33,-0.2 -0.64,-0.51 -0.85,-0.7 -0.03,-0.02 -0.05,-0.04 -0.08,-0.07 -0.02,-2.96 -0.01,-5.92 0,-8.88 0.07,0.11 0.18,0.21 0.28,0.28 7.63,5.83 16.44,10.04 23.7,16.33 2.31,2 4.46,4.22 7.04,5.86 0.53,0.34 1.11,0.66 1.72,0.66 0.08,0 0.16,-0.01 0.24,-0.02 0.67,-0.09 1.2,-0.59 1.67,-1.08 0.07,-0.07 0.14,-0.14 0.2,-0.22 -0.02,1.17 -0.09,2.34 -0.19,3.5 -0.14,1.53 -0.38,3.13 -1.33,4.34 -0.77,0.99 -1.92,1.6 -3.03,2.18 -2.76,1.43 -5.52,2.86 -8.27,4.29 -0.58,0.3 -1.16,0.59 -1.78,0.77zm13.73 -17.79c-0.5,-0.07 -0.99,-0.27 -1.42,-0.53 -0.78,-0.47 -1.41,-1.15 -2.05,-1.8 -2.56,-2.6 -5.43,-4.88 -8.51,-6.82 -1.84,-1.16 -3.76,-2.2 -5.67,-3.24 -3.28,-1.78 -6.56,-3.55 -9.84,-5.33 -1.68,-0.91 -3.53,-1.85 -5.39,-1.85 -0.19,0 -0.37,0.01 -0.55,0.03 -0.29,-7.24 -0.58,-14.47 -0.86,-21.71 0.25,0 0.5,0 0.75,0 5.3,0 10.22,-0.22 15.55,-0.36 2.84,-0.07 5.69,-0.17 8.53,-0.29 1.37,-0.05 2.74,-0.12 4.12,-0.19 0.2,-0.01 0.4,-0.01 0.59,-0.01 0.38,0 0.76,0.01 1.14,0.03 0.39,0.01 0.77,0.03 1.18,0.03 0.34,0 0.7,-0.01 1.07,-0.04 0.33,2.31 0.37,4.33 0.43,6.66 -1.73,1.77 -2.78,4.19 -2.89,6.66 -0.04,0.82 0.02,1.66 0.28,2.44 0.18,0.54 0.44,1.04 0.72,1.53 0.7,1.23 1.5,2.4 2.4,3.5 0.01,0.08 0.03,0.16 0.04,0.24 -0.2,1.88 0,3.84 0.07,5.73 0.06,1.89 0.11,3.79 0.17,5.68 0.12,3.22 0.1,6.43 0.14,9.64zm0.14 -24.04c-0.05,-0.51 -0.08,-1.02 -0.09,-1.53 0.03,0.51 0.06,1.02 0.09,1.53zm-0.52 -10.69c-0.08,-0.23 -0.16,-0.45 -0.24,-0.68 -0.06,-0.01 -0.11,-0.02 -0.17,-0.03 0.15,-0.06 0.29,-0.15 0.41,-0.26 0,0.32 0,0.65 0,0.97zm-32.29 -7.67c-0.55,0 -1.11,0 -1.67,0 -0.02,-1.04 0.03,-2.12 0.61,-2.96 0.91,-1.31 2.24,-1.76 3.82,-1.86 3.66,-0.23 7.32,-0.23 10.98,-0.23 3.73,-0.01 7.57,-0.22 11.3,-0.23 0.08,0 0.17,0 0.25,0 1.76,0 3.62,0.05 4.77,1.35 0.65,0.74 0.9,2.04 1.07,3.01 -0.36,-0.04 -0.72,-0.06 -1.09,-0.06 -1.07,0 -2.18,0.14 -3.21,0.19 -1.37,0.07 -2.74,0.13 -4.12,0.19 -2.74,0.11 -5.49,0.2 -8.23,0.27 -4.98,0.13 -9.58,0.33 -14.48,0.33z"/>
  <path class="fil1" d="M137.93 85.17c0.91,-1.31 2.24,-1.76 3.82,-1.86 3.66,-0.23 7.32,-0.23 10.98,-0.23 3.73,-0.01 7.57,-0.22 11.3,-0.23 1.82,0 3.81,-0.02 5.02,1.35 0.65,0.74 0.9,2.04 1.07,3.01 -1.4,-0.16 -2.91,0.07 -4.3,0.13 -1.37,0.07 -2.74,0.13 -4.12,0.19 -2.74,0.11 -5.49,0.2 -8.23,0.27 -5.54,0.14 -10.61,0.38 -16.15,0.33 -0.02,-1.04 0.03,-2.12 0.61,-2.96zm-1.21 24.01c-0.02,0.41 -0.05,0.84 0.1,1.23 0.15,0.38 1.01,0.91 1.42,0.83 -0.29,-7.32 -0.59,-14.64 -0.87,-21.96 5.58,0.03 10.71,-0.21 16.3,-0.36 2.84,-0.07 5.69,-0.17 8.53,-0.29 1.37,-0.05 2.74,-0.12 4.12,-0.19 0.58,-0.03 1.15,-0.01 1.73,0.02 0.71,0.02 1.44,0.05 2.25,-0.01 0.33,2.32 0.37,4.34 0.43,6.68 0.63,-0.17 1.04,-0.81 1.17,-1.46 0.12,-0.64 0.02,-1.3 -0.04,-1.96 -0.13,-1.69 0.06,-3.4 -0.11,-5.09 -0.16,-1.69 -0.76,-3.45 -2.11,-4.47 -1.49,-1.14 -3.53,-1.13 -5.41,-1.07 -6.99,0.2 -14.14,0.24 -21.14,0.44 -2.32,0.07 -4.84,0.5 -6.17,2.41 -0.65,0.92 -0.84,2.09 -0.95,3.21 -0.03,0.36 -0.06,0.72 -0.08,1.08 -0.11,0.18 -0.12,0.41 -0.04,0.58 -0.33,6.78 1.27,13.59 0.87,20.38z"/>
  <path class="fil1" d="M171.12 108.12c0.02,-0.21 0.13,-0.33 0.28,-0.38l0.01 0.04c0.17,0.54 0.46,1.02 0.7,1.53l0.02 0.03 0.01 0.1c0.3,1.72 0.26,3.53 0.32,5.26 0.08,2 0.17,3.99 0.24,5.99 0.07,1.88 0.14,3.75 0.2,5.63 0.06,1.69 0.18,3.48 -0.06,5.18 -0.24,0.14 -0.48,0.3 -0.7,0.47 -0.14,0.11 -0.29,0.24 -0.41,0.38 -0.03,-0.07 -0.05,-0.15 -0.05,-0.24 -0.08,-3.74 -0.02,-7.47 -0.16,-11.22 -0.06,-1.89 -0.11,-3.79 -0.17,-5.68 -0.07,-1.89 -0.27,-3.85 -0.07,-5.73 -0.02,-0.1 -0.04,-0.2 -0.05,-0.3 -0.06,-0.34 -0.13,-0.71 -0.11,-1.06z"/>
  <path class="fil1" d="M137.28 119.94c0.16,0.15 0.32,0.3 0.48,0.44 0.21,0.19 0.52,0.5 0.85,0.7 0.27,2.57 0.33,5.17 0.45,7.75 0.01,0.09 -0.02,0.16 -0.05,0.22 0.03,0.12 0.05,0.24 0.06,0.36l0 0.03 0 0 0.01 0.09c-0.01,0.08 -0.04,0.14 -0.08,0.19l-0.04 0.04c-0.45,-0.33 -0.92,-0.66 -1.43,-0.89l-0.03 -0.12c-0.23,-2.8 -0.36,-5.6 -0.45,-8.41 -0.01,-0.19 0.09,-0.32 0.23,-0.4z"/>
  <path class="fil1" d="M138.36 137.79c0.14,-0.07 0.31,0.01 0.38,0.14l0.01 0.03c0.03,0.05 0.03,0.12 0,0.19l0.03 0.01 0.02 -0.05c0.07,-0.12 0.22,-0.06 0.28,0.03 0.04,0.07 0.07,0.15 0.11,0.22l0.13 0.02c0.43,0.52 0.36,0.71 0.37,1.43 0.03,1.1 0.07,2.2 0.19,3.29 0.12,0.98 0.29,1.98 0.63,2.92 0.06,0.15 0.13,0.3 0.2,0.44 0.66,0.86 1.62,1.44 3,1.57 2.23,0.22 4.44,-0.34 6.65,-0.55 1.71,-0.16 3.41,-0.17 5.12,-0.05l0.03 0.03c0.37,0.28 0.75,0.54 1.14,0.77l0.05 0.03c0.09,0.05 0.17,0.11 0.26,0.15l0.05 0.02 0.08 0.04c-0.11,0.16 -0.27,0.27 -0.52,0.24 -2.95,-0.3 -5.79,-0.09 -8.73,0.3 -2.07,0.27 -4.65,0.67 -6.56,-0.44l-0.12 -0.02c-0.74,-0.18 -1.23,-0.87 -1.56,-1.68l-0.11 -0.11c-0.2,-0.34 -0.35,-0.73 -0.46,-1.14 -0.25,-0.73 -0.42,-1.5 -0.52,-2.24 -0.18,-1.33 -0.32,-2.69 -0.42,-4.03 -0.03,-0.47 -0.23,-1.28 0.27,-1.56z"/>
  <path class="fil2" d="M143.27 86.42c0.09,-0.04 0.19,-0.08 0.27,-0.14 0.18,-0.13 0.29,-0.33 0.36,-0.54 0.08,-0.27 0.11,-0.57 0.04,-0.84 -0.07,-0.27 -0.24,-0.53 -0.49,-0.66 -0.15,-0.08 -0.31,-0.12 -0.47,-0.13 -0.32,-0.04 -0.63,-0.01 -0.95,0.02l-0.16 0.03 -0.13 0.1c-0.18,0.16 -0.34,0.36 -0.44,0.58 -0.1,0.22 -0.14,0.47 -0.09,0.71 0.07,0.3 0.28,0.55 0.52,0.74 0.23,0.18 0.52,0.32 0.82,0.32 0.25,0 0.49,-0.09 0.72,-0.19z"/>
  <path class="fil3" d="M149.06 85.67l0.08 0.01c0.03,-0.13 0,-0.27 -0.07,-0.38 -0.07,-0.11 -0.16,-0.21 -0.27,-0.29 -0.11,-0.08 -0.22,-0.16 -0.35,-0.21 -0.16,-0.06 -0.34,-0.07 -0.51,-0.06 -0.11,0 -0.23,0.02 -0.33,0.08 -0.13,0.09 -0.2,0.25 -0.2,0.4 -0.01,0.15 0.04,0.31 0.11,0.44 0.12,0.24 0.3,0.45 0.54,0.56 0.24,0.12 0.53,0.13 0.76,0 0.07,-0.04 0.14,-0.1 0.18,-0.17 0.05,-0.12 0.02,-0.26 0.06,-0.38z"/>
  <path class="fil4" d="M151.06 99.6c0,1.94 1.51,3.51 3.39,3.51 1.87,0 3.39,-1.57 3.39,-3.51 0,-1.93 -1.52,-3.5 -3.39,-3.5 -1.88,0 -3.39,1.57 -3.39,3.5z"/>
  <path class="fil5" d="M153.22 102.86c-1.27,-0.51 -2.16,-1.77 -2.16,-3.26 0,-1.93 1.51,-3.5 3.39,-3.5 0.13,0 0.26,0.01 0.39,0.02 -0.62,2.23 -1.14,4.48 -1.62,6.74z"/>
  <path class="fil6" d="M172.53 133.24c0.01,-0.52 0.02,-1.04 0.01,-1.56 0.1,-0.06 0.2,-0.13 0.3,-0.18 0.05,-0.33 0.08,-0.65 0.1,-0.98 0.42,0.34 0.52,0.98 0.36,1.5 -0.14,0.47 -0.44,0.86 -0.77,1.22zm-34.85 -21.81c-0.07,-0.1 -0.1,-0.22 -0.06,-0.33 0.02,0.01 0.04,0.02 0.06,0.03 0,0.1 0,0.2 0,0.3z"/>
  <path class="fil7" d="M170.42 134.56c-0.61,0 -1.19,-0.32 -1.72,-0.66 -2.58,-1.64 -4.73,-3.86 -7.04,-5.86 -7.26,-6.29 -16.07,-10.5 -23.7,-16.33 -0.1,-0.07 -0.21,-0.17 -0.28,-0.28 0,-0.1 0,-0.2 0,-0.3 0.17,0.07 0.33,0.12 0.47,0.12 0.03,0 0.06,-0.01 0.09,-0.01 -0.01,-0.08 -0.01,-0.17 -0.01,-0.25 0.18,-0.02 0.36,-0.03 0.55,-0.03 1.86,0 3.71,0.94 5.39,1.85 3.28,1.78 6.56,3.55 9.84,5.33 1.91,1.04 3.83,2.08 5.67,3.24 3.08,1.94 5.95,4.22 8.51,6.82 0.64,0.65 1.27,1.33 2.05,1.8 0.43,0.26 0.92,0.46 1.42,0.53 0,0.53 0.01,1.06 0.02,1.58 0,0.09 0.02,0.17 0.05,0.24 0.12,-0.14 0.27,-0.27 0.41,-0.38 0.13,-0.1 0.26,-0.2 0.4,-0.29 0.01,0.52 0,1.04 -0.01,1.56 -0.06,0.08 -0.13,0.15 -0.2,0.22 -0.47,0.49 -1,0.99 -1.67,1.08 -0.08,0.01 -0.16,0.02 -0.24,0.02z"/>
  <path class="fil8" d="M138.15 111.25c-0.14,0 -0.3,-0.05 -0.47,-0.12 -0.02,-0.01 -0.04,-0.02 -0.06,-0.03 0,-0.01 0,-0.01 0,-0.01 0.2,-0.05 0.4,-0.08 0.61,-0.1 0,0.08 0,0.17 0.01,0.25 -0.03,0 -0.06,0.01 -0.09,0.01z"/>
  <path class="fil8" d="M171.73 132.35c-0.03,-0.07 -0.05,-0.15 -0.05,-0.24 -0.01,-0.52 -0.02,-1.05 -0.02,-1.58 0.14,0.02 0.29,0.04 0.44,0.04 0.25,0 0.51,-0.04 0.75,-0.12 0.03,0.02 0.07,0.05 0.09,0.07 -0.02,0.33 -0.05,0.65 -0.1,0.98 -0.1,0.05 -0.2,0.12 -0.3,0.18 -0.14,0.09 -0.27,0.19 -0.4,0.29 -0.14,0.11 -0.29,0.24 -0.41,0.38z"/>
  <path class="fil9" d="M172.49 110.66c-0.07,-0.08 -0.14,-0.15 -0.21,-0.23 -0.04,-0.33 -0.08,-0.66 -0.14,-0.99l-0.01 -0.1 -0.02 -0.03c-0.06,-0.12 -0.11,-0.23 -0.17,-0.34 -0.04,-0.83 -0.08,-1.65 -0.14,-2.48 0.15,1.4 0.42,2.79 0.69,4.17zm-0.78 -5.7c-0.2,-3.06 -0.41,-6.11 -0.43,-9.16 0.47,1.45 0.7,2.98 0.68,4.51 -0.02,1.33 -0.22,2.65 -0.25,3.98 -0.01,0.22 -0.01,0.44 0,0.67z"/>
  <path class="fil10" d="M171.24 109.24c-0.9,-1.1 -1.7,-2.27 -2.4,-3.5 -0.28,-0.49 -0.54,-0.99 -0.72,-1.53 -0.26,-0.78 -0.32,-1.62 -0.28,-2.44 0.11,-2.47 1.16,-4.89 2.89,-6.66 0,0.01 0,0.02 0,0.02 0.05,-0.01 0.09,-0.02 0.14,-0.04 0.06,0.01 0.11,0.02 0.17,0.03 0.08,0.23 0.16,0.45 0.24,0.68 0.02,3.05 0.23,6.1 0.43,9.16 0.01,0.51 0.04,1.02 0.09,1.53 0.06,0.83 0.1,1.65 0.14,2.48 -0.19,-0.39 -0.4,-0.77 -0.53,-1.19l-0.01 -0.04c-0.15,0.05 -0.26,0.17 -0.28,0.38 -0.02,0.35 0.05,0.72 0.11,1.06 0,0.02 0,0.04 0.01,0.06z"/>
  <path class="fil11" d="M170.73 95.13c0,0 0,-0.01 0,-0.02 0.02,-0.01 0.03,-0.03 0.05,-0.04 0.03,0 0.06,0.01 0.09,0.02 -0.05,0.02 -0.09,0.03 -0.14,0.04z"/>
  <path class="fil12" d="M172.28 110.43c-0.36,-0.38 -0.71,-0.78 -1.04,-1.19 -0.01,-0.02 -0.01,-0.04 -0.01,-0.06 -0.06,-0.34 -0.13,-0.71 -0.11,-1.06 0.02,-0.21 0.13,-0.33 0.28,-0.38l0.01 0.04c0.13,0.42 0.34,0.8 0.53,1.19 0.06,0.11 0.11,0.22 0.17,0.34l0.02 0.03 0.01 0.1c0.06,0.33 0.1,0.66 0.14,0.99z"/>
  <path class="fil13" d="M161.83 143.13c-0.93,0 -1.87,-0.25 -2.72,-0.63 -1.18,-0.53 -2.23,-1.29 -3.29,-2.02 -3.68,-2.5 -7.6,-4.63 -11.53,-6.71 -2.06,-1.09 -4.2,-2.23 -5.62,-4.09 0.08,0.01 0.16,0.03 0.23,0.04 0.02,0.01 0.04,0.03 0.06,0.04l0.03 -0.03c3.15,0.56 6.14,1.79 9.1,3.01 1.35,0.56 2.69,1.11 3.97,1.81 2.34,1.26 4.41,2.95 6.65,4.38 0.15,0.1 0.32,0.2 0.5,0.2 0.01,0 0.01,0 0.02,0 0.46,-0.02 0.62,-0.63 0.55,-1.08 -0.11,-0.72 -0.46,-1.37 -0.86,-1.97 -0.71,-1.07 -1.57,-2.03 -2.57,-2.84 -1.23,-1 -2.65,-1.77 -3.84,-2.83 -1.46,-1.32 -2.58,-3.08 -4.33,-3.97 1.82,0.44 2.9,2.26 4.27,3.55 1.79,1.69 4.23,2.54 6.08,4.17 1.16,1.02 2.04,2.31 3.14,3.41 0.57,0.56 1.19,1.08 1.7,1.7 0.51,0.63 0.9,1.39 0.88,2.19 -0.01,0.37 -0.1,0.74 -0.34,1.01 -0.26,0.31 -0.65,0.46 -1.04,0.55 -0.34,0.08 -0.69,0.11 -1.04,0.11z"/>
  <path class="fil14" d="M138.96 129.76c-0.02,-0.01 -0.04,-0.03 -0.06,-0.04 0.03,0 0.06,0.01 0.09,0.01l-0.03 0.03z"/>
  <path class="fil15" d="M157.26 148.8c-0.8,-0.03 -1.61,-0.1 -2.41,-0.19 0.09,0 0.17,-0.01 0.26,-0.01 0.49,0.02 0.97,0.06 1.46,0.11 0.03,0 0.05,0 0.07,0 0.15,0 0.27,-0.05 0.36,-0.14 0.09,0.07 0.18,0.15 0.26,0.23z"/>
  <path class="fil16" d="M154.85 148.61c-0.08,-0.01 -0.16,-0.02 -0.24,-0.03 0.16,0.01 0.33,0.01 0.5,0.02 -0.09,0 -0.17,0.01 -0.26,0.01zm0.25 -1.21c-0.5,-0.03 -1,-0.04 -1.5,-0.05 -0.1,-0.1 -0.21,-0.2 -0.32,-0.29 -1.31,-1.09 -2.73,-2.05 -4.23,-2.87 1,0.35 1.93,0.87 2.85,1.4 1.07,0.6 2.13,1.21 3.2,1.81z"/>
  <path class="fil17" d="M156.64 148.71c-0.02,0 -0.04,0 -0.07,0 -0.49,-0.05 -0.97,-0.09 -1.46,-0.11 -0.17,-0.01 -0.34,-0.01 -0.5,-0.02 -0.25,-0.03 -0.49,-0.06 -0.74,-0.1 0.15,-0.23 0.12,-0.55 -0.02,-0.8 -0.06,-0.12 -0.15,-0.23 -0.25,-0.33 0.5,0.01 1,0.02 1.5,0.05 0.21,0.12 0.43,0.24 0.64,0.37 0.44,0.24 0.87,0.49 1.26,0.8 -0.09,0.09 -0.21,0.14 -0.36,0.14z"/>
  <path class="fil18" d="M162.5 141.06c-0.59,0.31 -1.31,0.32 -1.94,0.1 -0.36,-0.12 -0.69,-0.31 -1.02,-0.51 -1.32,-0.77 -2.65,-1.55 -3.79,-2.58 -0.3,-0.28 -0.59,-0.57 -0.92,-0.83 -0.56,-0.44 -1.16,-0.81 -1.83,-1.07 -4.01,-1.55 -7.95,-3.28 -11.82,-5.18 -0.84,-0.41 -1.68,-0.84 -2.53,-1.26 -0.48,-0.24 -0.96,-0.48 -1.44,-0.73 -0.08,-3 -0.05,-6.01 0.12,-9.02 3.73,3.36 9.21,4.39 12.89,7.85 1.17,1.1 2.2,2.38 3.54,3.27 1.07,0.71 2.14,1.42 3.21,2.14 0.45,0.3 0.9,0.6 1.32,0.95 0.36,0.31 0.68,0.65 1.03,0.96 0.95,0.84 2.07,1.5 2.83,2.51 0.33,0.44 0.6,0.96 1.05,1.29 0.1,0.07 0.2,0.13 0.26,0.24 0.05,0.08 0.05,0.17 0.06,0.26 0,0.67 -0.43,1.3 -1.02,1.61zm-12.36 14.58c0.25,0.19 0.51,0.37 0.76,0.56 1.28,0.94 2.56,1.88 3.74,2.95 0.29,0.26 0.55,0.54 0.8,0.83 -1.72,-1.5 -3.49,-2.95 -5.3,-4.34zm-11.89 -13.03c-0.22,-1.76 -0.41,-3.52 -0.57,-5.29 1.49,0.8 2.97,1.63 4.38,2.55 2.84,1.83 5.74,3.57 8.75,5.13 2.14,1.11 4.35,2.13 6.3,3.55 0.97,0.71 -2.92,-0.07 -6.49,0.13 -2.66,0.15 -5.32,0.58 -7.98,0.45 -0.42,-0.01 -0.86,-0.05 -1.23,-0.25 -0.49,-0.26 -0.87,-0.79 -1.42,-0.86l0.05 0.11c-0.06,-0.08 -0.13,-0.16 -0.19,-0.24 -1.07,-1.52 -1.37,-3.43 -1.6,-5.28zm86.42 95.67c0.06,-2 -0.13,-4.02 -0.13,-6.03 0.01,-3.41 -1.44,-6.64 -2.87,-9.74 -0.43,-0.94 -0.85,-1.87 -1.39,-2.74 -0.66,-1.08 -1.44,-2.09 -2,-3.22 -1.08,-2.21 -2.11,-4.38 -3.09,-6.63 -0.98,-2.27 -1.46,-4.72 -2.2,-7.08 -0.77,-2.43 -1.8,-4.81 -2.41,-7.3 -0.48,-1.97 -0.96,-3.94 -1.22,-5.95 -0.09,-0.7 -0.15,-1.4 -0.26,-2.1 -0.31,-2.11 -1.02,-4.13 -1.06,-6.26 -0.06,-4.29 -0.52,-8.56 -1.32,-12.78 -0.75,-3.96 -1.85,-7.84 -2.95,-11.72 -0.13,-0.46 -0.26,-0.92 -0.45,-1.37 -0.25,-0.59 -0.53,-1.17 -0.82,-1.75 -0.53,-1.03 -0.93,-2.13 -1.19,-3.26 -0.13,-0.61 -0.23,-1.22 -0.39,-1.83 -0.16,-0.64 -0.38,-1.26 -0.63,-1.88 -1.45,-3.54 -3.74,-6.73 -6.64,-9.22 -0.32,1.48 -0.39,2.99 -0.7,4.47 -0.68,3.26 -0.78,6.6 -0.76,9.92 0.02,2.91 0.14,5.82 0.36,8.72 -1.1,-2.71 -2.41,-5.33 -3.51,-8.04 -1.1,-2.71 -1.91,-5.5 -2.2,-8.41 -0.11,-1.01 -0.48,-1.97 -0.83,-2.92 -1.52,-4.22 -2.31,-8.76 -2.01,-13.23 0.12,-1.69 0.18,-3.39 0.18,-5.08 0,-0.61 0,-1.21 -0.1,-1.81 -0.06,-0.41 -0.16,-0.82 -0.26,-1.22 -0.24,-0.98 -0.28,-1.99 -0.59,-2.95 -0.31,-0.96 -0.88,-1.8 -1.32,-2.71 -0.64,-1.35 -0.97,-2.82 -1.48,-4.22 -0.15,-0.44 -0.32,-0.87 -0.49,-1.3 -0.79,-1.96 -2.13,-3.78 -2.37,-5.88 -0.07,-0.64 -0.46,-1.2 -0.9,-1.67 -0.45,-0.47 -0.95,-0.88 -1.34,-1.4 -0.24,-0.32 -0.43,-0.68 -0.71,-0.97 -0.26,-0.27 -0.59,-0.47 -0.92,-0.65 -0.76,-0.4 -1.58,-0.73 -2.44,-0.72 -0.2,0 -0.41,0.02 -0.59,0.12 -0.16,0.1 -0.27,0.25 -0.37,0.41 -0.25,0.42 -0.42,0.89 -0.49,1.37 -0.04,0.31 -0.04,0.62 -0.04,0.93 0,0.38 0,0.75 -0.01,1.13 0,0.92 0.04,1.75 0.28,2.64 0.55,2.12 1.29,4.19 2.19,6.18 0.18,0.39 0.37,0.79 0.47,1.2 0.1,0.4 0.12,0.81 0.14,1.21 0.03,0.65 0.06,1.3 0.1,1.95 0.04,0.82 0.05,1.65 0.38,2.41 0.59,1.4 0.99,2.88 1.18,4.39 0.15,1.16 0.17,2.34 0.12,3.51 -0.1,2.25 -0.29,4.71 -1.69,6.47 -0.74,0.94 -1.77,1.64 -2.91,2 -0.1,0.03 -0.21,0.06 -0.32,0.06 -0.28,-0.01 -0.5,-0.24 -0.69,-0.46 -1.51,-1.7 -3.07,-3.35 -4.7,-4.95 -1.27,-1.25 -2.58,-2.44 -4.13,-3.32 -2,-1.13 -4,-2.26 -6,-3.39 -1.03,-0.58 -2.06,-1.16 -2.99,-1.9 -0.71,-0.57 -1.35,-1.22 -2.06,-1.78 -0.85,-0.66 -1.78,-1.2 -2.72,-1.72 -1.4,-0.79 -2.8,-1.58 -4.2,-2.37 -1.74,-0.99 -3.56,-1.99 -5.55,-2.18 -0.03,-0.57 -0.05,-1.14 -0.02,-1.72 0.04,-1.25 0.13,-2.53 -0.06,-3.75 -0.33,-5.12 -0.63,-10.21 -0.96,-15.34 -0.09,-1.33 0.01,-2.65 0.23,-3.97 0.15,-0.91 0.37,-1.84 0.91,-2.59 0.31,-0.43 0.7,-0.78 1.1,-1.12 0.39,-0.34 0.8,-0.68 1.28,-0.89 0.96,-0.43 2.05,-0.32 3.1,-0.33 1.7,-0.01 3.4,-0.33 5.08,-0.12 1.13,-0.14 2.27,-0.19 3.41,-0.21 1.75,-0.03 3.5,-0.06 5.25,-0.09 1.54,-0.03 3.01,-0.02 4.54,0.15 -0.77,-8.87 -0.06,-17.85 -1.25,-26.68 -1.18,-8.83 -4.64,-17.9 -11.84,-23.14 -0.3,-0.21 -0.6,-0.42 -0.95,-0.51 -0.5,-0.13 -1.02,0 -1.51,0.15 -5.71,1.69 -10.6,5.59 -14.2,10.33 -3.61,4.73 -6.01,10.28 -7.82,15.95 -1.81,5.65 -3.08,11.61 -2.4,17.5 0.67,5.75 3.15,11.56 1.59,17.13 0.09,0.19 0.19,0.36 0.29,0.53 -0.18,-0.21 -0.38,-0.42 -0.56,-0.65 -3.4,3.46 -7.88,5.84 -12.65,6.74 -2.87,3.65 -5.25,7.7 -7.03,11.99 -1.08,2.58 -2.08,5.1 -2.73,7.8 -0.13,0.53 -0.26,1.06 -0.39,1.59 -0.31,1.25 -0.61,2.5 -0.92,3.76 -0.27,1.12 -0.66,2.25 -0.91,3.38 -0.69,3.17 -1.62,6.28 -2.77,9.31 -0.36,0.92 -0.73,1.85 -0.89,2.83 -0.21,1.3 -0.51,2.62 -0.93,3.88 -0.28,0.8 -0.62,1.59 -0.87,2.4 -0.21,0.67 -0.37,1.36 -0.52,2.04 -0.58,2.7 -1.13,5.42 -1.27,8.17 -0.19,3.4 -0.42,6.83 -0.03,10.21 0.19,1.67 0.54,3.32 0.59,4.99 0.07,2.19 0.89,4.25 1.66,6.3 0.22,0.58 0.45,1.17 0.74,1.72 0.48,0.91 1.1,1.72 1.73,2.54 1.07,1.39 2.15,2.79 3.35,4.07 3.33,3.53 7.23,6.42 11.57,8.59 1.32,0.66 2.66,1.3 4.06,1.75 0.78,0.24 1.59,0.44 2.41,0.41 0.78,-0.03 1.53,-0.25 2.28,-0.46 2.08,-0.61 4.16,-1.22 6.23,-1.83 3.49,-1.02 6.95,-1.98 10.13,-3.74 0.56,-0.32 1.13,-0.63 1.64,-1.02 0.45,-0.35 0.85,-0.74 1.28,-1.12 2.62,-2.32 6.04,-3.82 8.07,-6.68 0.45,-0.63 0.74,-1.39 1.29,-1.92 0.37,-0.35 0.8,-0.61 1.18,-0.94 0.44,-0.37 0.81,-0.81 1.18,-1.25 0.89,-1.07 1.78,-2.15 2.55,-3.31 0.38,-0.57 0.72,-1.15 1.07,-1.74 0.41,-0.68 0.81,-1.36 1.21,-2.04 0.4,-0.67 0.79,-1.34 1.07,-2.07 0.06,-0.16 0.14,-0.27 0.21,-0.43 0.83,-1.78 1.46,-3.65 2.07,-5.52l0.12 0.11c1.28,1.07 2.22,2.53 3.14,3.93 0.57,0.88 1.14,1.76 1.72,2.64 0.33,0.51 0.66,1.02 1.01,1.51 2.1,2.98 4.6,4.98 6.64,7.78 0.78,1.06 0.81,3.14 0.8,4.46 -0.01,1.21 0.06,2.45 0.14,3.66 0.07,0.87 0.13,1.74 0.19,2.61 0.08,1.23 0.17,2.45 0.23,3.67 0.13,3.18 0.06,6.33 -0.24,9.5 1.13,-0.93 2.21,-1.94 3.21,-3.01 0.37,-0.4 0.72,-0.8 1.04,-1.24 0.79,-1.09 1.28,-2.37 1.76,-3.62 0.13,-0.34 0.26,-0.68 0.36,-1.03 0.22,-0.77 0.28,-1.58 0.65,-2.29 1.02,2.8 1.97,5.65 2.72,8.54 0.76,2.89 1.6,5.76 2.57,8.58 0.71,2.06 1.33,4.16 1.84,6.28 0.09,0.36 0.18,0.72 0.26,1.08 0.08,0.32 0.15,0.63 0.22,0.95 0.31,1.29 0.31,2.59 0.81,3.82 0.72,1.77 1.27,3.62 1.63,5.5 0.14,0.68 0.24,1.37 0.4,2.04 0.51,2.19 1.52,4.18 2.1,6.36 0.58,2.15 1.16,4.32 1.96,6.4 0.17,0.46 0.36,0.92 0.54,1.37 0.74,1.81 1.2,3.74 2.19,5.42 1.15,1.98 2.39,3.91 3.71,5.78 0.73,1.03 1.48,2.05 2.31,3 0.21,0.25 0.43,0.5 0.65,0.74 0.69,0.76 1.42,1.46 2.09,2.24 1.45,1.72 3.08,3.3 4.83,4.71 0.31,0.25 0.63,0.49 1,0.61 0.34,0.1 0.7,0.1 1.06,0.08 0.69,-0.03 1.39,-0.1 2.08,-0.21 0.74,-0.11 1.49,-0.27 2.14,-0.64 0.69,-0.39 1.24,-1.01 1.86,-1.5 0.49,-0.39 1.02,-0.71 1.45,-1.14 0.38,-0.38 0.66,-0.84 0.94,-1.29 0.42,-0.68 0.69,-1.48 1.25,-2.04 0.92,-0.92 1.3,-2.24 1.91,-3.39 0.21,-0.4 0.46,-0.79 0.65,-1.21 0.49,-1.08 0.58,-2.31 0.56,-3.51 -0.01,-1.19 -0.17,-2.32 -0.01,-3.51 0.35,-2.57 0.57,-5.16 0.65,-7.75z"/>
  <path class="fil18" d="M110.75 289.98c-2.13,-1.97 -4.32,-3.91 -6.05,-6.23 -1.91,-2.56 -3.2,-5.52 -4.41,-8.48 -2.24,-5.47 -4.25,-11.17 -6.06,-16.79 -2.57,-7.99 -4.32,-16.24 -5.25,-24.58 -0.33,-2.94 -0.57,-5.9 -1,-8.83 -0.31,-2.15 -0.74,-4.28 -1.16,-6.41 -0.88,-4.38 -0.37,-9.39 -2.64,-13.23 -1.56,-2.65 -4.21,-4.45 -6.15,-6.83 -1.66,-2.02 -2.76,-4.42 -3.85,-6.8 -0.55,-1.21 -1.37,-2.27 -1.75,-3.55 -2.19,-7.28 -1.22,-15.18 1.02,-22.44 0.41,-1.34 0.87,-2.67 1.32,-4 1.31,-3.84 1.88,-7.85 3.99,-11.31 2.51,-4.13 4.38,-8.61 6.24,-13.06 2.67,-6.37 5.34,-12.75 7.37,-19.35 1.82,-5.9 3.24,-12.19 7.2,-16.93 0.76,-0.91 1.62,-1.76 2.45,-2.61 -1.19,0.15 -2.39,-0.17 -3.58,-0.26 -1.2,-0.09 -2.39,-0.3 -3.58,-0.49 -2.53,-0.39 -5.08,-0.67 -7.64,-0.82 -4.31,-0.26 -8.86,-0.11 -12.61,2.02 -1.44,0.82 -2.71,1.89 -3.86,3.07 -1.54,1.57 -3.23,3.21 -4.14,5.22 -1.39,3.06 -2.78,6.15 -3.55,9.43 -1.06,4.56 -0.86,9.31 -0.74,14 0.24,9.32 -0.69,18.83 -0.17,28.14 0.88,15.52 -0.23,31.09 0.51,46.62 0.55,11.36 2.13,22.68 4.73,33.75 0.61,2.59 1.53,5.19 2.23,7.76 3.69,13.56 10.23,26.3 12.94,40.09 0.45,2.31 0.8,4.65 0.69,7 -0.08,1.51 -0.34,3 -0.66,4.47l36.72 0c-2.75,-2.96 -5.6,-5.82 -8.56,-8.57z"/>
  <path class="fil18" d="M188.72 245.15c-1.88,-2.02 -4.15,-3.65 -6.84,-5.22 2.62,3.5 4.3,7.86 3.9,12.21 -0.33,3.72 -2.12,7.14 -4.09,10.31 -3.89,6.27 -8.61,11.98 -12.83,18.03 -3.88,5.58 -7.39,11.55 -9.23,18.07l49.71 0c-0.66,-9.56 -2.35,-19.08 -5.53,-28.12 -3.35,-9.5 -8.25,-17.88 -15.09,-25.28z"/>
  <path class="fil19" d="M170.97 100.05c0,-0.16 -0.02,-0.31 -0.07,-0.45 0.02,0.15 0.05,0.3 0.07,0.45z"/>
  <path class="fil19" d="M171.84 109.04c0.38,0.91 0.86,1.8 1.07,2.77 0.17,0.76 0.16,1.54 0.24,2.31 0.14,1.38 0.54,2.71 0.83,4.07 0.52,2.37 0.73,4.81 0.61,7.23 1.45,-1.8 1.66,-4.27 1.65,-6.58 0,-1.38 -0.06,-2.77 -0.18,-4.15 -0.09,-0.99 -0.21,-1.99 -0.61,-2.9 -0.38,-0.85 -0.99,-1.58 -1.49,-2.36 -1.03,-1.6 -1.62,-3.47 -1.7,-5.37 -0.01,-0.19 0.01,-0.41 0.08,-0.6l0.01 0c0.54,0.43 1.22,0.69 1.92,0.69 1.02,0.01 2.02,-0.5 2.65,-1.3 -1.15,0.23 -2.37,0.06 -3.42,-0.46l0 -0.01c0.02,-0.56 -0.02,-1.11 -0.12,-1.66 -0.3,0.06 -0.6,-0.09 -0.83,-0.29 -0.23,-0.2 -0.41,-0.45 -0.62,-0.67 -0.27,-0.27 -0.61,-0.48 -0.97,-0.6 0.01,0.19 0.01,0.38 0.02,0.58l-0.03 -0.06 0.03 0.07c0.01,0.22 0.03,0.44 0.04,0.67 -0.02,-0.13 -0.03,-0.25 -0.05,-0.37 -0.01,0.5 -0.2,1.08 -0.25,1.53 -0.08,0.82 -0.1,1.65 -0.05,2.48 0.11,1.71 0.5,3.4 1.17,4.98z"/>
  <path class="fil19" d="M165.81 131.83c0.37,0.45 0.74,0.91 1.16,1.31 0.56,0.53 1.21,0.97 1.87,1.37 3.17,1.93 6.7,3.16 10.14,4.53 0.95,0.37 1.9,0.77 2.74,1.34 0.84,0.58 1.57,1.36 1.92,2.32 -0.41,-2.02 -1.43,-3.91 -2.91,-5.34 -0.66,-0.65 -1.42,-1.2 -2.16,-1.76 -1.23,-0.93 -2.45,-1.91 -3.32,-3.19 -0.87,-1.27 -1.35,-2.89 -0.95,-4.38 -0.49,1.44 -1.22,2.8 -2.15,4 -0.32,0.32 -0.65,0.63 -1.05,0.85 -0.45,0.23 -0.97,0.32 -1.48,0.27 -0.31,-0.13 -0.6,-0.33 -0.86,-0.55 -1.06,-0.94 -1.73,-2.25 -2.68,-3.3 -0.61,-0.68 -1.32,-1.24 -2.03,-1.81 -1.03,-0.81 -2.06,-1.63 -3.09,-2.45 1.49,2.35 3.12,4.61 4.85,6.79z"/>
  <path class="fil19" d="M148.01 116.86c1.26,1.7 2.87,3.13 4.69,4.2 0.82,0.49 1.68,0.9 2.55,1.3 1.13,0.54 2.25,1.07 3.38,1.6 0.4,0.19 0.8,0.38 1.21,0.54 -4.2,-2.12 -8.17,-4.69 -11.83,-7.64z"/>
  <path class="fil19" d="M158.75 149.51c-0.28,-0.29 -0.58,-0.58 -0.96,-0.71 -0.29,-0.09 -0.6,-0.09 -0.91,-0.08 -0.1,0 -0.21,0 -0.31,0 -0.42,-0.09 -0.85,-0.13 -1.27,-0.14 -0.7,0 -1.39,0.09 -2.08,0.19l0.07 0.04c-0.22,0.01 -0.44,0.01 -0.66,0.02 -0.28,-0.07 -0.59,-0.08 -0.88,-0.08 -0.72,-0.01 -1.45,-0.01 -2.17,-0.02 -0.55,0 -1.11,0 -1.6,0.22l0.03 0.04c-0.77,0.03 -1.54,0.06 -2.32,0.09 1.99,0.28 4,0.58 5.93,1.11 0.01,0.32 0.11,0.63 0.39,0.73 0.1,0.03 0.2,0.03 0.3,0.04 0.52,0 1.05,0 1.57,0.01 0.09,0.03 0.17,0.06 0.26,0.1 1.38,0.6 2.74,1.41 4.25,1.43 0.94,0.01 1.86,-0.3 2.76,-0.61 -0.8,-0.79 -1.6,-1.59 -2.4,-2.38z"/>
  <path class="fil19" d="M158.78 130.06c0.78,-0.81 1.41,-1.76 1.84,-2.8 -0.8,0.97 -1.58,1.95 -2.35,2.95 0.15,0.13 0.37,-0.01 0.51,-0.15z"/>
  <path class="fil19" d="M159.54 126.9l0.09 -0.04c0.06,-0.07 -0.1,-0.11 -0.17,-0.06 -0.77,0.54 -1.4,1.29 -1.8,2.14 0.8,-0.48 1.09,-1.54 1.88,-2.04z"/>
  <path class="fil19" d="M149.61 152.75c-0.03,-0.07 -0.04,-0.15 -0.06,-0.23 0,0.07 -0.02,0.14 -0.03,0.21l0.09 0.02z"/>
  <path class="fil19" d="M149.52 152.75l0 -0.02 -0.22 -0.05c0.05,0.05 0.14,0.08 0.22,0.07z"/>
  <path class="fil19" d="M149.55 152.52c0.11,-0.91 0.46,-1.8 1.02,-2.54 -0.81,0.53 -1.22,1.6 -1.02,2.54z"/>
  <path class="fil19" d="M185.9 249.07c0.03,-0.95 0.12,-1.95 0.67,-2.72 0.54,-0.78 1.67,-1.22 2.47,-0.72 -2.13,-2.16 -4.45,-4.13 -6.94,-5.87 2.14,3.7 3.99,7.87 3.44,12.11 0.36,-0.88 0.33,-1.86 0.36,-2.8z"/>
  <path class="fil19" d="M195.96 147.47l-0.01 -0.04 0.06 0.04 -0.05 0zm28.74 87.08c-0.2,-2.74 -1.02,-5.38 -1.84,-8 -0.67,-2.15 -1.34,-4.31 -2.31,-6.35 -0.95,-2.02 -2.17,-3.9 -3.37,-5.79 -3.48,-5.45 -6.79,-11.02 -9.57,-16.84 0.46,0.81 0.97,1.59 1.56,2.32 -2.65,-5.77 -4.14,-12.07 -4.34,-18.42 -0.06,-1.93 0,-3.86 -0.03,-5.8 -0.14,-9.21 -2.29,-18.48 -6.84,-26.49 -0.13,-0.24 -0.27,-0.47 -0.43,-0.7 0.61,0.41 1.23,0.81 1.84,1.21 0.44,0.29 0.88,0.58 1.39,0.68 -0.57,-1.33 -1.66,-2.36 -2.72,-3.36 -0.59,-0.55 -1.17,-1.1 -1.76,-1.65 -0.32,-0.3 -0.71,-0.6 -1.11,-0.69l-0.09 -0.13c-0.11,-0.34 -0.21,-0.69 -0.32,-1.03 -0.25,-0.79 -0.53,-1.61 -1.13,-2.18 -0.18,-0.17 -0.46,-0.32 -0.66,-0.17 -0.1,0.06 -0.15,0.18 -0.19,0.29 -0.93,2.61 -1.04,5.43 -1.04,8.2 0,3.06 0.11,6.14 0.73,9.13 0.01,0.1 0.01,0.2 0.02,0.3 0.02,0.27 0.05,0.54 0.07,0.8 -1.6,-3.36 -2.93,-6.84 -4.04,-10.4 -0.17,-0.56 -0.34,-1.12 -0.51,-1.68 -0.67,-2.33 -1.27,-4.67 -1.79,-7.03 0.11,0.71 0.22,1.42 0.33,2.12 -0.58,-1.95 -1.16,-3.91 -1.75,-5.87 1.54,6.68 3.09,13.43 3.14,20.29 0.03,3.36 -0.24,6.99 1.55,9.84 1.06,1.68 2.76,2.91 3.76,4.64 0.85,1.46 1.13,3.18 1.44,4.84 2.57,13.87 7.62,27.28 14.84,39.4 2.51,4.23 5.31,8.35 7.43,12.77 3.04,8.07 3.46,13.75 4.03,16.65 0.36,1.87 0.65,3.78 0.52,5.68 -0.24,3.72 -2.01,7.15 -3.74,10.46 1.59,-1.59 3.01,-3.36 4.2,-5.27 1.05,-1.68 1.15,-2.68 1.53,-4.68 0.4,-2.12 0.79,-5.6 0.82,-7.76 0.03,-3.11 0.61,-6.22 0.38,-9.33z"/>
  <path class="fil19" d="M125.1 189.07c-1.89,-2.89 -2.37,-6.49 -2.26,-9.94 0.12,-4.17 -0.15,-7.94 1.48,-11.78 -1.48,2.7 -4.29,14.65 -6.74,16.86 1.93,-6.51 2.74,-23.66 -2.02,-32.25 2.1,8.85 0.71,18.48 -3.8,26.38 -1.3,2.29 -2.93,4.5 -5.19,5.86 -2.27,1.36 -5.29,1.72 -7.53,0.32 -0.98,-0.61 -1.75,-1.5 -2.44,-2.43 -4.7,-6.38 -5.8,-14.64 -6.75,-22.51 -0.09,4.06 -0.18,8.16 0.61,12.15 2.02,10.17 9.81,18.65 19.24,22.99 2.34,1.09 4.85,1.95 7.43,2.03 2.21,0.06 4.4,-0.45 6.53,-1.08 2.65,-0.79 5.31,-1.79 7.38,-3.62 -2.28,0.66 -4.64,-1 -5.94,-2.98z"/>
  <path class="fil19" d="M173.9 199.73c1.74,-2.42 3.03,-5.15 3.79,-8.03 0.21,-0.8 0.37,-1.62 0.28,-2.43 -0.05,-0.49 -0.2,-0.96 -0.33,-1.43 -0.33,-1.22 -0.57,-2.47 -1.07,-3.63 -0.5,-1.15 -1.3,-2.24 -2.44,-2.77 0.05,2.52 -0.64,5.05 -1.97,7.19 -0.16,0.26 -0.34,0.53 -0.42,0.83 -0.11,0.4 -0.05,0.83 0,1.25 0.52,3.88 0.33,7.85 -0.55,11.66 1.11,-0.61 1.97,-1.61 2.71,-2.64z"/>
  <path class="fil19" d="M109.56 107.58c0.96,0.57 1.94,1.07 2.93,1.57 1.95,1 3.9,1.99 5.85,2.99 1.23,0.63 2.48,1.26 3.79,1.48 0.15,0.03 0.35,0 0.38,-0.18 0.02,-0.16 -0.11,-0.27 -0.23,-0.35 -0.9,-0.58 -1.73,-1.31 -2.56,-2.03 -2.28,-1.98 -4.57,-3.98 -6.55,-6.4 -0.51,-0.62 -0.99,-1.26 -1.51,-1.86 -0.77,-0.88 -1.62,-1.67 -2.25,-2.7 -0.27,-0.44 -0.52,-0.94 -0.93,-1.14 -0.27,-0.12 -0.56,-0.1 -0.84,-0.08 -0.35,0.03 -0.71,0.06 -1.02,0.25 -0.44,0.28 -0.71,0.85 -0.95,1.39 -0.38,0.84 -0.76,1.68 -1.14,2.52 -0.05,0.11 -0.1,0.23 -0.09,0.35 0.02,0.16 0.12,0.28 0.22,0.37 1.52,1.49 3.16,2.77 4.9,3.82z"/>
  <path class="fil19" d="M84.76 135.76c-0.45,-3 -0.54,-6.06 -0.26,-9.08 0.04,-0.42 0.07,-0.9 -0.22,-1.2 -0.2,1.95 -0.23,3.92 -0.26,5.89 -0.03,2.16 -0.05,4.39 0.75,6.39 0.21,-0.64 0.09,-1.34 -0.01,-2z"/>
  <path class="fil19" d="M156.46 161.02c-0.92,-0.75 -1.89,-1.43 -2.9,-2.05 0.82,0.8 1.69,1.69 1.83,2.83 0.08,0.64 -0.08,1.28 -0.25,1.89 -2.08,7.22 -6.55,13.49 -11.23,19.35 2.69,-2.58 5.74,-4.86 7.86,-7.93 1.29,-1.86 2.19,-3.96 3.08,-6.04 0.68,-1.61 1.35,-3.22 2.02,-4.83 0.35,-0.84 0.68,-1.84 0.19,-2.61 -0.15,-0.24 -0.38,-0.43 -0.6,-0.61z"/>
  <path class="fil19" d="M135.04 112c-0.18,0.79 -0.31,1.58 -0.41,2.38 0.47,0.25 0.89,0.61 1.28,1.01 0.17,0.17 0.33,0.35 0.49,0.53l0.04 0.04c0.16,0.18 0.31,0.36 0.47,0.54l0 0 0.11 0.12 0 -0.06c0.67,0.39 1.4,0.68 2.15,0.83 0.58,0.11 1.17,0.15 1.74,0 0.56,-0.15 1.09,-0.51 1.34,-1.03 0.3,-0.66 0.14,-1.43 -0.02,-2.13 -0.05,0.53 -0.39,0.98 -0.73,1.4 -0.48,0.61 -1.06,1.27 -1.84,1.3 -0.4,0.02 -0.78,-0.14 -1.15,-0.29 -0.49,-0.21 -0.97,-0.42 -1.45,-0.64 0.1,-1.59 0.37,-3.16 0.53,-4.76l-0.01 0c-0.09,0 -0.18,-0.03 -0.24,-0.09 -0.12,0.07 -0.3,0.05 -0.4,-0.07 -0.12,-0.03 -0.22,-0.12 -0.22,-0.28l0 -1.55c0,-0.08 0.04,-0.15 0.09,-0.2 -0.03,-0.73 -0.06,-1.46 -0.1,-2.19 -0.02,-0.41 -0.07,-0.85 -0.03,-1.27 -0.22,-0.22 -0.49,-0.41 -0.79,-0.53 0.12,1.34 0.05,2.71 -0.19,4.04 -0.18,0.98 -0.45,1.93 -0.66,2.9z"/>
  <path class="fil19" d="M134.45 132.22c0.27,-0.01 0.53,-0.01 0.74,-0.05 0.94,-0.22 1.82,-0.96 2.76,-0.79l0 -0.02 0.13 0.02c0.91,0.16 1.92,0.37 2.47,1.12 0.18,0.24 0.29,0.52 0.47,0.76 0.36,0.51 0.99,0.81 1.62,0.77 0.48,-0.03 0.94,-0.26 1.26,-0.62 1.27,0.52 2.59,0.94 3.91,1.28 1.45,0.38 2.98,0.73 4.14,1.69 0.47,0.39 0.84,0.85 1.19,1.34 -0.54,1.06 -1.08,2.11 -1.62,3.17 0.64,-0.63 1.15,-1.38 1.51,-2.2 0.1,-0.22 0.2,-0.45 0.34,-0.64 0.26,0.39 0.51,0.78 0.77,1.17 -0.34,0.79 -0.77,1.54 -1.28,2.23 0.14,0.15 0.37,0.01 0.51,-0.14 0.46,-0.46 0.84,-0.99 1.16,-1.55 0.23,0.31 0.48,0.61 0.76,0.88 0.83,0.79 1.87,1.29 2.87,1.85 2.9,1.59 5.5,3.66 8.4,5.25 3.62,2 7.88,3.4 10.15,6.85 -0.98,-1.8 -1.97,-3.62 -3.39,-5.1 -1.55,-1.6 -3.55,-2.73 -5.06,-4.37 -1.67,-1.8 -2.69,-4.15 -4.46,-5.85 -0.3,0.3 -0.36,0.74 -0.47,1.15 -0.5,0.46 -1.08,0.85 -1.74,0.95 -0.11,0.02 -0.22,0.02 -0.33,0.03l-0.04 -0.01c-1.19,-0.24 -2.33,-0.76 -3.3,-1.49 -0.85,-0.64 -1.57,-1.45 -2.38,-2.13 -2.62,-2.22 -6.07,-3.11 -9.26,-4.35 -2.91,-1.12 -5.7,-2.58 -8.28,-4.34 0.04,0.07 0.09,0.13 0.14,0.19 -0.08,-0.05 -0.16,-0.1 -0.25,-0.16 0,-0.06 0,-0.12 0,-0.18 -0.15,0.05 -0.33,0 -0.36,-0.2 -0.5,-2.78 -0.52,-5.61 -0.61,-8.43 -0.01,-0.21 0.15,-0.3 0.31,-0.28 -0.01,-0.1 -0.02,-0.2 -0.03,-0.31 -0.84,-0.62 -1.47,-1.4 -2.02,-2.28 -0.26,-0.41 -0.51,-0.8 -0.73,-1.22 -0.27,3.81 0.04,7.68 0.1,11.54 -0.63,-0.17 -1.27,-0.32 -1.9,-0.46 0.64,0.28 1.27,0.56 1.9,0.85 0.02,1.36 0,2.72 -0.1,4.08z"/>
  <path class="fil19" d="M150.45 155.4c-1.12,-1.02 -2.24,-2.04 -3.52,-2.85 -1.18,-0.75 -2.48,-1.32 -3.6,-2.16 -0.83,-0.63 -1.53,-1.39 -2.19,-2.19 -1.7,0.2 -2.34,-2.88 -2.61,-4.07 -0.02,-0.09 0,-0.16 0.03,-0.22 -0.31,-1.03 -0.45,-2.11 -0.54,-3.19 -0.08,-1.18 -0.1,-2.37 -0.1,-3.55 -1.21,-0.53 -2.43,-1.11 -3.49,-1.82l-0.12 -0.1c-0.03,3.66 0.6,7.34 1.56,10.87 0.32,1.18 0.74,2.37 1.5,3.34 1.23,1.56 3.19,2.32 5.02,3.09 4.03,1.69 7.91,3.72 11.6,6.05 -1.18,-1.07 -2.36,-2.13 -3.54,-3.2z"/>
  <path class="fil19" d="M146.27 37.41c0.93,0.36 1.67,1.1 2.28,1.89 2.85,3.69 3.46,8.59 3.94,13.23 0.44,4.35 0.78,9.05 -1.47,12.81 -0.63,1.04 -1.46,2.02 -1.67,3.23 -0.16,0.94 0.09,1.9 0.26,2.85 0.56,3.18 0.19,6.45 -0.22,9.66 1.56,-0.08 3.13,0.03 4.7,-0.03l-0.02 0.11c1.35,-0.02 2.71,-0.04 4.06,-0.06 0.5,0.03 1.01,0.06 1.51,0.08 1.27,-5.45 1.94,-11.04 2,-16.64 0.11,-9.8 -1.79,-19.89 -7.25,-28.03 -1.05,-1.57 -2.27,-3.09 -3.86,-4.11 -3.15,-2.02 -7.45,-1.73 -10.63,0.24 -3.17,1.98 -5.26,5.41 -6.14,9.04 2.64,-2.42 6.04,-4 9.59,-4.46 0.98,-0.13 2,-0.17 2.92,0.19z"/>
  <path class="fil19" d="M133.26 93.69c0.23,0.01 0.31,-0.29 0.3,-0.51 0,-0.74 -0.03,-1.49 0.09,-2.23 0.11,-0.74 0.39,-1.47 0.91,-2 0.35,-0.36 0.81,-0.64 0.99,-1.1 0.07,-0.17 0.1,-0.36 0.12,-0.54 0.05,-0.35 0.09,-0.69 0.14,-1.04 -0.8,0.59 -1.6,1.17 -2.4,1.75 -0.34,0.26 -0.7,0.52 -0.87,0.91 -0.17,0.35 -0.16,0.76 -0.13,1.14 0.07,1.11 0.26,2.2 0.57,3.27 0.04,0.15 0.12,0.33 0.28,0.35z"/>
  <path class="fil19" d="M80.25 148.57c1.74,-2.58 3.18,-5.55 3.46,-8.59 0.07,-0.25 0.15,-0.49 0.22,-0.74 0.05,-0.18 0.09,-0.36 0.1,-0.55 0,-0.26 -0.09,-0.51 -0.18,-0.76 -0.07,-0.21 -0.15,-0.41 -0.22,-0.62 -0.01,-0.1 -0.03,-0.21 -0.04,-0.31l-0.07 0c-0.46,-1.3 -0.92,-2.6 -1.38,-3.9 0.3,1.58 0.59,3.15 0.79,4.74 -0.42,1.47 -1.41,2.69 -2.27,3.96 -2,3 -3.29,6.47 -3.71,10.05 1.42,-0.68 2.43,-1.98 3.3,-3.28z"/>
  <path class="fil19" d="M89.58 125.96c2.17,-4.26 4.34,-8.57 5.62,-13.18 0.9,-3.26 1.35,-6.67 2.66,-9.79 -1.39,1.77 -2.29,3.88 -3.09,5.99 -0.77,2.06 -1.44,4.16 -2.09,6.28 -1.16,2.52 -2.31,5.04 -3.47,7.56 -0.55,1.19 -1.1,2.39 -1.34,3.67 -0.23,1.22 -0.17,2.5 0.17,3.69 0.53,-1.4 1.04,-2.81 1.54,-4.22z"/>
  <path class="fil19" d="M123.67 70.34c0.72,-1.74 1.64,-3.39 2.3,-5.15 1.51,-3.96 1.68,-8.27 2.36,-12.45 0.67,-4.19 2.01,-8.53 5.2,-11.31 -1.58,0.55 -2.88,1.74 -3.84,3.11 -0.96,1.37 -1.62,2.93 -2.27,4.48 -1.96,4.72 -3.82,9.51 -4.96,14.5 -1.14,4.99 -1.55,10.21 -0.57,15.23 0.08,-2.88 0.69,-5.74 1.78,-8.41z"/>
  <path class="fil19" d="M135.57 72.4c1.9,0.78 3.91,1.45 5.95,1.31 1.05,-0.07 2.11,-0.35 3.13,-0.09 1.42,0.35 2.4,1.69 2.88,3.08 0.05,-0.53 0.09,-1.07 0.13,-1.6 0.04,-0.51 0.08,-1.03 0.03,-1.54 -0.13,-1.21 -0.78,-2.28 -1.41,-3.32 -0.4,-0.66 -0.81,-1.33 -1.39,-1.85 -0.65,-0.6 -1.48,-0.96 -2.32,-1.25 -0.26,-0.62 -0.51,-1.24 -0.85,-1.81 -0.99,-1.7 -2.73,-2.93 -4.66,-3.33 -1.93,-0.39 -4,0.04 -5.63,1.14 -0.37,0.25 -0.73,0.55 -0.91,0.95 -0.16,0.36 -0.13,0.81 0.12,1.11 -0.23,-0.2 -0.66,-0.14 -0.79,0.15 -0.08,0.18 -0.04,0.39 0.02,0.58 0.24,0.81 0.83,1.52 1.6,1.91 0.48,0.24 1.01,0.36 1.54,0.47 1.37,0.27 2.76,0.49 4.15,0.65 1.24,0.14 2.49,0.24 3.68,0.6 0.7,0.2 1.38,0.51 1.97,0.93 0.25,0.23 0.51,0.46 0.77,0.68l0.09 0.1c-0.36,0.22 -0.74,0.41 -1.14,0.57 -0.5,0.14 -0.99,0.3 -1.49,0.43 -0.85,0.16 -1.72,0.17 -2.58,0.03 -1.18,-0.2 -2.31,-0.7 -3.27,-1.43 0.11,0.15 0.22,0.3 0.33,0.45 0.22,0.33 0.38,0.85 0.05,1.08z"/>
  <path class="fil19" d="M89.87 148.33c-0.84,3.79 -1.08,7.81 0.11,11.51 0.47,-4.06 2.65,-7.71 4.96,-11.08 2.31,-3.37 4.83,-6.7 6.13,-10.58 1.74,-5.21 1.1,-10.88 1.76,-16.34 0.27,-2.26 0.84,-5 1.35,-7.78 0.69,-0.84 1.87,-1.1 2.95,-1.07 1.09,0.04 2.16,0.31 3.25,0.3 0.04,-0.3 -0.28,-0.51 -0.54,-0.65 -1.4,-0.72 -2.67,-1.67 -3.78,-2.78 -0.07,-0.13 -0.14,-0.27 -0.2,-0.41 -0.3,-0.69 -0.5,-1.43 -0.58,-2.18 -0.02,-0.2 -0.04,-0.4 -0.1,-0.59 0.03,-0.72 0.03,-1.43 0,-2.08 -1.01,0.11 -2,3.53 -2.45,4.43 -4.4,8.89 -4,17.52 -7.14,26.92 -1.23,3.69 -4.87,8.6 -5.72,12.38z"/>
  <path class="fil19" d="M134.32 70.17l-0.01 -0.07c0.27,0.28 0.57,0.54 0.88,0.77 -0.28,-0.34 -0.59,-0.66 -0.92,-0.95 -0.1,-0.39 -0.32,-0.75 -0.38,-1.16l-0.05 -0.13 -0.07 -0.04c-0.79,-0.24 -1.63,-0.28 -2.4,-0.55 -0.14,-0.05 -0.29,-0.11 -0.44,-0.11 0.08,0.22 0.24,0.39 0.42,0.54 0.76,0.62 1.84,0.72 2.61,1.33 0.13,0.11 0.25,0.23 0.36,0.37z"/>
  <path class="fil19" d="M182.84 272.46c0.2,-5.67 0.4,-11.39 1.77,-16.9 -3.03,7.68 -8.5,14.09 -13.22,20.86 -4.8,6.87 -8.89,14.23 -12.2,21.93 -0.03,0.07 -0.06,0.14 -0.09,0.2l31.41 0c-2.72,-6.43 -6.73,-12.46 -7.56,-19.38 -0.26,-2.23 -0.18,-4.48 -0.11,-6.71z"/>
  <path class="fil19" d="M77.86 198.36c0.43,0.49 0.84,0.99 1.24,1.51 -0.44,-0.48 -0.86,-0.99 -1.24,-1.51zm40.49 99.5c-0.26,-0.25 -0.55,-0.49 -0.83,-0.72 -1.59,-1.69 -3.2,-3.36 -4.84,-5l-0.07 -0.1c-0.89,-1.23 -2.14,-2.14 -3.29,-3.13 -0.29,-0.26 -0.56,-0.52 -0.85,-0.78 -0.99,-0.96 -1.89,-2.04 -2.64,-3.2 0.6,3 1.2,6.02 1.99,8.98 -6.98,-14.1 -12.25,-29.03 -15.67,-44.38 -1.13,-5.11 -2.08,-10.3 -3.1,-15.48 0.02,-1.63 0.07,-3.26 -0.17,-4.92 -0.5,-3.38 -1.19,-6.72 -1.88,-10.07 -0.71,-3.4 -1.41,-6.81 -2.11,-10.21 -0.11,-0.7 -0.21,-1.4 -0.32,-2.1 -0.06,-0.4 -0.12,-0.81 -0.29,-1.18 -0.04,-0.1 -0.1,-0.2 -0.16,-0.3 -0.15,-0.52 -0.33,-1.03 -0.64,-1.47 -0.52,-0.76 -1.32,-1.27 -2.06,-1.82 -0.31,-0.23 -0.61,-0.47 -0.9,-0.72 -0.89,-0.98 -1.79,-1.95 -2.68,-2.93 -0.88,-1.2 -1.62,-2.52 -2.16,-3.91 0.49,1.76 0.95,3.53 1.4,5.31 0.26,9.86 1.73,19.66 3.2,29.42 2.39,15.84 4.87,31.97 11.99,46.32 3.81,7.68 8.96,14.94 11.3,23.08l15.28 0 -0.1 -0.1c-0.06,-0.22 -0.23,-0.43 -0.4,-0.59z"/>
  <path class="fil20" d="M69.62 167.71c-0.29,1.25 -0.45,2.53 -0.52,3.82 -0.11,1.7 -0.07,3.41 0.11,5.1 0.25,2.4 0.4,4.88 1.22,7.14 0.14,0.4 0.31,0.81 0.65,1.06 0.47,-1.26 -0.04,-2.65 -0.39,-3.95 -0.74,-2.75 -0.73,-5.66 -0.21,-8.45 0.39,-2.14 1.08,-4.21 1.92,-6.21 0.39,-0.94 0.78,-1.87 1.16,-2.81 0.39,-1 0.98,-1.9 1.42,-2.87 0.2,-0.46 0.37,-0.94 0.54,-1.42 1.07,-2.97 2.13,-5.95 3.19,-8.92l-0.11 0.19c-3.93,3.74 -6.18,8.88 -7.97,14 -0.38,1.09 -0.75,2.19 -1.01,3.32z"/>
  <path class="fil20" d="M183.56 191.64c-0.16,-1.54 -0.43,-3.1 -1.07,-4.52 -1.36,-2.99 -4.04,-5.36 -7,-6.8 -2.49,-1.22 -5.04,-2.48 -6.89,-4.54 -1.08,-1.19 -1.87,-2.6 -2.61,-4.02 -1.3,-2.49 -2.46,-5.05 -3.47,-7.66 -0.69,-1.76 -1.35,-3.62 -2.74,-4.91 -0.82,-0.76 -1.85,-1.26 -2.86,-1.76 -4.47,-2.18 -9.09,-4.41 -12.39,-8.14 -1.61,-0.36 -3.03,-0.82 -4.62,-1.27 0.56,1.3 1.57,2.38 2.73,3.2 1.15,0.82 2.46,1.41 3.77,1.96 0.61,0.26 1.23,0.5 1.83,0.81 1.44,0.75 2.68,1.83 3.91,2.89 1.41,1.23 3.05,2.4 4.42,3.67 1.24,1.15 2.26,2.52 3.21,3.93 2.18,3.24 4.09,6.49 5.54,10.11 2.02,1.48 4.05,2.96 6.08,4.44 1.27,0.93 2.57,1.87 3.57,3.09 1.48,1.8 2.24,4.06 2.96,6.28 2.9,8.95 5.55,17.99 7.94,27.09 -0.23,-3.96 -1.28,-7.82 -1.7,-11.76 -0.43,-4.01 -0.2,-8.07 -0.61,-12.09z"/>
  <path class="fil20" d="M217.14 260.09c-0.71,0.81 -1.43,1.63 -2.34,2.21 -0.26,0.16 -0.54,0.31 -0.84,0.37 -0.3,0.07 -0.62,0.05 -0.93,0 -0.67,-0.1 -1.33,-0.32 -1.92,-0.66 -0.69,-0.4 -1.29,-0.94 -1.87,-1.48 -2.26,-2.12 -4.34,-4.42 -6.33,-6.8 0.55,0.92 1.1,1.83 1.65,2.75 0.33,0.55 0.66,1.1 1.04,1.61 0.39,0.53 0.84,1.02 1.29,1.5 0.81,0.89 1.63,1.77 2.54,2.55 0.99,0.87 2.19,1.65 3.5,1.58 1.28,-0.07 2.37,-0.94 3.26,-1.85 0.45,-0.45 0.87,-0.93 1.26,-1.42 0.42,-0.52 0.82,-1.08 0.92,-1.74 -0.41,0.46 -0.82,0.92 -1.23,1.38z"/>
  <path class="fil20" d="M205.96 178.86c0.97,-5.62 0.36,-11.5 -1.75,-16.79 1.76,5.37 1.76,11.13 1.75,16.79z"/>
  <path class="fil20" d="M124.15 86.88c-0.23,-0.67 -0.47,-1.33 -0.77,-1.98 0.21,0.68 0.48,1.34 0.77,1.98z"/>
  <path class="fil20" d="M136.34 102.05c-0.15,-0.34 -0.48,-0.57 -0.79,-0.78 -4.13,-2.83 -7.13,-7.02 -9.71,-11.31 -0.6,-1 -1.19,-2.02 -1.69,-3.08 0.46,1.31 0.84,2.65 1.37,3.94 2.1,5.09 6.35,8.92 9.68,13.31 0.42,0.55 0.84,1.12 1.39,1.53 0.03,-1.04 -0.02,-2.07 -0.14,-3.1 -0.02,-0.17 -0.04,-0.35 -0.11,-0.51z"/>
  <path class="fil20" d="M148.05 81.43c0.2,-2.11 0.38,-4.22 0.45,-6.34 0.04,-0.97 0.04,-1.99 -0.37,-2.87 0.09,3.09 -0.31,6.19 -1.17,9.16 0.36,-0.01 0.72,0.04 1.09,0.05z"/>
  <path class="fil20" d="M137.02 72.49c-1.62,-0.52 -3.06,-1.58 -4.05,-2.96 -0.14,-0.19 -0.29,-0.41 -0.53,-0.46 -0.31,-0.07 -0.62,0.22 -0.66,0.53 -0.05,0.32 0.1,0.63 0.29,0.89 0.25,0.32 0.58,0.58 0.91,0.82 0.91,0.65 1.9,1.17 2.95,1.56 0.68,0.24 1.41,0.44 2.11,0.25 -0.18,-0.37 -0.63,-0.5 -1.02,-0.63z"/>
  <path class="fil20" d="M131.84 60.77c-0.86,-0.08 -1.72,-0.15 -2.57,0 -0.13,0.03 -0.27,0.06 -0.39,0.14 -0.14,0.09 -0.23,0.24 -0.3,0.4 -0.2,0.5 -0.16,1.07 0.02,1.58 0.18,0.5 0.49,0.96 0.81,1.38 0.24,0.31 0.49,0.61 0.75,0.9 0.18,0.21 0.42,0.43 0.69,0.37 -0.36,-0.46 -0.26,-1.15 0.09,-1.61 0.34,-0.46 0.88,-0.73 1.42,-0.94 1.9,-0.76 4.03,-0.93 6.03,-0.48 -1.46,-0.77 -3.05,-1.29 -4.68,-1.54 -0.62,-0.09 -1.25,-0.15 -1.87,-0.2z"/>
  <path class="fil20" d="M122.05 114.96c-3.93,-1.27 -7.46,-3.51 -11.18,-5.29 -0.31,-0.15 -0.62,-0.29 -0.95,-0.41 -0.1,0.29 0.17,0.57 0.41,0.75 3.55,2.74 7.72,4.85 12.18,5.3 -0.04,-0.2 -0.27,-0.29 -0.46,-0.35z"/>
  <path class="fil20" d="M88.52 292.02c-0.62,-0.29 -1.31,-0.35 -1.94,-0.62 -2.12,-0.91 -2.66,-3.75 -2.18,-6.01 0.22,-1.04 0.58,-2.09 0.4,-3.14 -0.21,-1.22 -1.12,-2.19 -1.9,-3.16 -2.39,-3 -3.76,-6.67 -4.85,-10.35 -3.08,-10.32 -2.17,-21.6 -5.74,-31.77 -2.42,-6.9 -4.86,-13.87 -5.86,-21.12 -0.37,-2.72 -0.54,-5.46 -0.67,-8.2 -0.49,-10.1 -0.14,-20.17 -0.16,-30.28 -0.03,-14.31 -0.05,-28.63 -0.08,-42.95 0,-3.66 -0.01,-7.33 0.32,-10.98 0.6,-6.81 2.36,-13.52 5.17,-19.75 0.76,-1.69 1.71,-3.45 3.38,-4.24 -0.52,-0.04 -1.04,0.14 -1.47,0.43 -0.75,0.51 -1.5,1.03 -2.13,1.69 -0.37,0.39 -0.7,0.83 -1.02,1.27 -0.36,0.49 -0.72,0.98 -1.08,1.46 -1.84,2.49 -2.74,5.58 -4.36,8.2 -0.75,1.21 -0.95,2.66 -1.13,4.07 -1.06,8.71 -1.27,17.5 -1.11,26.28 0.19,11.13 0.01,22.37 0.26,33.5 0.22,10.23 -0.24,20.59 0.36,30.8 0.68,11.6 2.21,23.27 5.21,34.5 2.12,7.95 5.67,15.44 8.44,23.18 2.26,6.31 4,12.79 5.74,19.26 0.6,2.22 1.19,4.45 1.34,6.74 0.17,2.59 -0.24,5.17 -0.8,7.72l7.32 0c0.31,-0.67 0.51,-1.4 0.58,-2.14 0.16,-1.72 -0.48,-3.67 -2.04,-4.39z"/>
  <path class="fil20" d="M207.61 298.55l1.08 0c0.09,-0.66 0.1,-1.35 0.09,-2.02 -0.2,-12.43 -4.24,-24.5 -9.28,-35.86 4.67,12.08 6.9,24.97 8.11,37.88z"/>
  <path class="fil21" d="M170.66 95.24c0.04,-0.25 0.09,-0.5 0.2,-0.73 0.15,-0.28 0.39,-0.51 0.68,-0.63 0.59,-0.25 1.29,-0.05 1.79,0.34 0.5,0.39 0.84,0.94 1.16,1.5 1.01,1.77 1.87,3.64 2.57,5.56 0.11,0.31 0.21,0.65 0.08,0.94 -0.16,0.32 -0.54,0.45 -0.89,0.53 -0.41,0.09 -0.83,0.17 -1.24,0.23 -0.36,0.06 -0.73,0.1 -1.1,0.04 -0.45,-0.07 -0.86,-0.27 -1.26,-0.5 -0.27,-0.15 -0.55,-0.32 -0.76,-0.55 -0.31,-0.33 -0.47,-0.77 -0.61,-1.2 -0.46,-1.32 -0.87,-2.68 -0.82,-4.08 0.03,-0.49 0.11,-0.97 0.2,-1.45z"/>
  <path class="fil21" d="M134.96 114.82c-0.7,-0.57 -1.13,-1.41 -1.53,-2.22 -0.02,0.08 -0.14,0.02 -0.18,-0.05 -0.19,-0.36 -0.38,-0.73 -0.45,-1.13 -0.06,-0.4 0.03,-0.85 0.33,-1.12 0.24,-0.24 0.6,-0.32 0.94,-0.31 0.34,0.01 0.68,0.09 1.01,0.14 0.39,0.05 0.78,0.07 1.15,0.17 0.46,0.13 0.87,0.38 1.3,0.59 0.83,0.4 1.73,0.66 2.48,1.2 0.34,0.25 0.64,0.55 1,0.78 0.4,0.25 0.87,0.4 1.24,0.71 -0.02,0.53 -0.2,1.04 -0.51,1.48 -0.07,0.09 -0.14,0.19 -0.17,0.31 -0.01,0.09 0.01,0.18 -0.02,0.27 -0.02,0.09 -0.07,0.15 -0.13,0.22 -0.72,0.84 -1.97,1.18 -3.03,0.85 -0.36,-0.12 -0.69,-0.3 -1.02,-0.48 -0.52,-0.28 -1.03,-0.57 -1.54,-0.86 -0.3,-0.17 -0.6,-0.34 -0.87,-0.55z"/>
  <path class="fil21" d="M127.98 126.79c0.02,-0.14 0.05,-0.27 0.15,-0.36 0.08,-0.07 0.19,-0.1 0.29,-0.12 0.92,-0.16 1.85,0.17 2.73,0.49 0.9,0.33 1.8,0.67 2.7,1 0.79,0.29 1.65,0.64 2.02,1.39 -0.09,0.3 -0.1,0.61 -0.15,0.91 -0.09,0.66 -0.39,1.34 -0.95,1.7 -0.51,0.34 -1.17,0.37 -1.78,0.29 -1.02,-0.13 -2,-0.54 -2.82,-1.16 -0.43,-0.34 -0.82,-0.73 -1.21,-1.12 -0.37,-0.37 -0.75,-0.77 -0.94,-1.26 -0.21,-0.56 -0.15,-1.18 -0.04,-1.76z"/>
  <path class="fil22" d="M174.2 101.74c-0.15,-0.54 -0.32,-1.05 -0.5,-1.54 -0.14,-0.38 -0.78,-2.32 -0.97,-2.91 -0.26,-0.85 -0.56,-1.65 -0.87,-2.44 -0.05,-0.14 -0.12,-0.29 -0.18,-0.26 0.04,0.59 0.17,1.18 0.29,1.76 0.3,1.4 0.61,2.79 0.93,4.18 0.09,0.37 0.17,0.74 0.29,1.08 0.12,0.33 0.26,0.64 0.43,0.8 0.16,0.16 0.32,0.16 0.48,0.16 0.06,0 0.13,-0.01 0.16,-0.11 0.07,-0.16 0,-0.48 -0.06,-0.72z"/>
  <path class="fil22" d="M140.2 114.77c-0.49,-0.26 -0.97,-0.5 -1.45,-0.71 -0.37,-0.16 -2.22,-1.04 -2.77,-1.32 -0.8,-0.39 -1.58,-0.73 -2.37,-1.06 -0.13,-0.05 -0.29,-0.11 -0.31,-0.04 0.46,0.38 0.97,0.7 1.48,1.01 1.21,0.75 2.43,1.49 3.65,2.22 0.33,0.19 0.66,0.38 0.98,0.53 0.32,0.15 0.65,0.26 0.88,0.25 0.22,-0.01 0.34,-0.12 0.45,-0.24 0.04,-0.04 0.08,-0.1 0.03,-0.19 -0.07,-0.16 -0.35,-0.33 -0.57,-0.45z"/>
  <path class="fil22" d="M134.16 130.59c-0.41,-0.22 -0.83,-0.43 -1.24,-0.6 -0.31,-0.14 -1.89,-0.89 -2.37,-1.13 -0.68,-0.34 -1.35,-0.63 -2.02,-0.91 -0.12,-0.05 -0.26,-0.1 -0.27,-0.04 0.39,0.33 0.83,0.6 1.26,0.87 1.04,0.64 2.08,1.28 3.13,1.9 0.28,0.16 0.56,0.33 0.84,0.46 0.28,0.12 0.55,0.21 0.75,0.21 0.19,-0.01 0.29,-0.11 0.38,-0.21 0.04,-0.04 0.07,-0.08 0.04,-0.16 -0.07,-0.14 -0.31,-0.29 -0.5,-0.39z"/>
  <path class="fil23" d="M74.47 192.89c0.39,0.78 0.83,1.43 1.28,2.17 0.52,0.87 1.13,1.68 1.73,2.49 1.03,1.4 2.07,2.81 3.37,3.97 0.24,0.22 0.5,0.43 0.72,0.67 0.33,0.36 0.59,0.78 0.9,1.17 0.43,0.53 0.89,1 1.48,1.34 0.45,2.69 0.96,5.36 1.54,8.02 0.11,0.5 0.32,0.98 0.41,1.49 0.5,2.77 0.4,5.64 1,8.39 0.09,0.42 0.2,0.84 0.3,1.25 0.31,1.19 0.7,2.31 0.82,3.53 0.23,2.46 1.26,4.76 1.97,7.13 0.38,1.28 0.47,2.58 0.87,3.85 0.63,2.05 1.18,4.12 1.64,6.2 0.29,1.37 0.56,2.73 0.82,4.1 0.11,0.59 0.39,1.24 0.42,1.84 0.13,2.33 0.25,4.65 0.38,6.97 0.05,0.91 0.09,1.83 0.28,2.72 0.15,0.68 0.37,1.34 0.6,2 0.61,1.78 1.32,3.53 1.9,5.31 0.34,1.04 0.68,2.08 1.04,3.12 0.23,0.67 0.47,1.35 0.77,2 0.26,0.57 0.56,1.13 0.83,1.7 0.21,0.43 0.4,0.88 0.59,1.32 0.47,1.12 1.17,2.15 1.43,3.33 0.27,1.25 0.91,2.42 1.82,3.31 0.48,0.47 1.02,0.87 1.48,1.35 0.25,0.26 0.47,0.54 0.69,0.82 1.22,1.55 2.48,3.05 3.83,4.49 1.96,2.1 3.84,4.25 5.92,6.23 1.19,1.13 2.37,2.26 3.55,3.38l40.32 0c0.61,-1.69 1.19,-3.4 1.93,-5.04 1.04,-2.33 2.29,-4.56 3.64,-6.72 0.87,-1.39 1.79,-2.75 2.7,-4.11 0.56,-0.82 1.14,-1.56 1.73,-2.35 1.05,-1.41 2.1,-2.82 3.02,-4.31 0.54,-0.87 1.05,-1.77 1.64,-2.6 0.47,-0.66 0.99,-1.28 1.51,-1.91 0.73,-0.89 1.44,-1.79 2.15,-2.7 0.53,-0.67 1.07,-1.35 1.55,-2.06 1.07,-1.56 1.59,-3.45 2.76,-4.93 1.96,-2.45 2.92,-5.56 3.46,-8.65 0.46,-2.56 0.64,-5.29 -0.42,-7.66 -0.47,-1.04 -0.86,-2.11 -1.49,-3.06 -0.76,-1.14 -1.51,-2.28 -2.26,-3.42 -0.71,-1.06 -1.42,-2.14 -2.3,-3.06 -0.8,-0.85 -1.73,-1.56 -2.56,-2.38 -1.17,-1.17 -2.11,-2.54 -3.1,-3.86 -1.62,-2.15 -3.42,-4.18 -5.36,-6.05 -0.51,-0.49 -1.04,-0.98 -1.38,-1.6 -0.35,-0.62 -0.58,-1.35 -0.26,-1.98 -0.12,-2.07 -0.23,-4.15 -0.35,-6.22 -0.02,-0.45 -0.05,-0.91 0.06,-1.35 0.25,-1.02 1.2,-1.83 1.21,-2.88 0,-0.41 -0.14,-0.81 -0.09,-1.22 0.05,-0.48 0.37,-0.89 0.66,-1.27 0.55,-0.69 1.09,-1.37 1.63,-2.06 0.78,-0.99 1.57,-2 2.07,-3.17 0.86,-2.06 0.71,-4.38 0.55,-6.61 -0.42,-5.63 -0.85,-11.25 -1.27,-16.88 -1.25,-0.88 -1.88,-2.02 -3.13,-2.91 -1.37,-0.97 -2.27,-2.93 -3.2,-4.32 -1.36,-2.03 -2.78,-4.02 -4.37,-5.87 -0.38,-0.45 -0.77,-0.88 -1.08,-1.38 -0.36,-0.59 -0.71,-1.31 -1.36,-1.54 -0.54,2.2 -1.46,4.27 -2.37,6.34 -0.2,0.44 -0.4,0.89 -0.64,1.31 -0.24,0.43 -0.53,0.83 -0.81,1.24 -0.54,0.8 -0.97,1.66 -1.53,2.46 -1.98,2.82 -4.08,5.58 -6.53,8 -1.54,1.52 -3.21,2.89 -4.87,4.26 -0.92,0.76 -1.67,1.73 -2.69,2.35 -6.02,3.65 -12.81,5.88 -19.67,7.5 -1.31,0.3 -2.72,0.54 -3.96,0.02 -5.66,-2.36 -11.25,-5.18 -15.66,-9.44 -0.4,-0.39 -0.79,-0.78 -1.17,-1.18 -0.97,-0.98 -1.72,-2.15 -2.49,-3.29 -3.66,-5.48 -4.89,-12.17 -5.33,-18.74 -0.14,-1.99 -0.27,-4 -0.14,-5.99 0.14,-2.08 0.57,-4.12 0.99,-6.16 0.37,-1.77 0.56,-3.63 1.12,-5.36 1.74,-5.37 2.47,-11.05 4.88,-16.16 0.46,-0.98 0.6,-2.07 0.83,-3.12 0.46,-2.15 1.29,-4.21 1.89,-6.33 0.53,-1.87 1.07,-3.72 1.63,-5.58 0.86,-2.83 1.73,-5.69 3.12,-8.29 0.39,-0.73 0.82,-1.43 1.24,-2.13 0.32,-0.53 0.65,-1.06 0.97,-1.59 0.31,-0.52 0.63,-1.04 1.02,-1.5 0.33,-0.39 0.72,-0.74 1.03,-1.14 0.21,-0.27 0.39,-0.56 0.57,-0.85 0.09,-0.16 0.19,-0.36 0.08,-0.51 -0.06,-0.09 -0.17,-0.12 -0.27,-0.14 -0.59,-0.15 -1.21,-0.14 -1.82,-0.23 -0.81,-0.11 -1.61,-0.39 -2.43,-0.36 -0.89,0.02 -1.75,0.4 -2.47,0.93 -0.72,0.52 -1.27,1.48 -2.08,1.85 -0.86,0.39 -1.34,1.3 -1.76,2.15 -0.25,0.5 -0.49,1 -0.74,1.5 -0.68,1.38 -1.36,2.76 -1.89,4.21 -0.7,1.91 -0.46,4.2 -1.58,5.9 -0.85,1.29 -1.33,2.77 -1.8,4.24 -0.72,2.29 -1.85,4.43 -2.59,6.7 -0.28,0.86 -0.57,1.72 -0.85,2.58 -0.23,0.7 -0.46,1.4 -0.71,2.09 -0.2,0.54 -0.41,1.06 -0.65,1.58 -0.28,0.62 -0.6,1.22 -0.86,1.86 -0.14,0.33 -0.25,0.66 -0.37,1 -0.19,0.54 -0.37,1.07 -0.56,1.61 -0.14,0.41 -0.21,0.89 -0.33,1.32 -0.26,0.87 -0.79,1.63 -1.22,2.43 -0.89,1.67 -1.35,3.55 -2.33,5.17 -0.22,0.36 -0.47,0.7 -0.69,1.05 -0.76,1.22 -0.78,2.83 -1.6,4.01 -0.96,1.38 -1.41,3.04 -2.17,4.55 -0.24,0.48 -0.52,0.94 -0.76,1.42 -0.99,1.91 -1.51,3.95 -2.07,6.02 -0.42,1.54 -0.83,3.08 -1.25,4.62 -0.67,2.48 -1.1,4.99 -1.6,7.51 -0.83,4.17 -0.8,8.59 0.49,12.65 0.66,2.1 1.49,4.15 2.46,6.13z"/>
  <path class="fil24" d="M152.77 177.37c2.23,-2.75 4.26,-6.08 5.41,-9.43 0.45,-1.32 0.82,-2.25 1.01,-3.86 -0.48,-0.85 -0.93,-1.32 -1.82,-1.72 0.41,0.79 0.41,1.43 0.32,2.32 -0.12,1.22 -1.04,3.04 -1.61,4.12 -1.4,2.66 -2.27,4.88 -3.66,7.54 -0.27,0.51 -0.54,1.05 -0.52,1.63 0.36,-0.03 0.64,-0.32 0.87,-0.6zm1.47 11.05c-0.12,-0.2 -0.43,-0.21 -0.62,-0.08 -0.19,0.12 -0.3,0.34 -0.4,0.55 -0.35,0.73 -0.7,1.47 -0.79,2.27 -0.23,1.81 1.02,3.66 2.75,4.24 0.87,0.3 2.01,0.21 2.48,-0.57 -0.37,-0.09 -0.69,-0.32 -0.99,-0.56 -1.57,-1.34 -2.48,-3.42 -2.38,-5.47 0,-0.13 0.01,-0.27 -0.05,-0.38zm-19.82 86.98c-1.05,-4.35 -1.04,-8.96 0.04,-13.31 0.2,-0.79 0.43,-1.62 0.28,-2.43 -0.29,-1.55 -1.84,-2.48 -3.11,-3.41 -4.86,-3.53 -7.28,-9.43 -9.47,-15.01 0.08,4.75 1.72,9.48 4.61,13.26 1.18,1.55 2.61,3.03 3.1,4.92 0.27,1.05 0.32,2.15 0.22,3.22 -0.7,7.89 6.43,27.03 9.72,35.91l0.3 0c-1.49,-6.41 -3.09,-12.79 -4.78,-19.16 -0.17,-1.34 -0.59,-2.67 -0.91,-3.99zm33.63 -46.21c-0.53,-0.26 -0.66,-0.95 -0.69,-1.54 -0.04,-0.78 0,-1.56 0.1,-2.33 -0.31,1.28 -0.57,2.58 -0.76,3.88 -0.02,0.2 -0.04,0.43 0.1,0.58 0.1,0.11 0.27,0.13 0.42,0.15 0.42,0.06 0.85,0.12 1.27,0.17 0.2,0.03 0.4,0.05 0.57,0.15 0.55,0.32 0.49,1.14 0.24,1.73 -0.9,2.19 -3.17,3.65 -3.82,5.93 1.39,-1.12 2.6,-2.44 3.6,-3.92 0.33,-0.5 0.65,-1.02 1.1,-1.41 0.46,-0.39 1.09,-0.63 1.66,-0.45 -0.04,-1.43 -1.31,-2.72 -2.74,-2.8 -0.35,-0.02 -0.73,0.02 -1.05,-0.14zm-82.07 -65.57c-0.01,-0.24 -0.03,-0.22 -0.24,-0.33 -0.8,4.23 -0.45,30.83 28.45,36.94 1.63,0.34 12.06,-3.1 15.52,-4.95 -4.77,2.12 -15.21,2.99 -15.21,2.99 0,0 -26.92,-6.29 -28.52,-34.65zm42.09 41.56c4.6,7.05 18.67,10.1 27.24,7.85 1.34,-0.36 2.67,-0.76 3.95,-1.3 1.79,-0.75 3.45,-1.76 5.1,-2.77 1.37,-0.83 2.6,-1.98 3.97,-2.82 -0.02,0.06 0.02,0.16 0.1,0.15 0.11,-0.01 0.16,-0.13 0.2,-0.23 0.39,-1.14 0.52,-2.36 0.61,-3.56 0.57,-7.32 0.05,-14.68 -0.48,-22.01 -0.08,-1.19 -0.17,-2.38 -0.25,-3.58 -0.38,-0.49 -0.69,-0.92 -1.07,-1.41 0.02,0.11 0.03,0.22 0.04,0.33 -0.15,-0.23 -0.32,-0.44 -0.51,-0.64 -0.17,-0.18 -0.37,-0.45 -0.21,-0.64 -3.13,-2.27 -3.98,-6.76 -7.08,-9.05 -1.53,10.38 -13.22,21.13 -14.66,22.2 0.3,0.08 10.72,-6.79 14.28,-13.74 0.4,-0.77 1.46,-1.12 2.32,-1 0.54,0.08 1.01,0.4 1.44,0.73 1.7,1.26 3.26,2.69 4.68,4.25 0.2,1.62 0.41,3.24 0.61,4.86 0.2,1.68 0.14,3.37 0.23,5.06 0.91,17.54 -31.21,20.47 -40.51,17.32zm-35.19 -76.17c0.56,-0.42 1.19,-2.56 3.46,-8.69l0 0c0.17,-0.46 0.33,-0.92 0.48,-1.38 1.14,-3.59 1.89,-7.3 3.15,-10.85 1.25,-3.55 3.08,-7.01 5.97,-9.43 0.16,-0.14 0.32,-0.42 0.13,-0.52l-0.13 -0.03c-1.33,-0.06 -2.63,0.46 -3.71,1.24 -1.07,0.79 -1.93,1.83 -2.71,2.9 -0.43,0.58 -0.83,1.17 -1.13,1.83 -0.43,0.95 -0.55,2.01 -0.84,3.02 -2.86,9.65 -7.23,22.16 -8.31,24.6 -0.77,1.73 -1.94,4.72 -2.57,6.5 -2.64,7.43 -5.63,11.11 -8.26,19.35 1.58,-3.72 10.83,-25.85 14.47,-28.54zm59.66 93.15c3.1,-0.62 6.26,-1.27 9.03,-2.81 -3.56,-0.03 -7.06,-1.08 -10.6,-0.92 -5.53,0.24 -10.57,3.38 -16.06,4.01 -1.22,0.14 -2.53,0.18 -3.51,0.92 6.95,1.53 14.16,0.18 21.14,-1.2zm-48.24 -118.87l-0.07 0.08c-0.09,0.14 -0.17,0.29 -0.25,0.44 -0.33,0.54 -0.63,1.09 -0.88,1.67l-0.01 0.02 -0.01 0 0 0c-1.03,2.18 -1.82,4.5 -2.6,6.75 -1.11,3.2 -2.1,6.43 -3.05,9.68 -1.7,5.78 -3.36,11.57 -5.2,17.3 -1.77,5.49 -3.53,11.02 -4.35,16.74 -1.44,10.03 0.64,21.85 7.89,29.39 0.14,0.14 0.33,-0.04 0.23,-0.2 -3.24,-5.11 -5.99,-10.26 -7.11,-16.27 -2.13,-11.41 1.98,-22.41 5.37,-33.12 1.7,-5.38 3.22,-10.82 4.87,-16.22 0.82,-2.69 1.67,-5.38 2.61,-8.04 0.48,-1.34 1.01,-2.67 1.52,-4.01 1.39,-2.88 3.18,-5.57 5.31,-7.96 0.2,-0.23 0.42,-0.5 0.39,-0.8 -0.03,-0.31 -0.5,-0.62 -0.71,-0.4 -1.24,1.3 -2.37,2.69 -3.41,4.16 -0.18,0.26 -0.36,0.53 -0.54,0.79zm51.54 120.13c0.19,-0.07 0.43,-0.24 0.33,-0.42 -5.78,-0.21 -11.05,3.08 -16.66,4.49 -1.15,0.29 -2.45,0.6 -3.06,1.62 3.03,0.13 5.97,-0.9 8.82,-1.92 3.52,-1.26 7.05,-2.51 10.57,-3.77zm-35.93 50.4c-5.2,-12.13 -7.59,-25.27 -11.99,-37.71 1.65,13.16 5.74,26.01 11.99,37.71zm1.36 10.52c-2.38,-2.84 -4.68,-5.75 -6.87,-8.74 -2.39,-3.25 -4.66,-6.62 -6.35,-10.29 -4.7,-10.21 -4.62,-22.08 -9.13,-32.37 -3.13,-7.14 -8.37,-13.24 -11.27,-20.48 -0.91,-2.27 -1.59,-4.64 -2.72,-6.81 2.83,2.46 5.97,4.63 8.71,7.21 1.87,1.77 3.56,3.72 5.19,5.72 3.14,3.83 6.16,7.89 7.82,12.56 -1.28,-4.1 -2.48,-8.22 -3.57,-12.38 -0.36,-1.36 -0.71,-2.73 -0.82,-4.13 -0.09,-1.14 0.01,-2.38 0.76,-3.24 0.6,-0.69 1.51,-1.01 2.37,-1.3 1.26,-0.42 2.53,-0.85 3.79,-1.28 0.34,-0.11 0.7,-0.24 0.94,-0.51 0.24,-0.28 0.29,-0.74 0.01,-0.98 -0.15,-0.12 -0.37,-0.15 -0.57,-0.17 -1.53,-0.13 -3.08,0.01 -4.63,0.07 -8.6,0.32 -17.39,-1.76 -24.59,-6.48 1.27,1.79 2.8,3.34 4.45,4.78 0.34,5.46 1.16,10.88 2.23,16.25 0.9,4.54 1.97,9.05 3.22,13.51 1.8,6.44 3.98,12.77 6.16,19.1 1.12,3.26 2.24,6.51 3.37,9.77 2.23,6.49 4.53,13.1 8.69,18.57 0.38,0.51 0.79,1 1.2,1.49 -0.63,-0.55 -1.26,-1.11 -1.88,-1.68 -1.64,-1.48 -3.08,-3.17 -4.69,-4.66 -0.07,-0.06 -0.17,0.03 -0.13,0.1 2,3.65 6.07,6.28 9.05,9.08 2.42,2.26 4.51,4.82 6.68,7.31 0.16,0.21 0.32,0.41 0.47,0.63 0.78,1.14 1.5,2.37 2.26,3.56l7.34 0c-0.65,-2.79 -1.46,-5.55 -2.87,-8.04 -1.26,-2.24 -2.96,-4.2 -4.62,-6.17zm57.9 -22.18c-2.56,3.43 -5.2,6.78 -7.88,10.12 -0.83,1.04 -1.64,2.09 -2.42,3.16 1.42,-3.06 2.45,-6.21 2.5,-9.58 0.02,-1.14 -0.09,-2.31 -0.64,-3.31 -1.04,-1.87 -3.3,-2.62 -5.33,-3.29 -3.31,-1.09 -6.58,-2.41 -9.5,-4.32 -5.75,-3.77 -9.79,-9.58 -13.68,-15.25 3.06,6.1 6.11,12.21 9.17,18.31 0.83,1.66 1.67,3.35 2.01,5.18 0.64,3.48 -0.6,7 -1.45,10.43 -1.48,5.92 -1.82,12.07 -1.89,18.17 -0.02,2.26 0.04,4.65 0.7,6.77l6.8 0c1.91,-4.07 3.46,-8.32 5.51,-12.33 1.27,-2.5 2.76,-4.97 4.12,-7.47 0.31,-0.5 0.64,-0.99 0.98,-1.46 1.22,-1.64 2.5,-3.25 3.77,-4.86 2.57,-3.26 5.34,-6.54 7.33,-10.2 0.04,-0.07 -0.05,-0.14 -0.1,-0.07zm-96.34 -77.51c1.66,-0.97 2.36,-3.16 1.7,-4.94 -0.33,-0.9 -1.16,-1.77 -2.13,-1.66 0.18,0.36 0.2,0.77 0.19,1.16 -0.06,2.13 -1.19,4.19 -2.96,5.41 -0.11,0.08 -0.23,0.16 -0.28,0.28 -0.09,0.23 0.1,0.48 0.34,0.56 0.23,0.08 0.49,0.03 0.73,-0.02 0.83,-0.18 1.68,-0.37 2.41,-0.79zm84.05 41.89c-0.69,-0.03 -1.33,0.37 -1.78,0.89 -0.44,0.52 -0.73,1.16 -1.03,1.78 -3.24,6.6 -9.17,11.56 -15.62,15.11 3.32,-0.89 6.09,-3.13 8.7,-5.37 4.04,-3.47 8.13,-7.33 9.73,-12.41zm-6.62 3.99c-1.29,1.06 -2.76,1.87 -4.2,2.72 -2.24,1.34 -4.43,2.8 -6.2,4.71 1.34,-0.46 2.31,-1.59 3.43,-2.45 2.66,-2.04 6.28,-2.69 8.61,-5.1 1.46,-1.5 2.28,-3.57 3.91,-4.88 0.13,-0.11 0.27,-0.22 0.31,-0.38 0.04,-0.11 0.02,-0.23 -0.01,-0.35 -0.09,-0.54 -0.19,-1.09 -0.29,-1.63 -0.02,-0.08 -0.03,-0.16 -0.07,-0.23 -0.13,-0.2 -0.44,-0.18 -0.66,-0.1 -0.67,0.27 -1.12,0.92 -1.37,1.6 -0.25,0.68 -0.34,1.4 -0.55,2.09 -0.5,1.6 -1.62,2.94 -2.91,4zm1.66 -15.92l-0.04 -0.02 -0.05 0.05c-0.04,0.07 0.13,0.03 0.09,-0.03zm-27.29 2.95c1.5,0.42 3.09,0.36 4.64,0.26 3.55,-0.23 7.07,-0.64 10.6,-1.05 3.99,-0.46 8.02,-0.93 11.84,-2.19 0.06,-0.02 0.13,-0.03 0.17,0.01l0.16 -0.15c-9.16,0.85 -18.3,1.89 -27.41,3.12zm27.46 7.14c0.9,-0.77 1.75,-1.65 2.24,-2.72 -0.48,0.05 -0.91,0.31 -1.32,0.56 -1.49,0.91 -2.98,1.82 -4.47,2.73 -4.12,2.52 -8.33,5.07 -13.01,6.26 -0.46,0.12 -1.04,0.37 -1.01,0.85 0.95,-0.08 1.86,-0.37 2.76,-0.66 5.24,-1.68 10.63,-3.44 14.81,-7.02z"/>
  <path class="fil25" d="M83.22 159.84c0.43,-0.41 2.05,-1.52 2.6,-1.27 0.34,0.15 0.42,0.58 0.46,0.95 0.25,2.16 0.5,4.32 0.75,6.49 -0.62,-5.38 0.33,-10.81 1.35,-16.13 0.9,-4.7 1.85,-9.39 2.87,-14.07 0.42,-1.95 0.88,-3.95 1.99,-5.61 -1.97,2.46 -3.06,5.49 -4.24,8.42 -2.97,7.33 -6.73,14.33 -11.21,20.85 0.04,-2.94 1.43,-5.66 2.72,-8.3 3.56,-7.25 6.65,-14.73 9.23,-22.38 -2.99,8.03 -6.53,15.86 -10.7,23.36 -0.87,1.55 -1.76,3.09 -2.48,4.71 -0.75,1.68 -1.32,3.45 -1.84,5.21 -2.82,9.5 -4.57,19.87 -1.18,29.17 0.64,1.78 1.51,3.54 2.94,4.78 -3.86,-15.87 2.23,-31.97 6.74,-36.18z"/>
  <path class="fil25" d="M179.12 265.01c-0.14,-1.78 1.1,-3.32 2.02,-4.85 2,-3.35 2.6,-7.35 2.7,-11.26 0.03,-0.87 0.03,-1.76 -0.23,-2.6 -0.39,-1.24 -1.31,-2.24 -2.15,-3.24 -3.02,-3.65 -5.2,-7.9 -7.36,-12.12 1.89,1.86 3.79,3.74 5.27,5.94 0.83,1.22 1.51,2.54 2.41,3.71 0.74,0.95 1.61,1.81 2.25,2.83 1.58,2.49 1.57,5.67 1.06,8.57 -0.84,4.75 -2.92,9.28 -5.97,13.02z"/>
  <path class="fil25" d="M101.84 279.12c-1.79,-3.23 -3.21,-6.66 -4.21,-10.21 -0.41,-1.48 -0.76,-2.97 -1.27,-4.41 -0.62,-1.75 -1.48,-3.43 -1.84,-5.26 -0.51,-2.63 0.08,-5.37 -0.33,-8.01 1.32,6.04 2.64,12.1 4.72,17.92 1.17,3.27 2.59,6.51 2.93,9.97z"/>
  <path class="fil26" d="M147.36 5.24c0.87,-1.46 2.56,-2.19 4.14,-2.82 1.3,-0.52 2.63,-1.04 4.03,-1.14 1.02,-0.08 2.04,0.07 3.04,0.28 4.76,0.98 9.18,3.24 13.12,6.09 3.93,2.84 7.41,6.28 10.74,9.81 2.92,3.09 5.03,6.87 7.32,10.45 0.65,1.03 1.29,2.06 1.89,3.12 1.76,3.17 3.08,6.56 4.39,9.94 1.13,2.93 2.1,5.91 3.01,8.91 0.65,2.17 1.07,4.39 1.48,6.62 0.53,2.92 1.06,5.84 1.58,8.76 1.3,7.31 1.77,14.8 1.48,22.21 -0.24,6.1 -0.3,12.21 -0.99,18.29 -0.23,2.03 -0.44,4.08 -0.86,6.08 -0.19,0.89 -0.63,1.67 -0.88,2.55 -0.26,0.95 -0.4,1.94 -0.5,2.92 -0.61,5.9 0.27,11.94 2.47,17.45 0.56,1.4 1.21,2.78 1.98,4.08 1.5,2.54 3.45,4.77 5.39,6.99 -4.16,-2.22 -7.66,-5.43 -10.89,-8.86 -0.83,-0.88 -1.66,-1.8 -2.12,-2.92 0.58,2.43 1.73,4.67 2.86,6.89 0.47,0.9 0.93,1.8 1.39,2.7 0.6,1.16 1.2,2.33 1.84,3.47 0.72,1.27 1.49,2.51 2.28,3.73 1.39,2.15 2.91,4.31 5.01,5.76 -0.62,-0.16 -1.2,-0.34 -1.74,-0.7 -3.22,-2.12 -6.36,-4.38 -9.41,-6.75 -0.63,-0.48 -1.25,-0.98 -1.79,-1.56 -0.8,-0.85 -1.41,-1.87 -2.21,-2.74 -0.77,-0.83 -1.72,-1.53 -2.29,-2.52 -0.22,0.79 -0.44,1.59 -0.51,2.41 -0.49,5.49 -0.46,11.03 0.08,16.53 -0.27,-2.24 -1.7,-4.13 -2.7,-6.14 -1.69,-3.42 -2.15,-7.3 -3.13,-10.99 -0.62,-2.32 -1.46,-4.58 -2.02,-6.91 -1.02,-4.2 -0.93,-8.52 -0.66,-12.83 0.16,-2.66 -0.17,-5.26 -1.18,-7.72 -1.03,-2.53 -2.39,-6.15 -3.52,-9.13 -0.5,-1.33 -0.79,-2.65 -1.42,-3.93 -1.51,-3.07 -2.26,-6.61 -4.53,-9.17 -0.23,-0.25 -0.47,-0.5 -0.77,-0.65 -0.29,-0.16 -0.66,-0.22 -0.97,-0.1 0.02,-1.16 0.05,-2.33 0.04,-3.49 0,-2.24 -0.06,-4.56 -1.02,-6.59 -0.29,-0.62 -0.68,-1.22 -1.25,-1.62 -0.32,-0.22 -0.68,-0.37 -1.04,-0.5 -0.53,-0.19 -1.06,-0.36 -1.61,-0.44 -0.75,-0.11 -1.51,-0.08 -2.26,-0.04 -1.83,0.09 -3.66,0.18 -5.49,0.27 0.04,-2.37 0.1,-4.71 0.15,-7.08 0.01,-0.69 0.02,-1.39 0.01,-2.08 -0.06,-3.07 -0.64,-6.12 -0.55,-9.19 0.08,-3.06 -0.53,-6.02 -1.08,-9.04 -0.13,-0.68 -0.26,-1.36 -0.47,-2.02 -0.17,-0.57 -0.39,-1.13 -0.62,-1.69 -0.72,-1.77 -1.45,-3.54 -2.21,-5.3 -1.75,-4.07 -4.42,-7.61 -7.52,-10.77 -1.56,0.36 -3.03,0.98 -4.38,1.86 -0.61,0.4 -1.19,0.85 -1.83,1.2 -1.08,0.6 -2.29,0.91 -3.38,1.46 -1.21,0.61 -2.25,1.49 -3.21,2.43 -3.75,3.62 -6.54,8.22 -8.02,13.22 -0.99,3.32 -2.14,6.58 -2.76,9.98 -0.69,3.78 -0.98,7.62 -1.27,11.45 -0.19,2.46 0.13,5.02 0.62,7.43 0.14,0.66 0.3,1.32 0.51,1.96 0.17,0.49 0.37,0.97 0.57,1.44 0.24,0.56 0.47,1.11 0.7,1.67 0.7,1.64 1.39,3.27 2.08,4.91 0.36,0.86 0.72,1.71 1.08,2.56 -0.1,-0.28 -0.22,-0.53 -0.41,-0.77 -0.08,0.14 -0.26,0.19 -0.42,0.16 -0.15,-0.03 -0.29,-0.12 -0.43,-0.2 -0.27,-0.16 -0.55,-0.29 -0.84,-0.4 -0.37,-0.14 -0.6,-0.49 -0.91,-0.74 -0.15,-0.13 -0.3,-0.25 -0.46,-0.36 -0.16,-0.1 -0.32,-0.18 -0.48,-0.27 -0.83,-0.48 -1.58,-1.21 -2.27,-1.87 -0.82,-0.78 -1.57,-1.64 -2.22,-2.56 -0.89,-1.27 -1.6,-2.65 -2.32,-4.03 -0.67,-1.31 -1.04,-2.76 -1.61,-4.12 -0.2,-0.47 -0.44,-0.93 -0.61,-1.41 -0.18,-0.54 -0.29,-1.11 -0.4,-1.68 -0.02,0.42 -0.02,0.85 -0.01,1.27 0.05,1.16 0.22,2.34 0.5,3.47l-0.05 -0.06c-0.2,-0.25 -0.33,-0.58 -0.43,-0.89 -0.45,-1.35 -0.56,-2.8 -1.01,-4.15 -0.39,-1.14 -0.6,-2.31 -0.69,-3.52 -0.07,-0.81 -0.32,-1.58 -0.45,-2.39 -0.1,0.03 -0.14,0.14 -0.17,0.24 -0.09,0.34 -0.11,0.71 -0.3,1 -0.15,-0.75 -0.34,-1.49 -0.56,-2.22 -0.44,-1.48 -0.48,-3.04 -0.62,-4.59 -0.03,-0.34 -0.06,-0.68 -0.08,-1.03 -0.03,-0.75 -0.04,-1.52 -0.07,-2.27 -0.01,-0.4 -0.02,-0.8 -0.02,-1.2 0.01,-0.36 0.03,-0.71 0.05,-1.07 0.03,-0.44 0.05,-0.88 0.08,-1.33 0.09,-1.5 0.39,-2.98 0.62,-4.47 0.06,-0.38 0.12,-0.77 0.18,-1.15 0.12,-0.75 0.45,-1.45 0.64,-2.18 0.03,-0.15 0.07,-0.29 0.11,-0.44 0.24,-0.96 0.48,-1.92 0.73,-2.89 0.18,-0.74 0.52,-1.41 0.81,-2.12 0.25,-0.62 0.44,-1.26 0.75,-1.86 0.13,-0.25 0.28,-0.5 0.34,-0.78 0.04,-0.16 0,-0.3 0.04,-0.47 0.06,-0.29 0.13,-0.59 0.19,-0.88 0.24,-1.12 0.48,-2.24 0.78,-3.35 0.26,-0.91 0.51,-1.83 0.77,-2.74 0.09,-0.31 0.18,-0.62 0.28,-0.93 0.27,-0.78 0.65,-1.51 1.03,-2.24 0.53,-1.04 0.98,-2.1 1.51,-3.14 0.16,-0.33 0.22,-0.71 0.33,-1.06 0.06,-0.19 0.15,-0.36 0.23,-0.53 0.66,-1.3 1.37,-2.56 2.16,-3.78 0.12,-0.2 0.25,-0.44 0.34,-0.65 0.12,-0.29 0.24,-0.58 0.38,-0.86 0.14,-0.26 0.3,-0.52 0.46,-0.78 0.53,-0.92 0.94,-1.91 1.55,-2.78 0.26,-0.38 0.54,-0.76 0.85,-1.1 0.16,-0.18 0.35,-0.34 0.51,-0.52 0.15,-0.16 0.27,-0.34 0.39,-0.52 0.94,-1.35 2.14,-2.51 3.53,-3.39 1,-0.64 1.94,-1.4 2.92,-2.1 1.76,-1.26 3.54,-2.53 5.49,-3.46 0.46,-0.22 0.93,-0.41 1.39,-0.61 1.35,-0.61 2.73,-1.22 4.2,-1.37 0.29,-0.02 0.59,-0.03 0.89,0.01 0.25,0.04 0.49,0.12 0.73,0.19 0.26,0.08 0.52,0.15 0.78,0.22 0.07,0.02 0.13,0.04 0.2,0.02 0.06,-0.01 0.1,-0.05 0.15,-0.09 0.24,-0.18 0.48,-0.37 0.72,-0.56l0.01 -0.1z"/>
  <path class="fil27" d="M173.15 122.24c-0.07,-0.79 -0.13,-1.58 -0.18,-2.37l-0.01 -0.06 0 -0.14c-0.05,-0.92 -0.1,-1.84 -0.13,-2.76 -0.01,-0.3 0.49,-0.33 0.52,-0.04 0.12,0.02 0.22,0.09 0.23,0.23 0.02,0.14 0.03,0.29 0.05,0.43 0,0.06 -0.01,0.11 -0.03,0.16 0.01,0.33 0.01,0.67 0.02,1 0.09,0.02 0.19,0.07 0.21,0.18 0.08,0.4 0.14,0.79 0.2,1.19 0.32,0.91 0.51,1.78 0.54,2.69 0.16,1.43 0.07,2.87 -0.18,4.28 -0.01,0.08 -0.05,0.14 -0.09,0.19 -0.06,0.26 -0.13,0.51 -0.21,0.77 -0.03,0.21 -0.08,0.42 -0.13,0.63 -0.08,0.55 -0.21,1.09 -0.41,1.64 -0.14,0.41 -0.69,0.24 -0.7,-0.15 -0.04,-2.51 -0.08,-5.03 -0.12,-7.54 0,-0.25 0.22,-0.36 0.42,-0.33z"/>
  <path class="fil28" d="M151.65 8.19c-1.87,-1.04 -4.18,-1.26 -6.22,-0.6 0.54,-0.97 1.19,-1.88 1.95,-2.69 0.68,-0.73 1.64,-1.29 2.63,-1.38 6.04,-0.57 11.83,2.55 16.66,6.23 6.78,5.16 12.58,11.61 16.97,18.91 2.2,3.66 4.22,6.85 5.73,10.83 2.8,7.4 5.62,14.85 7.04,22.63 -1.81,-5.15 -3.75,-10.51 -7.68,-14.31 3.01,5.38 5.54,11.01 7.57,16.81 0.95,2.72 1.8,5.47 2.52,8.25 0.29,1.09 0.25,1.96 0.3,3.04 0.07,1.42 0.53,2.88 0.75,4.28 0.46,2.98 0.74,5.99 0.83,9.01 0.05,1.5 0.05,3.01 0,4.52 -0.03,0.78 -0.06,1.57 -0.11,2.35 -0.03,0.46 -0.34,1.57 -0.16,1.98 -1,-2.29 -2.21,-4.45 -3.21,-6.74 3.49,12.15 1.33,24.7 -1.84,36.94 -1.33,5.13 -4.79,9.57 -5.74,14.78 -0.48,2.63 -0.29,5.33 0.02,7.99 0.22,1.88 0.52,3.78 1.28,5.52 -2.29,-4.64 -3.82,-9.86 -5.02,-14.9 0.25,-0.32 0.07,-0.79 -0.11,-1.16 -1.47,-3.12 -1.64,-6.68 -1.59,-10.12 0.06,-3.45 0.31,-6.93 -0.4,-10.3 -0.19,-0.91 -0.39,-1.83 -0.61,-2.75 0.97,-10.06 1.87,-20.25 -1.71,-29.94 -0.13,-0.37 -0.63,-0.21 -0.57,0.16 0.84,5.98 1.53,11.98 0.92,17.98 -0.52,-5.6 -0.67,-11.23 -1.81,-16.75 -1.26,-6.1 -3.35,-11.97 -5.87,-17.66 -0.14,-0.31 -0.64,-0.08 -0.54,0.23 2.8,9.1 4.27,18.56 4.03,28.08 -0.04,1.26 -0.1,2.5 -0.14,3.73 -0.76,-1.91 -1.43,-3.87 -2.16,-5.79 -0.57,-1.47 -1.37,-3.1 -2.89,-3.5 -0.28,-0.08 -0.61,-0.13 -0.75,-0.38 -0.07,-0.13 -0.07,-0.29 -0.07,-0.43 -0.01,-2.17 -0.26,-4.33 -0.09,-6.49 0.12,-1.63 -0.54,-3.29 -1.75,-4.38 -1.21,-1.1 -2.94,-1.59 -4.54,-1.3 0.2,-7.54 0.14,-15.12 -0.88,-22.6 -1.02,-7.48 -3.04,-14.88 -6.57,-21.55 -2.12,-4 -4.76,-7.7 -7.4,-11.38 3.29,3.15 6.49,6.41 9.09,10.15 4.75,6.81 7.34,14.84 9.81,22.76 -0.03,-0.28 -0.03,-0.54 -0.04,-0.82 -0.42,-10.12 -5.2,-19.48 -9.89,-28.47 5.55,3.67 9,9.71 12.02,15.63 -4.25,-9.66 -8.63,-19.51 -15.78,-27.26 1.87,0.58 3.61,1.62 5,3 -1.67,-3.93 -5.02,-7.12 -9.04,-8.58 1.46,-0.56 3.18,-0.42 4.53,0.38 -2.58,-1.53 -5.55,-2.39 -8.55,-2.49 0.98,-1.16 2.6,-1.73 4.08,-1.45z"/>
  <path class="fil28" d="M198.75 135.87c-0.62,-0.8 -1.12,-1.68 -1.62,-2.57 -0.4,-0.7 -0.8,-1.44 -0.78,-2.24 0.01,-0.45 0.16,-0.88 0.3,-1.3 1,-2.93 1.99,-5.85 2.99,-8.78 -1.28,3.37 -1.36,7.28 0.27,10.49 -0.17,-0.29 -0.42,-0.53 -0.7,-0.71 -0.05,0.76 0.18,1.5 0.43,2.22 0.99,2.84 2.38,5.52 3.86,8.14 -1.24,-0.71 -1.99,-2.02 -2.89,-3.12 -0.59,-0.73 -1.28,-1.39 -1.86,-2.13z"/>
  <path class="fil28" d="M197.54 139.48c-0.29,-0.25 -0.59,-0.5 -0.88,-0.74 -0.17,0.48 -0.05,1 0.06,1.5 0.32,1.32 0.63,2.65 1.18,3.9 0.65,1.49 1.62,2.82 2.49,4.2 0.72,1.15 1.37,2.33 1.95,3.55 -0.79,-0.87 -1.58,-1.74 -2.45,-2.52 -0.48,-0.43 -0.99,-0.83 -1.44,-1.28 -1.26,-1.26 -2.13,-2.87 -3.44,-4.08 -0.47,-0.44 -1.01,-0.82 -1.43,-1.31 -0.2,-0.23 -0.37,-0.5 -0.44,-0.79 -0.09,-0.35 -0.03,-0.72 0.02,-1.07 0.47,-2.91 0.98,-5.92 2.67,-8.33 -0.04,2.41 0.84,4.72 1.71,6.97z"/>
  <path class="fil28" d="M141.24 33.47c0.67,-0.13 1.58,-0.08 1.75,0.58 -3.24,1.3 -6.28,3.06 -9.02,5.22 -2.04,1.61 -3.91,3.45 -5.36,5.61 -2.72,4.05 -3.78,9.04 -3.83,13.92 1.72,-5.96 3.77,-12.09 8.08,-16.55 3.1,-3.2 7.14,-5.29 11.17,-7.2 0.66,-0.31 1.34,-0.62 2.07,-0.65 0.73,-0.03 1.52,0.3 1.82,0.96 -3.46,-3.53 -6.09,-7.88 -7.61,-12.59 -9.62,3.87 -17.68,11.48 -22.1,20.87 -1.32,2.8 -2.32,5.73 -3.48,8.6 3.66,-4.79 6.96,-9.89 11.17,-14.21 4.21,-4.31 9.55,-7.86 15.53,-8.54 -4,2.96 -7.83,6.15 -11.48,9.54 -5.73,5.34 -11.12,11.42 -13.63,18.85 1.52,-2.84 3.18,-5.6 4.96,-8.28 2.44,-3.66 5.11,-7.2 8.4,-10.11 3.29,-2.92 7.24,-5.2 11.56,-6.02z"/>
  <path class="fil28" d="M148.04 5.79c-0.43,0.75 -1.13,1.36 -1.94,1.68 -0.57,0.23 -1.19,0.32 -1.75,0.57 -0.59,0.26 -1.09,0.68 -1.57,1.11 -0.53,0.47 -1.04,0.96 -1.54,1.46 -0.29,0.29 -0.58,0.59 -0.8,0.95 -0.21,0.35 -0.34,0.74 -0.44,1.13 -0.37,1.44 -0.36,2.97 0.02,4.41 -0.99,0.02 -1.83,-0.67 -2.74,-1.04 -1.36,-0.56 -2.91,-0.42 -4.35,-0.11 1.76,-0.45 3.6,-0.9 5.38,-0.52 -0.96,-0.68 -2.14,-0.97 -3.3,-1.03 -1.17,-0.06 -2.33,0.11 -3.49,0.28 0.69,-0.17 1.26,-0.63 1.89,-0.96 1.31,-0.68 2.84,-0.77 4.32,-0.75 -0.42,-0.64 -0.84,-1.28 -1.27,-1.92 0.35,0.2 0.69,0.4 1.03,0.6 0.1,-1.49 0.92,-2.88 2.06,-3.85 1.13,-0.96 2.57,-1.53 4.03,-1.81 1.47,-0.28 2.97,-0.28 4.46,-0.2z"/>
  <path class="fil28" d="M151.15 39.78c0.92,1.35 1.98,2.6 2.89,3.95 0.91,1.35 1.68,2.85 1.9,4.46 -0.15,-1.41 -0.51,-2.79 -1,-4.12 -0.83,-2.25 -2.04,-4.34 -3.24,-6.41 -0.47,-0.82 -0.95,-1.65 -1.42,-2.47 -0.44,-0.75 -0.88,-1.5 -1.42,-2.18 -0.56,-0.69 -1.23,-1.3 -1.9,-1.89 -2.47,-2.21 -5.05,-4.46 -6.49,-7.45 1.69,3.79 3.44,7.67 6.29,10.69 0.76,0.81 1.6,1.55 2.31,2.41 0.78,0.94 1.39,2.01 2.08,3.01z"/>
  <path class="fil28" d="M113.44 75.22c-0.08,-2.59 -0.14,-5.19 0.2,-7.76 -0.04,1.77 0.08,3.54 0.35,5.29 0.09,0.53 0.18,1.05 0.24,1.58 0.23,2.13 -0.15,4.28 -0.08,6.42 -0.56,-1.78 -0.64,-3.67 -0.71,-5.53z"/>
  <path class="fil28" d="M112.02 70.64c0.04,-0.09 0.07,-0.19 0.08,-0.29 0.01,-0.08 0,-0.16 -0.02,-0.24 -0.27,-1.79 -0.2,-3.6 -0.13,-5.4 0.09,-2.25 0.18,-4.51 0.8,-6.67 -0.25,0.6 -0.36,1.25 -0.47,1.89 -0.41,2.56 -0.72,5.15 -0.94,7.74 -0.07,0.88 -0.13,1.76 -0.08,2.64 0.05,0.77 0.18,1.53 0.4,2.26 0.01,-0.65 0.13,-1.31 0.36,-1.93z"/>
  <path class="fil28" d="M123.42 90.36c-0.26,-0.75 -0.8,-1.38 -1.22,-2.06 -0.57,-0.92 -0.93,-1.94 -1.22,-2.98 -1.25,-4.33 -1.44,-9.05 0.08,-13.29 0.57,-1.59 1.18,-3.21 1.69,-4.82 -0.69,2.93 -0.71,5.95 -0.73,8.96 -0.01,0.96 -0.01,1.92 0.09,2.87 0.12,1.19 0.39,2.35 0.66,3.51 0.31,1.28 0.61,2.56 0.92,3.84 0.37,1.58 1.05,3 1.8,4.44 0.2,0.38 0.41,0.75 0.58,1.14 0.44,0.99 0.66,2.07 1.14,3.04 -1.38,-1.42 -3.14,-2.77 -3.79,-4.65z"/>
  <path class="fil28" d="M147.05 67.35c-0.02,0.09 -0.06,0.17 -0.13,0.23 -0.13,0.1 -0.32,0.05 -0.47,-0.01 -0.69,-0.31 -1.17,-0.94 -1.72,-1.46 -0.74,-0.71 -1.64,-1.24 -2.52,-1.76 -2.61,-1.53 -5.05,-2.81 -7.99,-3.53 -0.58,-0.14 -1.41,-0.26 -2.01,-0.24 -0.5,0.02 -1.67,0.26 -2.17,0.28 -0.49,0.01 -2.41,-0.39 -1.75,-0.69 0.98,-0.12 2.65,-0.39 3.63,-0.43 0.62,-0.02 1.23,-0.03 1.84,0.02 2.26,0.19 4.37,1.18 6.42,2.16 0.74,0.35 1.48,0.69 2.17,1.11 0.83,0.5 1.6,1.08 2.36,1.67 0.47,0.35 0.94,0.71 1.4,1.06 0.26,0.2 0.53,0.4 0.72,0.67 0.19,0.26 0.3,0.61 0.22,0.92z"/>
  <path class="fil29" d="M141.39 17.14c-0.23,-0.38 -0.39,-0.81 -0.47,-1.24 -0.05,0.37 -0.1,0.75 -0.15,1.12 -0.43,-0.17 -0.73,-0.57 -0.87,-1.01 -0.13,-0.44 -0.13,-0.91 -0.08,-1.37 0.16,-1.81 0.88,-3.58 2.02,-5 -0.15,0.47 -0.24,0.97 -0.25,1.46 0.3,-0.56 0.74,-1.05 1.26,-1.4 -0.34,0.73 -0.5,1.56 -0.45,2.37 0.51,-1.66 2.17,-2.65 3.69,-3.49 -0.61,0.17 -1.02,0.73 -1.32,1.29 -0.41,0.76 -0.71,1.58 -0.88,2.43 0.6,-0.68 1.31,-1.26 2.09,-1.71 -0.52,0.49 -0.9,1.14 -1.06,1.84 0.58,-0.59 1.48,-0.69 2.3,-0.73 0.87,-0.04 1.74,-0.04 2.6,0 -1.27,0.18 -2.44,0.99 -3.07,2.11 2.12,-0.44 4.42,0.08 6.14,1.39 -1.34,-0.51 -2.79,-0.75 -4.23,-0.7 1.36,0.6 2.59,1.51 3.56,2.64 -0.88,-0.41 -1.82,-0.69 -2.78,-0.85 0.74,0.65 1.39,1.39 1.92,2.22 -0.49,-0.33 -1.07,-0.53 -1.66,-0.56 3.07,2.3 5.16,5.67 6.96,9.07 -1.83,-2.2 -4.13,-3.96 -6.41,-5.69 -0.91,-0.69 -1.82,-1.38 -2.86,-1.85 -1.02,-0.47 -2.14,-0.7 -3.15,-1.19 -0.73,-0.34 -1.38,-0.81 -2.04,-1.28 0.09,-0.19 0.18,-0.38 0.26,-0.57 -0.25,0.21 -0.42,0.51 -0.47,0.83 -0.11,-0.52 -0.14,-1.06 -0.09,-1.59 -0.26,0.45 -0.44,0.95 -0.51,1.46z"/>
  <path class="fil29" d="M148.47 31.22c-2.2,-2.6 -3.82,-5.66 -5.09,-8.82 1.61,2.99 3.73,5.71 5.09,8.82z"/>
  <path class="fil29" d="M147.85 27.07c-0.93,-1.57 -1.71,-3.23 -2.32,-4.95 0.3,0.79 0.82,1.47 1.33,2.15 1.87,2.51 3.66,5.21 4.27,8.28 -0.91,-1.93 -2.19,-3.65 -3.28,-5.48z"/>
  <path class="fil29" d="M148.44 25.44c1.12,1.59 2.13,3.28 2.7,5.13 0.24,0.77 0.4,1.57 0.78,2.29 0.12,-1.2 -0.18,-2.41 -0.66,-3.51 -0.49,-1.1 -1.16,-2.1 -1.83,-3.1 -0.56,-0.85 -1.13,-1.7 -1.84,-2.44 0.11,0.61 0.49,1.13 0.85,1.63z"/>
  <path class="fil29" d="M121.65 52.94c-0.62,2.37 -1.16,3.69 -1.85,5.5 -1.15,3.02 -1.79,6.23 -1.9,9.46 -0.08,-1.16 -0.1,-2.32 -0.06,-3.47 -1,2.39 -1.61,4.94 -1.81,7.52 -0.19,-3.51 -0.38,-7.08 0.4,-10.52 -1.2,2.15 -2.12,4.46 -2.71,6.85 -0.47,-3 -0.95,-6.09 -0.25,-9.05 -0.4,0.79 -0.66,1.66 -0.75,2.55 -0.05,-1.33 0.09,-2.67 0.4,-3.97 -1.21,1.34 -2.02,3.03 -2.32,4.81 0.02,-5.19 1.01,-10.38 2.9,-15.22 -0.37,2.18 -0.63,4.38 -0.79,6.58 0.3,-0.57 0.59,-1.14 0.89,-1.7 -0.26,1.67 -0.49,3.34 -0.69,5.02 0.45,-2.88 2.14,-5.39 3.79,-7.79 -0.74,2.37 -1.29,4.8 -1.83,7.22 -0.61,2.7 -1.23,5.43 -1.29,8.21 0.83,-2.8 2.35,-5.34 3.87,-7.84 -0.34,1.06 -0.56,2.16 -0.65,3.27 0.34,-1.21 0.81,-2.38 1.4,-3.49 -0.55,2.24 -1.1,4.57 -0.71,6.85 0.4,-2.87 2.84,-9.02 3.96,-10.79z"/>
  <path class="fil30" d="M134.01 69.23c0.39,0.87 1.05,1.62 1.86,2.12 0.72,0.45 1.55,0.7 2.37,0.89 0.86,0.21 1.76,0.37 2.64,0.24 0.44,-0.06 0.87,-0.19 1.29,-0.33 0.53,-0.18 1.06,-0.36 1.58,-0.55 -0.27,-0.6 -0.79,-1.06 -1.34,-1.41 -0.97,-0.6 -2.08,-0.96 -3.21,-1.16 -1.12,-0.21 -2.27,-0.27 -3.41,-0.32 -0.63,-0.04 -1.26,-0.07 -1.89,-0.04 -0.04,0.19 0.03,0.38 0.11,0.56z"/>
  <path class="fil31" d="M136.21 68.92c0,-0.07 0.01,-0.14 0.06,-0.18l0.12 -0.04c0.43,-0.05 0.87,0.07 1.29,0.19 0.82,0.21 1.65,0.37 2.48,0.48 0.47,0.06 0.96,0.11 1.38,0.34 -0.16,0.7 -0.44,1.43 -1.02,1.84 -0.17,0.12 -0.36,0.21 -0.56,0.28 -0.56,0.2 -1.17,0.25 -1.74,0.11 -0.57,-0.13 -1.1,-0.47 -1.45,-0.95 -0.13,-0.18 -0.24,-0.38 -0.32,-0.59 -0.19,-0.47 -0.27,-0.98 -0.24,-1.48z"/>
  <path class="fil32" d="M138.28 70.67c-0.1,-0.02 -0.2,-0.05 -0.31,-0.07 -0.1,-0.03 -0.2,-0.05 -0.28,-0.12 -0.07,-0.05 -0.11,-0.13 -0.15,-0.21 -0.2,-0.41 -0.25,-0.89 -0.14,-1.33l0.07 -0.15 0.13 -0.04c0.28,-0.03 0.56,0.05 0.83,0.13 0.52,0.15 1.05,0.27 1.59,0.37 0.02,0.33 -0.1,0.65 -0.31,0.9 -0.2,0.25 -0.49,0.43 -0.8,0.52 -0.09,0.03 -0.18,0.05 -0.27,0.05 -0.12,0.01 -0.24,-0.02 -0.36,-0.05z"/>
  <path class="fil33" d="M138.77 69.67c-0.39,-0.12 -0.76,-0.21 -1.16,-0.24 -0.37,-0.03 -0.74,-0.11 -1.1,-0.06l-0.04 0.04c-0.03,0.07 -0.02,0.07 0.01,0.14 0.03,0.07 0.12,0.01 0.1,-0.05 0.04,0.09 0.84,0.01 0.95,0.02 0.41,0.02 0.84,0.05 1.24,0.16l0 -0.01z"/>
  <path class="fil33" d="M139.87 71.13l-0.32 0.11 -0.1 -0.06 0 0 -0.01 0c-0.06,-0.02 -0.13,0.01 -0.16,0.07l-0.03 0.11 -0.01 0c-0.01,0.52 0.64,0.36 0.88,0.13 0.17,-0.17 -0.06,-0.42 -0.25,-0.36z"/>
  <path class="fil33" d="M140.3 70.9c-0.14,0 -0.12,0.23 0.02,0.23 0.15,0 0.13,-0.23 -0.02,-0.23z"/>
  <path class="fil32" d="M173.28 121.13c-0.08,-1.47 -0.15,-2.94 -0.24,-4.42 0.03,0.11 0.05,0.23 0.08,0.34 0.5,1.77 0.95,3.44 1.11,5.29 0.22,2.5 0.22,5.64 -0.95,7.95 0.45,-2.99 0.16,-6.17 0,-9.16zm-16.09 27.99c0.06,0 0.11,-0.01 0.16,-0.03 0.06,0.04 0.13,0.09 0.2,0.14 0.7,0.51 1.37,1.07 2.06,1.63 -1.52,1.29 -4.09,-0.88 -6.07,-1.87 1.22,0.01 2.43,0.05 3.65,0.13zm-6.93 -0.78c-2.16,0.1 -4.34,0.45 -6.5,0.35 -1.37,-0.05 -4.62,-0.66 -4.97,-4.5 -0.2,-2.13 -0.38,-4.25 -0.54,-6.38 1.83,1.09 3.64,2.22 5.46,3.35 2.94,1.82 5.89,3.51 8.97,5.06 1.29,0.65 2.51,1.38 3.7,2.18 -2.04,-0.11 -4.08,-0.14 -6.12,-0.06zm73.7 92.88c-0.26,3.55 -0.33,7.19 -0.87,10.72 -0.51,3.28 -2.61,6.14 -4.75,8.61 -2.2,2.55 -5.79,4.74 -9.13,3.09 -1.89,-1.97 -3.89,-3.82 -5.67,-5.9 -1.92,-2.23 -3.67,-4.6 -5.23,-7.08 -6.19,-9.85 -8.28,-21.24 -11.34,-32.29 -1.66,-6 -3.42,-11.96 -5.21,-17.92 -0.88,-2.93 -1.76,-5.86 -2.67,-8.79 -0.88,-2.83 -1.64,-5.76 -2.83,-8.48 -0.01,-0.02 -0.07,-0.12 -0.15,-0.24 -0.27,-0.45 -0.62,-0.86 -1.02,-1.21 -1.65,-1.43 -6.36,-5.57 -8.72,-8.18 -2.88,-3.16 -4.55,-7.09 -7.27,-10.35 -2.63,-3.16 -5.92,-5.68 -9.18,-8.14 -1.66,-1.24 -3.36,-2.25 -5.18,-3.2 -1.68,-0.87 -3.76,-1.62 -4.51,-3.33 0.29,0.2 0.61,0.37 0.97,0.5 2.14,0.74 4.57,0.32 6.77,0.14 1.55,-0.13 3.11,-0.19 4.67,-0.2 0.75,0.48 1.63,0.79 2.42,1.22 0.74,0.39 1.45,0.84 2.23,1.16 0.93,0.38 1.94,0.56 2.56,-0.3 0.61,0.48 1.22,0.95 1.88,1.36 0.06,0.04 0.15,-0.04 0.1,-0.11 -3.81,-4.37 -12.25,-7.89 -15.78,-10.1 -2.61,-1.62 -5.2,-3.25 -7.85,-4.8 -0.05,-0.09 -0.14,-0.13 -0.24,-0.14 -0.16,-0.1 -0.33,-0.2 -0.5,-0.29 -1.3,-0.76 -2.62,-1.48 -3.96,-2.16 -1.77,-0.9 -4.19,-1.93 -4,-4.3 0.78,0.58 1.68,1.04 2.39,1.38 1.01,0.48 2.06,0.76 3.05,0.06 0.93,-0.65 1.23,-1.8 0.94,-2.85 -0.02,-0.07 -0.14,-0.08 -0.13,0 0.03,1.62 -0.65,3.07 -2.7,2.78 -0.52,-0.07 -1.01,-0.26 -1.47,-0.51 -1.74,-0.95 -4.16,-2.28 -3.53,-4.71 0.02,-0.08 -0.09,-0.12 -0.12,-0.05 -0.66,1.49 0.11,2.7 1.24,3.64l0 0.02c-0.39,2.87 2.64,4.01 4.72,5.09 1.28,0.66 2.52,1.36 3.75,2.09l-0.01 0.08c0,2.54 0.11,5.31 0.66,7.8 0.24,1.08 0.68,2.05 1.41,2.77 0.95,3.35 5.21,4.51 7.86,6.28 3.37,2.25 6.7,4.9 9.5,7.89l-0.04 0.05c-1.01,2.52 -1.71,5.14 -3.01,7.55 -1.24,2.28 -2.87,4.33 -4.46,6.37 -2.88,3.68 -6.02,7.08 -9.74,9.93 -3.53,2.69 -7.43,4.88 -11.55,6.51 -1.32,0.52 -2.65,0.95 -3.98,1.33 -1.4,-2.01 -2.42,-4.07 -2.89,-6.5 -0.49,-2.6 -0.28,-5.32 -0.21,-7.95l-0.05 -0.01c-0.37,4.96 -1.18,10.65 2.25,14.71 -2.74,0.72 -5.53,1.19 -8.38,1.58 -1.02,-0.21 -2.03,-0.83 -2.97,-1.28 3.4,-3.11 5.11,-7.55 6.01,-11.99 1.08,-5.31 1.55,-11.04 0.89,-16.44 -0.02,-0.14 -0.25,-0.13 -0.26,0.01 -0.54,9.5 -0.11,20.89 -7.56,27.99 -0.72,-0.33 -1.44,-0.67 -2.15,-1 -1.97,-0.9 -16.5,-8.16 -18.39,-25.11 -1.7,-15.22 2.26,-23.79 5.49,-35.16 1.65,-5.8 2.9,-11.74 4.77,-17.48 1.19,-3.62 2.46,-7.13 4.29,-10.43 4.52,3.82 10.54,6.43 16.12,8.21l0.02 -0.06c-5.68,-1.92 -11.01,-5.26 -15.83,-8.71 1.09,-1.96 2.56,-3.65 3.68,-5.6 0.56,0.71 10.27,-3.17 12.75,-6.84 0.59,0.81 4.65,3.36 5.42,3.43 0.18,0.19 0.35,0.37 0.52,0.55 0.15,0.16 0.39,-0.04 0.26,-0.21 -0.38,-0.53 -0.69,-1.09 -0.97,-1.66 0.28,0.43 0.56,0.85 0.83,1.26 1.23,1.83 2.61,3.55 4.02,5.24 0.81,0.98 1.64,1.93 2.47,2.88 0.63,0.73 1.22,1.56 1.96,2.2 0.09,1.57 0.16,3.15 0.2,4.74 -0.66,-0.23 -1.34,-0.37 -2,-0.37 -0.1,0 -0.14,0.16 -0.04,0.17 2.27,0.27 9.25,4.49 11.27,5.45 1.26,0.59 2.5,1.6 3.57,2.47 2.19,1.78 4.82,3.43 7.27,4.8 1.26,0.71 2.59,1.29 3.83,2.03 1.26,0.75 2.1,1.58 3.12,2.62 2.05,2.08 4.07,4.37 6.34,6.2 0.07,0.06 0.15,-0.04 0.1,-0.1 -2.08,-2.64 -4.71,-5 -7.09,-7.37 -1.87,-1.86 -4.18,-2.79 -6.44,-4.07 -2.61,-1.47 -5.17,-3.01 -7.5,-4.91 -2.12,-1.73 -6.33,-3.58 -6.68,-3.77 -1.19,-0.8 -4.13,-2.57 -5.52,-3.08 0.68,-5.87 -0.34,-11.82 -0.66,-17.68 -0.08,-1.53 -0.12,-3.05 -0.09,-4.58 0.03,-1.5 0.04,-3.18 1.04,-4.4 2.04,-2.49 6.19,-2.11 9.04,-2.16 4.27,-0.08 8.54,-0.15 12.8,-0.23 0.13,0.13 0.36,0.13 0.47,-0.01 1.71,-0.03 3.42,-0.06 5.13,-0.09 1.46,-0.02 3.08,-0.23 4.39,0.55 1.22,0.73 1.91,2.08 2.27,3.41 0.72,2.72 0.03,5.6 0.58,8.36 -0.76,0.26 -1.22,1.25 -1.33,2.25 -0.07,0.55 -0.07,1.03 -0.04,1.5l-0.07 0.05c-0.95,2.3 -1,4.37 -0.47,6.78 0.45,2.03 1.23,4.16 2.22,6.03l-0.01 0.04c0.01,0.02 0.4,7.43 0.54,10.9 0.17,3.95 0.06,10.01 0.1,10.05 -0.64,0.87 -1.52,1.56 -2.71,1.95 -0.18,0.06 -0.05,0.34 0.13,0.27 1.58,-0.61 2.64,-1.35 3.36,-2.9 0.84,-1.81 1.19,-3.75 1.24,-5.73 0.04,-1.98 -0.18,-4.02 -0.55,-5.96 -0.22,-1.14 -0.66,-2.23 -0.87,-3.38 -0.27,-1.47 -0.26,-2.97 -0.3,-4.45l-0.04 -0.1 -0.02 -0.08c-1.11,-1.91 -1.96,-4.37 -2.47,-6.5 -0.29,-1.19 -0.56,-2.38 -0.59,-3.61 -0.03,-1.1 0.34,-1.97 0.56,-2.97 0.08,0.62 0.24,1.22 0.46,1.91 -0.25,-0.99 -0.33,-2.03 -0.3,-2.8 0.03,-0.86 0.4,-2.8 1.33,-3.08l0.31 0.02c0.21,0.04 0.44,0.12 0.71,0.26 0.58,0.3 1.01,1.02 1.37,1.53 0.68,0.96 3.22,7.74 4.24,9.9 1.19,2.51 1.75,5.27 2.78,7.84 0.99,2.49 2.26,4.78 2.42,7.52 0.17,2.77 0.05,5.58 0.07,8.35 0.03,2.33 0.09,4.66 0.56,6.95 0.52,2.59 1.43,5.11 2.06,7.68 0.62,2.53 1.09,5.14 1.92,7.62 0.78,2.35 1.93,4.57 2.85,6.87 1.92,4.74 4.95,12.56 7.36,17.49 0.18,0.37 0.43,1.01 0.56,1.41 2.23,6.7 4.57,12.73 7.47,18.81 2.84,5.96 6.08,11.7 9.51,17.33 3.28,5.38 6.66,10.99 7.76,17.28 0.62,3.51 0.32,7.04 0.07,10.57zm-46.62 -48.93c-0.27,1.56 -0.85,3.03 -1.65,4.39 -1.04,1.77 -2.5,3.1 -3.86,4.56 0.59,-3.19 0.23,-6.67 0.1,-9.84 -0.17,-4 -0.26,-8.13 -0.94,-12.08 1.25,1.03 2.55,2 3.86,2.9 0.29,0.19 0.52,0.43 0.7,0.72 0.19,0.31 0.61,1.17 0.82,1.9 0.36,1.56 0.79,3.11 1.27,4.64 0.06,1.22 -0.14,1.93 -0.3,2.81zm15.75 -49.61c2.24,3.08 4.93,5.85 7.89,8.3 1.15,2.54 2.16,5.15 3.01,7.78 1.44,4.42 2.42,8.99 2.93,13.61 0.53,4.79 0.67,9.61 1.46,14.38 0.76,4.54 1.88,9.01 3.28,13.39 0.95,2.98 1.98,6.66 3.27,9.94 -2.49,-4.21 -5.15,-8.89 -7.73,-14.31 -3,-6.26 -5.3,-12.85 -7.86,-19.29 0,0 -3.54,-8.41 -6.21,-14.8 -0.96,-5.93 -0.98,-13.21 -0.04,-19zm-121.79 29.42c-0.62,4.05 -0.63,8.06 0.02,11.94 -0.8,-2.2 -1.45,-4.42 -1.75,-6.84 -0.44,-3.59 -0.09,-7.29 0.76,-10.79 1.37,-5.67 4.21,-10.46 7.54,-15.06 -2.88,6.69 -5.47,13.5 -6.57,20.75zm17.85 61.27c2.27,7.53 3.75,15.13 4.8,22.86 -1.46,-5.03 -2.64,-10.14 -3.6,-15.3 -0.47,-2.55 -0.84,-5.13 -1.24,-7.71l0.04 0.15zm135.8 0.27c-0.35,-6.98 -3.74,-13.16 -7.28,-19 -0.21,-0.35 -0.42,-0.71 -0.64,-1.06 -0.86,-2.56 -2.2,-5.73 -3.11,-8.2 -0.99,-2.64 -1.75,-5.58 -2.53,-8.29 -1.28,-4.5 -2.26,-9.08 -2.84,-13.72 -0.59,-4.75 -0.65,-9.54 -1.4,-14.27 -0.97,-6.09 -2.77,-11.96 -5.38,-17.49 2.96,2.35 6.17,4.38 9.46,6.09l0 0 0 0 0.08 0.04c0.34,0.17 0.53,-0.34 0.29,-0.55 -7.19,-6.24 -10.77,-14.91 -14.56,-23.4 -0.05,-0.1 -0.19,-0.02 -0.16,0.08 2.6,8.01 6.41,16.16 12.5,22.13 -3.05,-1.73 -5.84,-3.76 -8.42,-6.04 -0.92,-1.8 -1.92,-3.57 -3.01,-5.3 -0.04,-0.06 -0.14,0.01 -0.11,0.07 0.84,1.48 1.62,3 2.36,4.55 -2.49,-2.28 -4.79,-4.8 -6.95,-7.49 0.57,-3.17 1.45,-6.31 2.66,-9.4 1.58,-4 3.14,-7.9 4.02,-12.11l0.02 -0.02c0.18,0.14 0.23,0.32 0.16,0.52 -0.01,0.16 -0.03,0.31 -0.04,0.47 -0.02,0.32 -0.03,0.63 -0.04,0.94 -0.02,0.63 -0.03,1.26 -0.01,1.89 0.04,1.13 0.14,2.26 0.31,3.38 0.36,2.36 1,4.69 1.87,6.92 1.56,4 3.89,7.67 6.91,10.7 -3.65,-1.96 -7.03,-5.01 -9.62,-8.1l-0.03 0.03c1.47,1.79 3.09,3.49 4.82,5.03 1.88,1.67 4.01,2.88 6.1,4.24 0.24,0.16 0.57,-0.16 0.36,-0.38 -3.59,-3.53 -6.42,-7.75 -8.15,-12.48 -0.85,-2.35 -1.42,-4.78 -1.73,-7.26 -0.17,-1.38 -0.26,-2.77 -0.27,-4.16 0,-0.45 0.07,-0.93 0.03,-1.38 0.06,-0.15 0.06,-0.33 0.02,-0.51 0.08,-0.65 0.04,-1.34 0.09,-1.98 0.07,-0.91 0.24,-1.82 0.25,-2.73 1.42,-4.88 2.13,-10.07 2.56,-15.09 0.45,-5.21 0.35,-23.58 -0.18,-28.37 -0.53,-4.79 -1.24,-9.55 -2.21,-14.27 -3.03,-14.83 -8.83,-29.33 -18.94,-40.79 -4.68,-5.31 -10.26,-9.97 -16.58,-13.2 -5.71,-2.92 -14.18,-4.48 -18.59,1.52 -0.2,0.28 0.21,0.55 0.43,0.3 6.51,-7.25 16.66,-2.5 23.23,2.01 11.29,7.74 19.38,19.46 24.42,32.04 2.98,7.44 4.95,15.26 6.28,23.15 0.64,3.84 1.13,7.7 1.51,11.58 0.28,2.86 0.45,20.25 -0.11,26.26 -0.39,4.16 -1.18,8.21 -2.03,12.26 0.04,-2.12 -0.06,-4.24 -0.28,-6.4 -0.01,-0.1 -0.15,-0.07 -0.15,0.03 0.22,3.69 -0.01,7.53 -0.61,11.24l-0.03 0.13 0 0.03c-0.2,1.22 -0.44,2.42 -0.72,3.6 -1.06,4.43 -2.94,8.49 -4.54,12.72 -2.56,6.72 -3.19,19.48 -2.04,25.78 -0.59,-1.4 -1.1,-2.64 -1.48,-3.56 -1.03,-2.48 -2.09,-4.84 -2.74,-7.45 -0.66,-2.67 -1.23,-5.36 -2,-8 -0.71,-2.45 -1.73,-4.87 -1.95,-7.44 -0.22,-2.7 0.02,-5.42 0.06,-8.12 0.05,-2.37 0.17,-4.84 -0.5,-7.13 -0.64,-2.18 -1.79,-4.16 -2.54,-6.3 -0.79,-2.27 -1.34,-4.64 -2.34,-6.83 -0.97,-2.12 -4.21,-10.14 -5.66,-11.15 -0.37,-0.26 -0.71,-0.38 -1.02,-0.39 -0.64,-3.75 1.13,-10.57 -3.6,-12.42 -1.1,-0.43 -2.32,-0.35 -3.47,-0.33 -1.37,0.02 -2.73,0.04 -4.09,0.06l-1.6 0.03c0.13,-8.12 0.17,-16.33 -1.06,-24.36l0.05 -0.08c-0.12,-2.08 -0.59,-4.11 -1.28,-6.09 -0.25,-0.99 -0.51,-1.98 -0.81,-2.97 -1.45,-4.76 -3.53,-9.28 -6.32,-13.41 -1.41,-2.1 -2.95,-4.12 -4.4,-6.2 -1.55,-2.21 -2.74,-4.59 -4.18,-6.86 -0.06,-0.1 -0.24,-0.01 -0.21,0.1 0.59,2.1 1.94,4.03 3.16,5.82 1.42,2.1 2.97,4.1 4.43,6.17 2.91,4.15 5.13,8.65 6.67,13.47 -0.44,-0.9 -0.91,-1.77 -1.4,-2.63 -1.13,-1.98 -2.42,-3.88 -3.78,-5.72 -1.39,-1.88 -2.78,-3.89 -4.47,-5.51 -0.06,-0.06 -0.19,0 -0.14,0.09 1.13,1.87 2.63,3.52 3.93,5.28 1.4,1.88 2.74,3.8 3.95,5.82 1.18,1.98 2.14,4.02 2.91,6.12 1.63,6.43 2.22,13.04 2.38,19.67 -1.81,0.6 -3.09,2.35 -3.82,4.03 -0.89,2.03 -1.51,5.07 -1.05,7.25 0.02,0.1 0.19,0.13 0.22,0.02 0.61,-2.03 0.29,-4.23 0.99,-6.3 0.69,-2.04 1.91,-3.42 3.67,-4.57 0.07,3.63 0.02,7.26 -0.06,10.87l-5.96 0.09c-2.82,0.05 -5.64,0.09 -8.47,0.14 -2.14,0.04 -4.48,0.07 -6.4,1.16 -1.47,0.84 -2.2,2.2 -2.43,3.84 -0.34,2.47 -0.13,5.09 0,7.56 0.21,3.82 0.52,7.63 0.75,11.44 -1.02,-1.6 -2.59,-3.07 -3.77,-4.47 -1.42,-1.68 -2.72,-3.4 -3.9,-5.25 -1.2,-1.87 -2.29,-3.8 -3.27,-5.79 -0.72,-1.47 -1.32,-3.02 -1.99,-4.51 -2.3,-9.51 -0.66,-19.29 2.16,-28.61 1.46,-4.83 3.55,-9.56 6.93,-13.36 3.72,-4.2 8.85,-6.09 13.66,-8.71 0.26,-0.14 0.08,-0.54 -0.19,-0.41 -4.83,2.19 -9.93,4.48 -13.57,8.45 -3.59,3.91 -5.8,8.82 -7.33,13.85 -1.58,5.2 -2.79,10.66 -3.26,16.09 -0.35,4.12 -0.28,8.4 0.96,12.36 0.59,2.46 1.74,4.92 3.05,7.19 0.16,0.85 0.5,1.65 0.93,2.4 -1.19,-1.3 -2.27,-2.65 -3.35,-4.08l-0.04 0.03c0.97,1.6 2.17,3.14 3.45,4.55 -0.9,-0.34 -5.2,-2.89 -7.03,-5.67 -2.5,-4.46 -5.14,-8.74 -5.47,-14.04 -0.01,-0.18 -0.32,-0.17 -0.32,0.02 -0.01,1.85 0.12,3.6 0.37,5.36 -1.12,-3.68 -1.89,-7.38 -2.21,-11.29 -0.02,-0.19 -0.31,-0.16 -0.33,0.02 -0.08,0.77 -0.14,1.52 -0.16,2.27 -0.89,-4.84 -1.31,-9.63 -0.77,-14.63 0.49,-4.53 1.65,-9.06 3.41,-13.31 0,0.09 -0.02,0.17 -0.02,0.26 -0.01,0.11 0.17,0.15 0.19,0.04 0.1,-0.48 0.21,-0.95 0.33,-1.42 0.43,-0.98 0.89,-1.95 1.39,-2.89l-0.03 -0.03c-0.42,0.73 -0.81,1.46 -1.19,2.2 0.86,-3.48 1.93,-6.86 3.39,-10.17 1.78,-4.03 3.88,-7.94 6.02,-11.79 1.12,-2 2.36,-3.89 4.1,-5.4 1.52,-1.32 3.23,-2.4 4.92,-3.47 3.77,-2.4 8.32,-5.88 13.04,-4.8 0.15,0.03 0.24,-0.18 0.09,-0.23 -4.05,-1.47 -8.2,1.42 -11.51,3.44 -3.85,2.33 -7.68,4.63 -10.13,8.52 -2.5,3.96 -4.67,8.29 -6.62,12.55 -1.81,3.98 -3.44,8.22 -3.91,12.61 -2.01,4.29 -3.35,8.83 -3.93,13.6 -0.72,5.86 -0.47,12.29 1.41,17.93l0 0 0 0 0.02 0.05c0.07,0.22 0.46,0.1 0.39,-0.13 -0.06,-0.29 -0.12,-0.59 -0.18,-0.89 -0.1,-0.62 -0.12,-1.25 -0.1,-1.88 0.34,4.1 1.3,8.22 2.97,11.96 0.11,0.26 0.53,0.06 0.39,-0.19 -0.32,-0.91 -0.62,-1.83 -0.91,-2.74 -0.15,-0.97 -0.19,-1.98 -0.18,-2.97 0.41,2.56 1.33,5.05 2.51,7.4l0 0.02c0.27,0.59 0.58,1.15 0.91,1.69 0.73,1.3 1.32,1.96 2.14,3.16 0.13,0.19 0.63,0.63 0.64,0.44l0.12 0.13c0.36,0.39 0.74,0.78 1.12,1.17 -2.44,3.1 -9.92,6.53 -12.38,6.81 0.1,-0.05 -0.19,-0.27 -0.48,-0.35l-0.69 -0.01c-1.96,-0.28 -4.03,-1.11 -5.81,-0.01l-0.03 0.01c-4.42,-0.5 -8.85,-0.96 -13.28,-1.37 -3.94,-0.37 -8.02,-0.56 -11.83,0.72 -6.33,2.14 -10.82,7.92 -13.03,14.03 -2.4,6.61 -2.48,13.75 -2.45,20.71 0.04,8.12 0.07,16.23 0.13,24.34 0.14,17.42 -0.23,34.91 0.49,52.32 0.32,7.98 1.19,15.88 2.89,23.68 1.67,7.66 4,15.15 6.59,22.55 2.66,7.59 5.82,15.02 8.28,22.69 2.12,6.63 3.64,13.82 2.05,20.66l0.89 0c1.58,-6.8 0.09,-14.02 -1.98,-20.6 -2.61,-8.27 -6.05,-16.27 -8.88,-24.47 -2.56,-7.42 -4.83,-14.95 -6.42,-22.64 -1.64,-7.96 -2.38,-16.04 -2.64,-24.16 -0.55,-17.19 -0.3,-34.43 -0.45,-51.62 -0.06,-6.82 -0.11,-13.63 -0.14,-20.45 -0.03,-7.92 -0.32,-16.29 2.71,-23.81 2.45,-6.09 7.25,-11.61 13.88,-13.09 3.78,-0.84 7.68,-0.45 11.48,-0.07 3.67,0.37 7.35,0.74 11.02,1.08 -1.43,1.15 -2.92,2.55 -3.83,4.08 -2.56,4.3 -3.61,9.61 -5.38,14.26 -2.48,6.53 -4.63,12.92 -7.41,19.31 -0.1,-1.84 -0.73,-3.65 -0.75,-5.49 -0.02,-2.06 0.13,-4.12 0.06,-6.17 -0.01,-0.11 -0.15,-0.12 -0.17,-0.02 -0.56,3.99 0.18,8.31 0.58,12.33 -0.21,0.49 -0.43,0.97 -0.64,1.46 -0.37,-2.02 -1.43,-4.02 -1.97,-5.99 -0.02,-0.07 -0.13,-0.05 -0.11,0.02 0.4,2.09 1.36,4.2 1.96,6.25 -0.92,2.1 -1.84,4.19 -2.77,6.29 -0.67,1.5 -1.86,3.01 -2.52,4.51 -4.46,4.85 -7.7,11.27 -9.1,17.63 -1.43,6.44 -1.25,14.81 2.58,20.47l0.03 0.04c0.92,3.14 2.32,6.17 4.28,9.01 2.1,3.04 4.62,5.8 7.36,8.33 0.23,2.43 0.79,4.87 1.2,7.27 0.4,2.36 0.8,4.73 1.2,7.09 0.38,2.28 0.77,4.55 1.21,6.81 0.29,5.55 1.34,11.18 2.37,16.62 1.99,10.42 5.13,20.53 8.9,30.43 1.9,5 3.94,9.94 6.01,14.86 1,2.39 2.05,4.76 2.92,7.19 0.38,1.07 0.69,2.16 0.98,3.24l1.12 0c-0.9,-3.94 -2.81,-7.78 -4.33,-11.38 -0.67,-1.6 -1.34,-3.2 -2,-4.81 1.39,2.23 3.31,4.28 5.02,6.21 1.88,2.13 3.85,4.19 5.87,6.19 1.29,1.26 2.6,2.54 3.94,3.79l1.89 0c-1.76,-1.52 -3.5,-3.06 -5.18,-4.68 -2.13,-2.06 -4.21,-4.17 -6.24,-6.32 -1.83,-1.94 -3.57,-4.13 -5.58,-5.87 -3.03,-7.39 -5.89,-14.85 -8.25,-22.48 -0.28,-8.75 -2.22,-17.33 -4.76,-25.72 -1.41,-4.67 -2.24,-9.42 -3.12,-14.22 -0.43,-2.36 -0.86,-4.71 -1.3,-7.07 -0.39,-2.16 -0.68,-4.38 -1.18,-6.52 3.15,2.81 6.57,5.33 10.02,7.63 0.24,0.15 0.46,-0.18 0.25,-0.36 -6.82,-5.62 -14.33,-10.83 -19.03,-18.51 -1.39,-2.28 -2.4,-4.6 -3.1,-6.96l-0.02 -0.11 -0.05 -0.12c-4.64,-17.31 9.25,-41.47 10.11,-43.29 4.12,-8.73 7.48,-18.2 10.7,-26.84 1.49,-4 2.28,-8.12 4.02,-12.02 0.95,-2.12 2.57,-4.16 4.31,-5.73 0.25,-0.24 1.31,-1.84 3.95,-1.22 1.12,0.27 2.12,0.45 3.27,0.56l0.02 -0.01c-1.26,1.8 -5.95,6.26 -9.43,18.57 -1.75,6.18 -3.31,12.41 -5.08,18.59 -1.73,6.04 -3.97,12.11 -4.76,18.35 -0.7,5.44 -0.67,11.13 0.18,16.55 2,12.71 10.7,17.85 14.07,20.42 1.73,1.31 3.57,2.25 5.54,3.16 1.16,0.54 2.32,1.09 3.49,1.62 0.59,0.26 1.08,0.52 1.66,0.58 0.06,0.12 0.17,0.2 0.33,0.19 9.01,-0.4 18.14,-4.31 25.27,-9.69 3.87,-2.93 7.12,-6.44 10.1,-10.25 3.34,-4.28 6.02,-8.6 7.28,-13.92 0.17,0.19 0.34,0.37 0.51,0.56 2.94,3.42 4.62,7.66 7.69,11 1.4,1.52 2.93,2.98 4.54,4.35l-0.01 0.07c0.07,3.96 0.58,7.93 0.76,11.89 0.14,3.31 0.49,6.79 -0.01,10.08 -0.59,3.91 -3.42,5.95 -6.6,7.89 -2.91,1.77 -6.02,3.06 -9.19,4.24 -0.21,0.08 -0.1,0.41 0.12,0.37 3.6,-0.71 7.02,-2.24 10.11,-4.2 0.41,-0.26 0.81,-0.52 1.2,-0.78 -0.13,0.85 0.1,1.76 -0.24,2.62 -0.38,0.95 -1.27,1.71 -1.88,2.52 -0.07,0.09 0.04,0.22 0.15,0.17 0.33,-0.15 0.64,-0.34 0.93,-0.55 -0.11,0.76 -0.11,1.55 -0.07,2.32 0.07,1.62 0.61,2.67 -0.14,4.24 -0.03,0.07 -0.05,0.14 -0.08,0.21 -0.57,0.15 -1.15,0.67 -1.6,0.94 -0.73,0.42 -1.48,0.83 -2.16,1.34 -0.11,0.08 -0.02,0.28 0.12,0.25 0.87,-0.2 1.68,-0.6 2.45,-1.06 0.28,-0.17 0.68,-0.35 1.01,-0.58 0.01,0.51 0.24,0.97 0.8,1.26 4.59,5.25 9.24,10.41 13.5,15.95 1.91,2.48 4.15,4.92 5.14,7.96 1.04,3.19 0.7,6.6 -0.34,9.75 -1.96,5.89 -5.85,11.08 -9.57,15.97 -3.71,4.89 -7.49,9.72 -10.57,15.04 -2.15,3.71 -4.28,7.72 -5.69,11.87l1.35 0c0.74,-1.87 1.48,-3.74 2.34,-5.56 1.6,-3.4 3.44,-6.67 5.49,-9.81 3.45,-5.28 7.45,-10.17 11.02,-15.36 3.39,-4.92 6.78,-10.32 7.18,-16.44 0.27,-4.23 -1.31,-7.71 -3.49,-10.97 3.68,2.85 7.02,5.96 9.93,9.61 5.73,7.19 9.52,15.72 12.17,24.47 1.41,4.64 2.62,9.39 3.36,14.2 0.51,3.28 0.54,6.57 0.67,9.86l1.29 0c0.04,-4.23 -0.57,-8.61 -1.35,-12.61 -1.82,-9.49 -4.8,-19.08 -9.43,-27.59 -4.03,-7.41 -9.65,-14.64 -17.02,-18.98 -0.13,-0.07 -0.25,-0.05 -0.33,0.01 -0.8,-1.12 -1.65,-2.22 -2.51,-3.32 -3.97,-5.1 -8.13,-10.18 -12.79,-14.67 -0.15,-0.5 -0.18,-1.07 -0.07,-1.55 0.03,-0.14 0.25,-0.26 0.28,-0.42 0.09,-0.43 0.16,-0.75 0.11,-1.19 -0.14,-1.13 -0.42,-2.19 -0.44,-3.34 -0.02,-0.8 0.08,-1.58 0.1,-2.37 0.32,-0.34 0.58,-0.72 0.78,-1.17 0.4,-0.92 0.41,-2.33 -0.01,-3.29 1.88,-1.32 3.49,-2.83 4.29,-5.06 2.16,-1.48 4.08,-4.04 5.29,-6.29 0.64,-1.2 1.15,-2.48 1.4,-3.82 0.07,-0.37 0.17,-0.82 0.23,-1.29 0.22,0.73 0.45,1.45 0.67,2.18 1.02,3.4 2.05,6.8 3.05,10.21 1.79,6.06 3.51,12.13 5.16,18.23 1.54,5.7 2.79,11.5 4.74,17.08 1.73,4.92 4.12,9.59 7.08,13.89 2.57,3.74 5.66,7.62 9.32,10.44 -0.04,0.11 -0.02,0.25 0.12,0.34 6.06,4 12.48,-4.01 14.63,-8.93 1.38,-3.16 1.1,-7.1 1.35,-10.48 0.27,-3.62 0.71,-7.29 0.52,-10.92z"/>
  <path class="fil32" d="M145.95 85.17l-0.05 0.03c-0.16,-0.08 -0.33,0.05 -0.37,0.22 -0.07,0.26 0.1,0.55 0.37,0.57 0.62,0.05 0.63,-0.91 0.05,-0.82z"/>
  <path class="fil32" d="M143.02 86.52c-0.72,0.19 -1.53,-0.2 -1.57,-1.01 -0.02,-0.51 0.31,-0.76 0.59,-1.07 0.52,0.01 1.02,-0.24 1.51,0.17 0.7,0.59 0.24,1.71 -0.53,1.91zm-1.36 -2.37c-0.49,0.27 -0.75,1.14 -0.66,1.61 0.22,1.05 1.37,1.5 2.32,1.16 0.85,-0.3 0.94,-1.56 0.64,-2.27 -0.32,-0.79 -1.8,-1.49 -2.3,-0.5z"/>
  <path class="fil32" d="M133.66 93.11l0.05 0c0.15,-0.63 0.21,-1.23 0.26,-1.88 0.06,-0.75 0.27,-1.44 0.49,-2.16l-0.08 -0.05c-0.95,0.98 -0.89,2.83 -0.72,4.09z"/>
  <path class="fil32" d="M172.26 102.6c1.14,0.88 3.65,1.09 4.66,-0.09 0.09,-0.11 -0.05,-0.26 -0.16,-0.2 -1.37,0.69 -3.12,0.94 -4.43,-0.05 -0.55,-0.42 -0.94,-1.11 -1.21,-1.89 0.22,0.82 0.45,1.7 1.14,2.23z"/>
  <path class="fil32" d="M141.68 70.05c0.74,0.41 1.28,0.94 1.88,1.51 -0.39,-0.08 -0.63,0.04 -1.08,0.19 -0.92,0.32 -1.78,0.45 -2.71,0.42 0.92,-0.32 1.69,-1.16 1.91,-2.12zm-0.84 2.56c1.07,-0.06 1.91,-0.53 2.91,-0.88 0.1,0.1 0.21,0.19 0.32,0.29l0.06 -0.04c-0.39,-1.35 -1.84,-2.18 -3.22,-2.67 -0.17,-0.09 -0.33,-0.17 -0.5,-0.26 -0.18,-0.11 -0.37,-0.22 -0.53,-0.37 -0.12,-0.11 -0.2,-0.24 -0.34,-0.33l-0.1 0.03 -0.03 0.15c-0.17,-0.1 -0.33,-0.19 -0.5,-0.28 -0.1,-0.05 -0.15,0.09 -0.11,0.15l0.07 0.08c-0.28,-0.19 -0.55,-0.39 -0.84,-0.56 -0.07,-0.03 -0.18,0.03 -0.13,0.11l0.02 0.03c-0.19,-0.15 -0.38,-0.31 -0.6,-0.42 -0.09,-0.05 -0.16,0.07 -0.13,0.14 0.05,0.15 0.15,0.29 0.27,0.42 -0.33,-0.19 -0.62,-0.46 -0.96,-0.65 -0.08,-0.04 -0.16,0.02 -0.13,0.11 0.13,0.34 0.44,0.64 0.81,0.86 -0.35,-0.09 -0.69,-0.24 -1.01,-0.45 -0.37,-0.25 -0.69,-0.58 -1.08,-0.82 -0.06,-0.03 -0.14,0.03 -0.11,0.09 0.1,0.18 0.22,0.34 0.36,0.5 -0.38,-0.26 -0.75,-0.53 -1.13,-0.8 -0.08,-0.05 -0.17,0.03 -0.14,0.11 0.34,0.7 1.01,1.13 1.74,1.33 -0.05,0 -0.11,-0.01 -0.16,-0.01 -0.54,-0.19 -1.05,-0.41 -1.51,-0.76 -0.44,-0.34 -0.82,-0.73 -1.3,-1.02 -0.07,-0.04 -0.19,0.03 -0.14,0.12 0.34,0.57 0.9,1.14 1.55,1.49 -0.87,-0.27 -1.59,-0.92 -2.32,-1.43 -0.07,-0.04 -0.16,0.03 -0.12,0.1 0.17,0.33 0.45,0.65 0.79,0.92 -0.16,-0.1 -0.32,-0.2 -0.47,-0.31 -0.44,-0.32 -0.77,-0.75 -1.19,-1.08 -0.08,-0.07 -0.18,0.03 -0.15,0.12 0.19,0.51 0.58,0.9 1.04,1.19l-0.06 -0.01c-0.27,-0.19 -0.53,-0.42 -0.72,-0.58 -0.46,-0.39 -0.82,-0.88 -1.3,-1.25 -0.1,-0.08 -0.22,0.05 -0.18,0.16 0.2,0.58 0.69,1.07 1.21,1.45 -0.11,0 -0.2,0.15 -0.08,0.22 2.04,1.16 4.65,0.96 6.91,1.19 0.76,0.07 1.51,0.19 2.25,0.38l-0.03 0.03c-0.18,0.4 -0.24,0.76 -0.65,1.01 -0.33,0.21 -0.71,0.26 -1.08,0.2 -0.38,-0.38 -0.52,-0.85 -0.56,-1.36l-0.09 -0.02c0.01,-0.06 0.02,-0.12 0.03,-0.17l-0.01 -0.01c-0.01,0.07 -0.02,0.13 -0.03,0.19l-0.01 0c-0.18,0.5 0.07,1.03 0.49,1.31l-0.16 -0.04 -0.02 0.02c0.42,0.4 1.06,0.56 1.59,0.28 0.45,-0.23 0.93,-0.82 0.81,-1.36 0.35,0.1 0.7,0.21 1.04,0.35 0.05,0.03 0.1,0.05 0.15,0.08l-0.01 0.02c-0.21,0.72 -0.61,1.35 -1.28,1.71 -0.72,0.39 -1.44,0.3 -2.2,0.18l-0.03 0.01c-0.64,-0.4 -1.17,-0.92 -1.43,-1.65l-0.03 0c-0.02,0.61 0.3,1.21 0.79,1.53 -1.35,-0.52 -2.3,-1.45 -3.22,-2.87 -0.07,-0.1 -0.22,-0.01 -0.2,0.09 0.27,1.82 2.26,2.99 3.88,3.41 1.04,0.28 2.17,0.37 3.24,0.3z"/>
  <path class="fil32" d="M144.29 69.88c-1.55,-1.63 -3.8,-2.84 -5.99,-3.31 -2.97,-0.63 -5.78,-0.42 -8.57,-1.82 -0.08,-0.04 -0.13,0.08 -0.07,0.13 1.78,1.45 4.31,1.47 6.49,1.66 1.48,0.14 2.92,0.37 4.28,1 1.38,0.64 2.51,1.62 3.79,2.41l0.07 -0.07z"/>
  <path class="fil32" d="M136.35 68.96c0.02,-0.05 -0.07,-0.08 -0.09,-0.03 -0.04,0.13 -0.03,0.25 0,0.37l0.02 0c-0.01,-0.12 0.01,-0.23 0.07,-0.34z"/>
  <path class="fil32" d="M170.97 99.87c-0.02,-0.07 -0.04,-0.13 -0.06,-0.2 0.06,0.24 0.13,0.47 0.21,0.7 -0.05,-0.17 -0.1,-0.33 -0.15,-0.5z"/>
  <path class="fil32" d="M162.82 140.71c-1.83,1.3 -4.29,-0.8 -5.49,-1.62 -1.24,-0.84 -2.28,-1.93 -3.54,-2.73 -2.07,-1.33 -4.46,-2.03 -6.75,-2.87 -2.73,-1.02 -5.16,-2.46 -7.66,-3.93 -0.58,-0.34 -1.17,-0.67 -1.76,-0.98l0.01 -0.07c-0.02,-1.57 -0.1,-2.88 -0.14,-4.45 -0.04,-1.27 0.03,-2.62 -0.23,-3.88 3.1,2.64 7.32,4.3 10.57,6.44 1.56,1.02 2.87,2.26 4.24,3.5 1.36,1.24 2.97,1.99 4.44,3.06 2.48,1.78 4.65,3.98 6.92,6.04l0 0.02c0.01,0.65 -0.06,1.08 -0.61,1.47zm-5.33 -7.53c-1.36,-1.06 -2.94,-1.78 -4.27,-2.87 -1.3,-1.06 -2.42,-2.3 -3.78,-3.28 -5.48,-3.96 -13.14,-5.49 -15.69,-12.46 -0.05,-0.14 -0.29,-0.06 -0.25,0.08 0.61,2.12 1.82,3.77 3.33,5.15l-0.05 0.09c-0.27,1.52 -0.03,3.17 0.03,4.71 0.05,1.3 0.09,2.61 0.16,3.92 -1.33,-0.64 -2.72,-1.14 -4.21,-1.32l-0.02 0.02c-0.63,-0.29 -1.29,-0.52 -1.96,-0.72 -0.81,-0.24 -1.59,-0.47 -2.38,-0.07l0 0.01c1.78,-0.38 3.97,1.14 5.63,1.66 0.07,0.02 0.12,-0.07 0.06,-0.12 -0.33,-0.24 -0.69,-0.43 -1.05,-0.61 2.48,0.53 10.53,5.36 13.93,6.57 2.59,0.92 5.26,1.76 7.49,3.42 2.13,1.59 6.08,5.92 8.59,3.91 0.55,-0.44 0.73,-1.07 0.75,-1.73 0.55,0.49 1.11,0.98 1.68,1.44l0.01 -0.01c-0.55,-0.56 -5.81,-6.07 -8,-7.79z"/>
  <path class="fil32" d="M144.43 64.47c-1.77,-1.24 -3.6,-2.44 -5.56,-3.38 -3.57,-1.72 -8.2,-2.64 -11.81,-0.57 -0.08,0.04 -0.03,0.15 0.05,0.12 3.6,-1.25 7.18,-1.07 10.69,0.39 1.65,0.68 3.22,1.57 4.71,2.57 1.07,0.72 4.31,2.37 4.41,3.94 -0.94,-0.25 -1.73,-1.14 -2.44,-1.72 -0.71,-0.6 -1.45,-1.18 -2.21,-1.71 -1.23,-0.87 -2.54,-1.61 -3.93,-2.19 -2.67,-1.12 -6.05,-1.99 -8.95,-1.46 -0.19,0.03 -0.17,0.32 0.02,0.34 1.96,0.2 3.86,0.18 5.8,0.67 1.73,0.43 3.41,1.08 4.96,1.96 1.6,0.89 2.99,2.06 4.46,3.15 0.67,0.49 2.01,1.4 2.65,1.17l0.02 -0.16c0.1,-1.48 -1.84,-2.39 -2.87,-3.12z"/>
  <path class="fil32" d="M152.98 26.39c-1.83,-2.05 -3.65,-4.12 -5.52,-6.13 -1.16,-1.24 -2.48,-2.45 -4.28,-2.25 -0.25,0.02 -0.22,0.42 0.02,0.42 2.61,0.08 4.3,2.75 5.89,4.52 1.63,1.82 3.29,3.62 4.9,5.46 3.09,3.52 5.83,7.24 8.02,11.39 4.23,8.01 6.59,16.8 8.9,25.51 0.03,0.12 0.21,0.09 0.18,-0.03 -2.05,-9.4 -4.65,-18.88 -9.42,-27.3 -2.41,-4.24 -5.44,-7.97 -8.69,-11.59z"/>
  <path class="fil32" d="M183.97 52.01c0.02,0.07 0.14,0.05 0.12,-0.03 -1.71,-6.25 -4.01,-12.35 -6.86,-18.17 -4.4,-8.96 -10.06,-18.34 -18.79,-23.67 -4.08,-2.5 -9.19,-4.32 -13.87,-2.43 -3.89,1.57 -6.24,5.76 -4.43,9.74 0.06,0.13 0.25,0.04 0.19,-0.09 -1.09,-2.76 0.02,-6.1 2.32,-7.91 2.33,-1.82 5.39,-2.28 8.25,-1.8 9.06,1.53 16.01,9.76 20.68,17.06 5.39,8.45 9.45,17.72 12.39,27.3z"/>
  <path class="fil32" d="M138.23 116.75c1.98,0.77 3.96,-0.53 3.98,-2.73l-0.05 -0.02c-0.5,0.69 -0.63,1.76 -1.38,2.26 -1.32,0.87 -2.71,0.12 -3.89,-0.58 -1.71,-1.01 -3.28,-2.13 -3.96,-4.07 -0.03,-0.08 -0.16,-0.03 -0.15,0.05 0.25,2.4 3.42,4.3 5.45,5.09z"/>
  <path class="fil32" d="M148.79 86.18c-0.4,0.27 -0.86,0.02 -1.11,-0.33 -0.28,-0.42 -0.08,-0.71 0.14,-1.03 0.31,0.08 0.64,0.01 0.94,0.15 0.51,0.25 0.47,0.91 0.03,1.21zm-1.06 -1.58l-0.02 0.01c-0.48,0.18 -0.67,0.78 -0.43,1.26 0.27,0.54 0.91,0.92 1.5,0.69 0.54,-0.21 0.71,-0.82 0.48,-1.33 -0.23,-0.5 -1.01,-0.87 -1.53,-0.63z"/>
  <path class="fil32" d="M145.19 68.98c-0.08,-0.06 -0.18,0.05 -0.12,0.13 0.77,0.89 1.52,1.6 1.91,2.75 0.33,1.01 0.48,2.06 0.72,3.1 0.01,0.05 0.1,0.05 0.1,0 -0.07,-2.34 -0.62,-4.58 -2.61,-5.98z"/>
  <path class="fil32" d="M139.87 73.19l0 -0.05c-2.83,-0.31 -5.07,-0.86 -7.23,-2.81l-0.04 0.04c1.74,1.88 4.67,3.31 7.27,2.82z"/>
 </g>
</svg>
