<?xml version="1.0" encoding="UTF-8"?>
<!DOCTYPE svg PUBLIC "-//W3C//DTD SVG 1.1//EN" "http://www.w3.org/Graphics/SVG/1.1/DTD/svg11.dtd">
<!-- Creator: CorelDRAW 2019 (64-Bit) -->
<svg xmlns="http://www.w3.org/2000/svg" xml:space="preserve" width="300px" height="300px" version="1.1" style="shape-rendering:geometricPrecision; text-rendering:geometricPrecision; image-rendering:optimizeQuality; fill-rule:evenodd; clip-rule:evenodd"
viewBox="0 0 300 300"
 xmlns:xlink="http://www.w3.org/1999/xlink"
 xmlns:xodm="http://www.corel.com/coreldraw/odm/2003">
 <defs>
  <style type="text/css">
   <![CDATA[
    .fil0 {fill:#F1A2AD;fill-rule:nonzero}
    .fil8 {fill:#E88A9E;fill-rule:nonzero}
    .fil6 {fill:#CB8DBD;fill-rule:nonzero}
    .fil7 {fill:#B24A94;fill-rule:nonzero}
    .fil12 {fill:#7F386C;fill-rule:nonzero}
    .fil11 {fill:#553154;fill-rule:nonzero}
    .fil13 {fill:#482E46;fill-rule:nonzero}
    .fil3 {fill:url(#id0)}
    .fil5 {fill:url(#id1)}
    .fil1 {fill:url(#id2)}
    .fil2 {fill:url(#id3)}
    .fil10 {fill:url(#id4)}
    .fil9 {fill:url(#id5)}
    .fil4 {fill:url(#id6)}
   ]]>
  </style>
  <linearGradient id="id0" gradientUnits="userSpaceOnUse" x1="125.28" y1="304.35" x2="134.79" y2="244.57">
   <stop offset="0" style="stop-opacity:1; stop-color:#8A3B66"/>
   <stop offset="1" style="stop-opacity:1; stop-color:#EA8FAA"/>
  </linearGradient>
  <linearGradient id="id1" gradientUnits="userSpaceOnUse" x1="176.39" y1="110.24" x2="140.69" y2="250.46">
   <stop offset="0" style="stop-opacity:1; stop-color:#4D315A"/>
   <stop offset="1" style="stop-opacity:1; stop-color:#A13171"/>
  </linearGradient>
  <linearGradient id="id2" gradientUnits="userSpaceOnUse" xlink:href="#id0" x1="125.28" y1="304.35" x2="134.79" y2="244.57">
  </linearGradient>
  <linearGradient id="id3" gradientUnits="userSpaceOnUse" xlink:href="#id0" x1="125.28" y1="304.35" x2="134.79" y2="244.57">
  </linearGradient>
  <linearGradient id="id4" gradientUnits="userSpaceOnUse" xlink:href="#id1" x1="221.52" y1="279.15" x2="255.97" y2="248.96">
  </linearGradient>
  <linearGradient id="id5" gradientUnits="userSpaceOnUse" xlink:href="#id1" x1="77.78" y1="285.53" x2="136.53" y2="230.54">
  </linearGradient>
  <linearGradient id="id6" gradientUnits="userSpaceOnUse" xlink:href="#id0" x1="125.28" y1="304.35" x2="134.79" y2="244.57">
  </linearGradient>
 </defs>
 <g id="Layer_x0020_1">
  <metadata id="CorelCorpID_0Corel-Layer"/>
  <path class="fil0" d="M89.16 273.81c-1.92,-0.78 -3.8,-1.6 -5.66,-2.47l136.27 -28.95c-1.35,1.56 -2.75,3.08 -4.18,4.56l-126.43 26.86z"/>
  <path class="fil0" d="M105.19 277.68c-2.56,-0.35 -5.14,-0.63 -7.72,-0.86 -0.73,-0.23 -1.45,-0.47 -2.18,-0.72l115.6 -24.55c-1.81,1.68 -3.68,3.3 -5.61,4.86l-100.09 21.27z"/>
  <path class="fil1" d="M102.42 278.27c-1.67,-0.45 -3.31,-0.93 -4.95,-1.45 2.58,0.23 5.16,0.51 7.72,0.86l-2.77 0.59z"/>
  <path class="fil2" d="M123.32 281.1c-2.83,-0.7 -5.68,-1.32 -8.54,-1.87l83.88 -17.81c-2.8,1.96 -5.69,3.8 -8.66,5.51l-66.68 14.17z"/>
  <path class="fil3" d="M120.74 281.64c-3.45,-0.35 -6.85,-0.86 -10.21,-1.5l4.25 -0.91c2.86,0.55 5.71,1.17 8.54,1.87l-2.58 0.54z"/>
  <path class="fil4" d="M135.03 282.21l42.28 -8.99c-13.05,5.5 -27.31,8.67 -42.28,8.99z"/>
  <path class="fil5" d="M206.56 221.3c-3.62,-3.71 -7.87,-6.78 -12.51,-9.07 -5.17,-2.56 -10.51,-3.72 -16.14,-4.77 -0.1,-0.02 -0.15,-0.08 -0.17,-0.16 -0.63,1.74 -1.2,3.52 -1.48,5.35 -0.41,2.64 -0.18,5.23 0.32,7.84 0.83,4.26 1.89,8.38 2.18,12.73 0.24,3.46 0.14,17.83 -0.18,21.35 -0.37,4.02 -3.16,15.86 -3.83,17.79 -0.2,0.59 -0.48,1.53 -1.36,2.31l-0.02 0.06c2.88,0.58 5.68,1.95 8.51,2.74 2.98,0.84 6.03,1.46 9.11,1.69 5.8,0.44 11.66,-0.53 16.68,-3.57 4.45,-2.69 8.06,-6.77 10.07,-11.58 1.07,-2.58 1.68,-5.38 1.85,-8.16 0.02,-0.38 0.02,-0.74 0.02,-1.11 0.09,-0.64 -0.35,-7.56 -0.43,-7.69 -1.76,-9.67 -5.63,-18.59 -12.62,-25.75zm-32.63 10.54c-4.97,-12.84 -16.26,-23.26 -29.64,-26.74 -6.96,-1.81 -14.18,-1.29 -20.45,2.36 -2.73,1.6 -5.16,3.65 -7.19,6.07 -2.19,2.62 -3.51,5.55 -4.85,8.65 -0.06,0.12 -0.23,0.04 -0.21,-0.07 0.02,-0.13 0.06,-0.26 0.09,-0.38l-0.16 0.02c-1.31,6.62 -0.11,10.06 -0.05,10.48 0.04,0.29 -0.34,-0.57 -0.47,-0.81 -0.3,-0.57 -0.44,-1.26 -0.52,-1.9 -1.97,-1.2 -4.48,-1.48 -6.95,-1.07 -0.15,0.02 -0.3,0.06 -0.45,0.08l0.02 0.06c-0.21,0.02 -0.43,0.04 -0.64,0.08l-0.1 0.03 0 0c-3.51,0.89 -6.31,3.07 -7.93,6.42 -1.7,3.53 -2.53,7.71 -2.76,11.6 -0.2,3.47 0.31,6.76 0.77,10.15 1.05,-0.11 2.1,-0.32 3.13,-0.68 3.42,-1.19 5.69,-4.03 8.41,-6.26 4.26,-3.5 10.04,-4.06 14.83,-1.17 2.53,1.53 4.1,3.84 5.22,6.54 1.33,3.19 2.35,6.62 5.44,8.5 3.67,1.12 7.26,2.51 10.76,4.13 5.97,2.79 11.62,6.27 16.79,10.36 0.41,0.33 0.82,0.67 1.23,1.01 1.35,-0.65 2.72,-1.24 4.03,-1.97 0.05,-0.08 0.12,-0.15 0.24,-0.16l0.06 -0.01c0.22,-0.12 0.44,-0.24 0.65,-0.37 1.95,-1.22 3.72,-2.69 5.37,-4.28 8.46,-8.14 7.89,-18.5 8.37,-21.93 0.23,-6.38 -0.72,-12.76 -3.04,-18.74zm40.78 -61.57c-7.79,-15.15 -12.55,-31.88 -23.36,-45.34 -5.14,-6.4 -11.32,-11.26 -18.77,-14.68 -6.71,-3.08 -15.04,-6.88 -15.88,-15.27 -0.01,-0.09 0.13,-0.11 0.14,-0.02 0.56,3.1 2.05,5.5 4.06,7.46 1.16,-3.69 1.98,-7.39 2.7,-11.2 0.02,-0.08 0.15,-0.08 0.15,0.01 -0.09,3.93 -1.05,7.83 -2.58,11.45 2.26,2.1 4.29,3.3 7.24,4.74 4.28,-3.37 8.45,-10.21 10.08,-16.84 0.61,-2.49 0.69,-5.29 2.13,-7.5 0.83,-1.27 1.88,-2.29 2.65,-3.64 1.11,-1.97 1.04,-6.83 1.12,-7.13 -1.79,1.88 -3.69,3.42 -5.14,5.58 -1.67,2.49 -1.95,5.06 -2.49,7.89 -0.03,0.14 -0.2,0.1 -0.22,-0.01 -0.21,-1.1 -0.17,-2.17 0.03,-3.2 0.04,-1.17 0.19,-2.33 0.43,-3.49 -1.35,1.96 -1.93,4.42 -4.05,5.78 -0.18,0.11 -0.32,-0.16 -0.15,-0.27 1.34,-0.97 2.12,-2.46 2.92,-3.92 0.12,-0.39 0.23,-0.95 0.38,-1.48 -0.57,0.92 -1.26,1.78 -2.03,2.54 -2.06,2.03 -4.73,3.41 -7.58,3.92 -5.08,0.91 -10.25,-1.13 -13.39,-5.16 0.15,1.41 0,2.82 -0.69,4.19 -1.25,2.52 -3.83,3.7 -6.43,4.34 0.35,0.28 0.56,0.73 0.55,1.28 -0.04,2.21 -2.12,3.65 -1.26,5.77 0.08,0.18 -1.3,-0.85 -2.85,-5.81 -0.76,0.73 -1.8,1.1 -2.87,0.86 -0.34,-0.07 -0.53,-0.28 -0.86,-0.11 -0.62,0.3 -1.03,1.83 -1.08,2.46 -0.08,0.87 0.12,1.69 0.49,2.46 0.48,-0.28 0.95,-0.57 1.42,-0.87 0.3,-0.19 -2.64,3.48 -13.18,5.95 -4.78,1.12 -9.55,0.1 -14.41,-0.1 -5.09,-0.21 -10.24,0.89 -13.77,4.83 -3.71,4.15 -3.75,12.16 -3.12,15.12 0.85,4 2.64,12.52 3.03,19.65 0.37,6.76 0.59,30.23 -0.9,36.86 -1.49,6.65 -5.44,11.98 -8.97,17.74 -3.89,6.34 -7.12,13.26 -11.07,19.56 -1.92,3.07 -4.15,6.06 -5.72,9.33 -1.48,3.09 -2.1,6.85 0.19,9.73l0.05 0.09c0.14,0.16 0.28,0.32 0.4,0.5 7.5,-0.84 15.04,-1.41 22.56,-1.97 0.21,-0.02 0.36,0.11 0.43,0.26 1.69,-2.37 4.23,-3.93 7.01,-4.67 -0.87,-1.76 -2.56,-2.95 -4.63,-3.02 -0.75,-0.02 -2.01,0.08 -2.15,-0.73 -3.38,2.43 -6.87,4.72 -10.4,6.86 -0.27,0.17 -0.58,-0.2 -0.31,-0.4 7.68,-5.56 15.65,-10.6 22.54,-17.19 5.77,-5.52 10.82,-11.99 13.95,-19.39 3.34,-7.91 3.73,-16.42 4.19,-24.88 0.47,-8.79 2.17,-17.49 2.39,-26.29 0.2,-8.16 -1.27,-16.62 -6.7,-23.01 -0.1,-0.12 0.09,-0.26 0.19,-0.15 6.17,6.72 7.6,16.21 7.19,25 -0.21,4.6 -0.84,9.15 -1.38,13.72 -0.56,4.76 -0.82,9.53 -1.09,14.31 -0.46,8.22 -1.43,16.28 -5.05,23.77 -2.61,5.4 -6.19,10.25 -10.3,14.6 0.11,0.13 0.17,0.27 0.28,0.51 0.32,0.69 0.64,1.39 1.03,2.05 0.28,0.47 0.69,0.93 1.01,1.43 0.26,-0.56 0.55,-1.1 0.86,-1.61l0.04 -0.04c4.46,-8.03 13.82,-13.17 22.74,-14.03 5.95,-0.57 11.47,0.79 17.02,2.85 5.91,2.18 13.46,4.88 18.73,1.88 -0.53,-0.62 -1.04,-1.27 -1.59,-1.87 -1.08,-1.14 -2.24,-2.22 -3.45,-3.22 -0.19,-0.15 -0.38,-0.29 -0.57,-0.44 -0.22,-0.22 -0.47,-0.42 -0.74,-0.58l0 -0.01c-1.97,-1.53 -4.05,-2.94 -6.26,-4.1 -0.07,-0.03 -0.02,-0.13 0.05,-0.1 2.16,0.93 4.25,2.01 6.19,3.33 -0.27,-9.98 -0.07,-20.49 3.9,-29.78 1.83,-4.32 4.5,-8.19 7.29,-11.93 3.23,-4.3 6.47,-8.56 9.51,-13 0.04,-0.06 0.14,0 0.11,0.07 -2.71,5.55 -6.78,10.25 -10.41,15.23l0.08 0.09c3.47,6.16 6.26,12.59 10.58,18.26 3.87,5.07 9.84,9.75 11.63,16.79 0.02,0.06 -0.06,0.11 -0.08,0.16 0,0.03 -1.69,2.61 -2.38,3.76 -0.79,1.32 -1.52,2.69 -2.17,4.09 -0.69,1.48 -2.52,6.27 -3.16,8.7 -0.03,0.09 0,0.16 -0.08,0.15 0.61,0.24 1.07,0.43 1.65,0.68 5.04,2.18 9.73,5.33 13.78,9.19 1.38,-1.98 3.02,-3.8 4.55,-5.66 1.76,-2.13 3.52,-4.25 5.28,-6.38 2.98,-3.61 6.19,-7.87 9.44,-11.24l0 -0.05c0.64,-9.9 -6.35,-17.69 -10.64,-26.05zm-78 -75.4c-0.21,-0.45 -0.36,-0.94 -0.44,-1.43 -0.03,-0.23 -0.05,-0.43 -0.05,-0.66 -0.01,-0.41 0.14,-0.48 -0.16,-0.47 -0.23,0.01 -0.42,0.37 -0.68,0.38 -0.39,0.01 -0.5,-0.22 -0.74,-0.45 -0.27,-0.26 -0.48,-0.54 -0.73,-0.78 -0.36,1.31 -1.06,2.5 -1.65,3.71 -0.63,1.31 -1.08,2.72 -1.71,4.02 2.45,-0.73 4.82,-1.72 7.05,-2.98 -0.36,-0.38 -0.66,-0.84 -0.89,-1.34z"/>
  <path class="fil6" d="M178.81 248.92l-0.02 0.66c0.02,-0.04 0.04,-0.08 0.05,-0.13l0.03 -0.09c0.07,-0.15 0.03,-0.31 -0.06,-0.44zm-4.37 24.28c-0.16,0.37 -0.39,0.78 -0.75,1.17 0.09,0.02 0.19,0.01 0.28,-0.02 0.35,-0.11 0.56,-0.4 0.58,-0.76 0.01,-0.14 -0.03,-0.28 -0.11,-0.39zm-63.94 -43.57l-0.02 -0.11c-0.08,-0.05 -0.15,-0.1 -0.23,-0.14 -0.02,0.12 0.04,0.25 0.2,0.25 0.02,0 0.03,0 0.05,0zm31.03 38.92c0.27,0.14 0.55,0.28 0.83,0.42 0.05,-0.14 0.09,-0.3 0.14,-0.43 0.08,-0.24 -0.1,-0.5 -0.32,-0.57 -0.24,-0.08 -0.5,0.09 -0.57,0.32 -0.03,0.09 -0.06,0.18 -0.08,0.26zm16.99 10.62c0.26,-0.12 0.52,-0.25 0.79,-0.37 -0.28,-0.2 -0.79,-0.08 -0.79,0.37zm3.71 -1.81l0.05 -0.03c0.05,-0.08 0.12,-0.15 0.23,-0.16 0.02,-0.02 0.04,-0.05 0.06,-0.08l0.05 -0.09c0.07,-0.07 0.12,-0.15 0.17,-0.23 0.24,-0.33 0.02,-0.8 -0.31,-0.94 -0.38,-0.16 -0.78,0.05 -0.9,0.43 -0.02,0.06 -0.04,0.13 -0.05,0.2l-0.01 0.02c-0.14,0.31 -0.08,0.64 0.22,0.83 0.15,0.09 0.33,0.1 0.49,0.05zm20.91 -160.65c-0.17,-0.13 -0.34,-0.26 -0.5,-0.39 -0.09,0.19 0.01,0.47 0.28,0.47 0.09,0 0.16,-0.03 0.22,-0.08zm-6.73 -20.23c0.17,-0.35 0.32,-0.71 0.48,-1.08 -0.14,0.06 -0.26,0.15 -0.35,0.28l-0.02 0.03 -0.01 0.02c-0.19,0.23 -0.24,0.51 -0.1,0.75zm-78.29 45.15c0.01,0.21 0.02,0.43 0.03,0.66 0.02,-0.01 0.05,-0.02 0.07,-0.04l0.05 -0.03c0.25,-0.17 0.17,-0.58 -0.15,-0.59zm-3.76 83.21c-0.22,0.16 -0.45,0.32 -0.68,0.47 0.03,0.21 0.18,0.4 0.45,0.4 0.51,0 0.59,-0.67 0.23,-0.87zm16.03 -14.72c0.26,-0.28 0.53,-0.58 0.79,-0.87 -0.05,-0.01 -0.09,-0.01 -0.14,-0.01 -0.38,0 -0.66,0.31 -0.68,0.68 0,0.07 0.01,0.14 0.03,0.2zm13.38 -25.41c0.03,-0.19 0.06,-0.37 0.1,-0.56 -0.08,0.07 -0.13,0.17 -0.13,0.3l0.01 0.15c0,0.04 0.01,0.08 0.02,0.11zm3.81 -40.26c0,-0.2 0.01,-0.4 0.02,-0.6 -0.11,-0.24 -0.37,-0.41 -0.64,-0.41 -0.39,0 -0.67,0.32 -0.69,0.7 -0.02,0.37 0.33,0.69 0.69,0.69 0.28,0 0.5,-0.16 0.62,-0.38zm-2.97 39.91c-0.03,0.17 -0.07,0.34 -0.1,0.51 0.06,-0.08 0.1,-0.17 0.1,-0.27l0 -0.15c0,-0.03 0,-0.06 0,-0.09zm-12.89 25.44c-0.24,0.27 -0.48,0.54 -0.73,0.81 0.02,0 0.04,0 0.05,0 0.39,0 0.67,-0.32 0.69,-0.69 0,-0.04 0,-0.08 -0.01,-0.12zm38.61 -8.58c0.27,0.08 0.54,0.17 0.8,0.26 0.44,-0.26 0.34,-1.09 -0.29,-1.09 -0.48,0 -0.65,0.49 -0.51,0.83zm16.9 -25.85c0.04,-0.2 0.09,-0.4 0.13,-0.6l-0.05 0.01c-0.27,0.05 -0.3,0.47 -0.08,0.59zm51.65 28.56l0.39 -0.48 -0.02 -0.01c-0.08,-0.06 -0.15,-0.06 -0.22,0l-0.05 0.03c-0.17,0.11 -0.19,0.33 -0.1,0.46zm0.12 -26.26l-0.31 -0.51c-0.37,0.05 -0.35,0.64 0.05,0.64 0.12,0 0.21,-0.05 0.26,-0.13zm-36.08 56.71c0.24,0 0.24,-0.38 0,-0.38 -0.24,0 -0.24,0.38 0,0.38zm-0.6 37.64c-0.49,0 -0.49,0.76 0,0.76 0.5,0 0.5,-0.76 0,-0.76zm0.6 -12.29c-0.42,0 -0.42,0.66 0,0.66 0.42,0 0.42,-0.66 0,-0.66zm-0.6 -130.54c0.5,0 0.5,-0.77 0,-0.77 -0.49,0 -0.49,0.77 0,0.77zm1.96 6.46c0.09,-0.05 0.14,-0.1 0.2,-0.18l0 -0.2c-0.06,-0.08 -0.11,-0.13 -0.2,-0.18 -0.22,-0.11 -0.49,0.03 -0.49,0.28 0,0.25 0.27,0.39 0.49,0.28zm2.85 118.81c-0.29,-0.31 -0.77,0.17 -0.46,0.46 0.1,0.09 0.19,0.15 0.32,0.19 0.19,0.06 0.39,-0.14 0.33,-0.34 -0.04,-0.13 -0.1,-0.21 -0.19,-0.31zm-0.93 -90.9l0.04 -0.13c0.08,-0.35 -0.17,-0.7 -0.53,-0.7 -0.37,0 -0.62,0.35 -0.53,0.7l0.03 0.13c0.12,0.49 0.87,0.49 0.99,0zm-1.89 -11.72c-0.17,0 -0.28,0.15 -0.34,0.28 -0.06,0.11 -0.08,0.2 -0.1,0.32 -0.01,0.08 -0.01,0.16 -0.02,0.24 -0.03,0.26 0.23,0.46 0.46,0.47 0.24,0.01 0.5,-0.22 0.47,-0.47 -0.01,-0.08 -0.02,-0.16 -0.03,-0.24 -0.01,-0.12 -0.04,-0.21 -0.09,-0.32 -0.06,-0.13 -0.18,-0.28 -0.35,-0.28zm2.19 68.93c0.21,0 0.37,-0.13 0.45,-0.3 0.15,-0.15 0.21,-0.36 0.17,-0.6 -0.03,-0.15 -0.11,-0.25 -0.2,-0.37 -0.19,-0.23 -0.64,-0.23 -0.83,0 -0.1,0.12 -0.18,0.22 -0.2,0.37 -0.04,0.24 0.02,0.45 0.16,0.6 0.08,0.17 0.23,0.29 0.45,0.3zm0.6 8.44c0.12,-0.38 -0.14,-0.83 -0.53,-0.93 -0.23,-0.05 -0.42,-0.03 -0.6,0.07 -0.03,-0.01 -0.07,-0.02 -0.13,-0.03 -0.29,-0.05 -0.55,0.08 -0.65,0.37 -0.09,0.28 0.11,0.56 0.37,0.65 0.06,0.02 0.1,0.03 0.13,0.05 0.11,0.16 0.26,0.29 0.48,0.35 0.41,0.11 0.81,-0.14 0.93,-0.53zm-8.16 -20.87c0.28,0 0.28,-0.44 0,-0.44 -0.28,0 -0.28,0.44 0,0.44zm2.19 -84.7c-0.24,0 -0.24,0.38 0,0.38 0.24,0 0.24,-0.38 0,-0.38zm0 143.6c-0.24,0 -0.24,0.37 0,0.37 0.24,0 0.24,-0.37 0,-0.37zm-1.89 7.68l0.03 0.14c0.05,0.27 0.48,0.27 0.54,0l0.03 -0.14c0.04,-0.2 -0.09,-0.39 -0.3,-0.39 -0.21,0 -0.34,0.19 -0.3,0.39zm-0.1 -3.26c-0.45,0 -0.44,0.69 0,0.69 0.45,0 0.44,-0.69 0,-0.69zm4.38 -132.2c0.07,0.39 0.72,0.39 0.79,0l0.01 -0.04c0.15,-0.3 -0.03,-0.67 -0.4,-0.69 -0.19,-0.01 -0.36,0.13 -0.43,0.29 -0.06,0.14 -0.05,0.28 0.02,0.41l0.01 0.03zm-4.38 -11.4c-0.45,0 -0.44,0.69 0,0.69 0.45,0 0.44,-0.69 0,-0.69zm-2.62 4.89c0.09,-0.12 0.14,-0.21 0.15,-0.37 0,-0.05 -0.06,-0.12 -0.12,-0.11 -0.15,0.01 -0.24,0.05 -0.36,0.15 -0.22,0.19 0.13,0.55 0.33,0.33zm2.72 -1.63l0.03 0.14c0.05,0.27 0.48,0.27 0.54,0l0.03 -0.14c0.04,-0.19 -0.09,-0.39 -0.3,-0.39 -0.21,0 -0.34,0.2 -0.3,0.39zm0.3 3.52c-0.43,0 -0.43,0.66 0,0.66 0.42,0 0.42,-0.66 0,-0.66zm2.98 109.82c0.41,0 0.41,-0.64 0,-0.64 -0.41,0 -0.41,0.64 0,0.64zm10.75 -5.36c-0.34,0 -0.34,0.53 0,0.53 0.34,0 0.33,-0.53 0,-0.53zm0.79 -107.85c-0.69,0 -0.69,1.07 0,1.07 0.7,0 0.69,-1.07 0,-1.07zm-0.59 51.43c0.29,0 0.29,-0.46 0,-0.46 -0.3,0 -0.3,0.46 0,0.46zm2.08 -26.4c0.21,0.08 0.49,0.17 0.68,-0.03 0.19,-0.19 0.1,-0.42 -0.06,-0.58 -0.08,-0.09 -0.17,-0.15 -0.27,-0.22 -0.24,-0.14 -0.55,-0.02 -0.65,0.22 -0.11,0.27 0.05,0.51 0.3,0.61zm-4.81 83.88c0.01,-0.35 -0.31,-0.65 -0.66,-0.65 -0.36,0 -0.63,0.3 -0.65,0.65 -0.01,0.35 0.31,0.65 0.65,0.65 0.37,0 0.64,-0.3 0.66,-0.65zm6.31 0.58c0.23,0 0.23,-0.36 0,-0.36 -0.24,0 -0.24,0.36 0,0.36zm-1.67 10.85l0.14 0.02c0.2,0.03 0.4,-0.09 0.4,-0.31 0,-0.22 -0.2,-0.34 -0.4,-0.3l-0.14 0.02c-0.28,0.05 -0.28,0.52 0,0.57zm0.08 -19.75c0.3,0 0.3,-0.47 0,-0.47 -0.3,0 -0.3,0.47 0,0.47zm2.19 -54.33c-0.48,0 -0.48,0.73 0,0.73 0.47,0 0.47,-0.73 0,-0.73zm-1.64 30.14c0.12,0.43 0.76,0.43 0.88,0l0.04 -0.14c0.09,-0.31 -0.16,-0.63 -0.48,-0.63 -0.32,0 -0.56,0.32 -0.48,0.63l0.04 0.14zm-4.73 62.9c-0.33,0 -0.33,0.51 0,0.51 0.33,0 0.33,-0.51 0,-0.51zm1.39 -126.79c-0.47,0 -0.47,0.73 0,0.73 0.48,0 0.48,-0.73 0,-0.73zm-4.78 104.5c-0.07,0 -0.07,0.12 0,0.12 0.08,0 0.08,-0.12 0,-0.12zm0.8 -2.48c-0.46,0 -0.45,0.7 0,0.7 0.46,0 0.46,-0.7 0,-0.7zm5.37 29.07c-0.69,0 -0.69,1.07 0,1.07 0.7,0 0.69,-1.07 0,-1.07zm-2.38 -20.47c-0.51,0 -0.88,0.42 -0.9,0.9 -0.03,0.49 0.43,0.9 0.9,0.9 0.5,0 0.87,-0.41 0.9,-0.9 0.02,-0.48 -0.43,-0.9 -0.9,-0.9zm1.79 -75.52c0.24,0 0.24,-0.38 0,-0.38 -0.25,0 -0.25,0.38 0,0.38zm-0.2 -1.67c0.91,0 0.91,-1.42 0,-1.42 -0.92,0 -0.91,1.42 0,1.42zm-2.39 49.54c0.39,0 0.39,-0.6 0,-0.6 -0.39,0 -0.39,0.6 0,0.6zm1.76 -65.84l0 0.15c-0.02,0.56 0.88,0.56 0.86,0l0 -0.15c-0.01,-0.23 -0.19,-0.43 -0.43,-0.43 -0.24,0 -0.42,0.2 -0.43,0.43zm0.03 85.49c0.32,0 0.32,-0.5 0,-0.5 -0.32,0 -0.32,0.5 0,0.5zm1.2 -105.73c-0.38,0 -0.38,0.59 0,0.59 0.37,0 0.37,-0.59 0,-0.59zm-2.59 -13.7c-0.33,0 -0.33,0.52 0,0.52 0.33,0 0.33,-0.52 0,-0.52zm-0.35 122.48l-0.16 -0.07c-0.12,-0.06 -0.27,0 -0.27,0.15 0,0.15 0.15,0.21 0.27,0.16l0.16 -0.07c0.06,-0.04 0.06,-0.14 0,-0.17zm-28.51 -24.85c0.44,0 0.44,-0.68 0,-0.68 -0.43,0 -0.43,0.68 0,0.68zm1.56 -71.15c0.44,0.02 0.44,-0.7 0,-0.68l-0.15 0.01c-0.43,0.02 -0.43,0.64 0,0.66l0.15 0.01zm-2.86 86.64l-0.17 0 -0.1 0.1c-0.17,0.16 -0.04,0.45 0.18,0.45 0.23,0 0.35,-0.29 0.19,-0.45l-0.1 -0.1zm1.3 -82.04c-0.28,0 -0.28,0.45 0,0.45 0.29,0 0.29,-0.45 0,-0.45zm-1.82 29.97c0.07,0.15 0.22,0.26 0.39,0.26 0.19,0 0.36,-0.13 0.41,-0.31 0.05,-0.2 -0.04,-0.37 -0.19,-0.48l-0.05 -0.03c-0.09,-0.06 -0.25,-0.06 -0.34,0l-0.04 0.03c-0.18,0.12 -0.26,0.33 -0.18,0.53zm0.64 -19.4l0.01 -0.15c0.03,-0.28 -0.47,-0.28 -0.44,0l0.02 0.15c0.02,0.27 0.38,0.26 0.41,0zm-0.21 21.74c0.42,0 0.42,-0.65 0,-0.65 -0.41,0 -0.41,0.65 0,0.65zm-0.24 -23.51c0.21,0.09 0.41,0.06 0.59,-0.05 0.24,-0.1 0.4,-0.29 0.41,-0.56 0.01,-0.28 -0.2,-0.48 -0.44,-0.57 -0.2,-0.11 -0.43,-0.13 -0.64,0 -0.21,0.12 -0.32,0.34 -0.33,0.57 -0.01,0.27 0.17,0.51 0.41,0.61zm5.61 -22.89c-0.74,0 -0.74,1.16 0,1.16 0.75,0 0.75,-1.16 0,-1.16zm-5.28 -47.46l-0.17 0 -0.1 0.1c-0.17,0.16 -0.04,0.45 0.18,0.45 0.23,0 0.35,-0.29 0.19,-0.45l-0.1 -0.1zm-4.99 8.74l0.17 0 0.1 -0.1c0.16,-0.16 0.04,-0.45 -0.18,-0.45 -0.23,0 -0.35,0.29 -0.19,0.45l0.1 0.1zm-2.86 86.64c-0.44,-0.02 -0.44,0.71 0,0.68l0.15 0c0.43,-0.03 0.43,-0.65 0,-0.67l-0.15 -0.01zm2.99 -54.68c-0.49,0 -0.49,0.76 0,0.76 0.48,0 0.48,-0.76 0,-0.76zm0.38 20.11c-0.06,-0.15 -0.21,-0.26 -0.38,-0.26 -0.19,0 -0.36,0.14 -0.41,0.31 -0.06,0.2 0.03,0.38 0.19,0.48l0.04 0.03c0.1,0.07 0.25,0.07 0.35,0l0.04 -0.03c0.17,-0.12 0.26,-0.32 0.17,-0.53zm-0.18 21.17c-0.21,-0.09 -0.41,-0.05 -0.59,0.05 -0.24,0.1 -0.4,0.29 -0.41,0.56 -0.01,0.28 0.2,0.48 0.44,0.57 0.2,0.11 0.42,0.13 0.64,0 0.21,-0.12 0.32,-0.34 0.33,-0.57 0.01,-0.26 -0.18,-0.51 -0.41,-0.61zm-0.24 -23.5c-0.42,0 -0.42,0.64 0,0.64 0.41,0 0.41,-0.64 0,-0.64zm-0.21 21.73l-0.01 0.15c-0.03,0.28 0.47,0.28 0.44,0l-0.02 -0.15c-0.03,-0.26 -0.38,-0.26 -0.41,0zm1.88 77.51c-0.1,0.12 -0.15,0.25 -0.22,0.39 -0.1,0.23 0.23,0.43 0.35,0.2 0.07,-0.13 0.15,-0.26 0.18,-0.4 0.05,-0.17 -0.19,-0.34 -0.31,-0.19zm0.13 -143.01c0.07,-0.13 0.15,-0.25 0.18,-0.4 0.05,-0.17 -0.19,-0.33 -0.31,-0.18 -0.1,0.12 -0.15,0.24 -0.22,0.38 -0.1,0.23 0.23,0.43 0.35,0.2zm3.72 22.32c0.27,0.18 0.67,0.06 0.83,-0.21l0.05 -0.1c0.07,-0.07 0.12,-0.14 0.17,-0.22 0.24,-0.33 0.02,-0.8 -0.31,-0.94 -0.38,-0.16 -0.78,0.05 -0.9,0.43 -0.02,0.06 -0.04,0.13 -0.05,0.19l-0.01 0.03c-0.14,0.31 -0.08,0.63 0.22,0.82zm1.54 64.56c-0.19,0.07 -0.29,0.18 -0.36,0.36 -0.07,0.18 -0.11,0.36 -0.05,0.55 0.13,0.39 0.54,0.65 0.95,0.54 0.45,-0.13 0.68,-0.63 0.51,-1.05 -0.19,-0.43 -0.63,-0.55 -1.05,-0.4zm-4.76 -62.69c0,0.37 -0.06,0.78 0.14,1.12 0.15,0.26 0.54,0.26 0.69,0 0.19,-0.34 0.13,-0.75 0.14,-1.12 0,-0.63 -0.98,-0.63 -0.97,0zm0.71 98.72c-0.07,0.13 -0.15,0.25 -0.19,0.4 -0.04,0.17 0.19,0.34 0.32,0.18 0.1,-0.12 0.15,-0.24 0.21,-0.38 0.11,-0.23 -0.22,-0.43 -0.34,-0.2zm0 -143.6c-0.07,0.13 -0.15,0.26 -0.19,0.4 -0.04,0.17 0.19,0.34 0.32,0.19 0.1,-0.12 0.15,-0.25 0.21,-0.38 0.11,-0.23 -0.22,-0.44 -0.34,-0.21zm1.54 52.37c-0.02,0.06 -0.03,0.12 -0.04,0.19 0,0.05 -0.01,0.11 -0.02,0.17l0.02 0.09 -0.04 0.12c-0.01,0.06 -0.03,0.12 -0.04,0.18 -0.1,0.44 0.56,0.62 0.67,0.19 0.03,-0.11 0.05,-0.23 0.1,-0.33 0.05,-0.13 0.12,-0.25 0.15,-0.39 0.04,-0.22 -0.06,-0.44 -0.29,-0.51 -0.22,-0.06 -0.44,0.08 -0.51,0.29zm11.14 10.74c0.06,0.24 0.33,0.39 0.58,0.32 0.26,-0.07 0.37,-0.32 0.33,-0.57 -0.03,-0.15 -0.06,-0.3 -0.07,-0.45 -0.02,-0.22 -0.03,-0.41 -0.15,-0.6 -0.12,-0.19 -0.35,-0.3 -0.57,-0.23 -0.24,0.06 -0.34,0.26 -0.37,0.48 -0.03,0.21 0.05,0.37 0.11,0.56 0.06,0.16 0.09,0.32 0.14,0.49zm1.14 99.91l0.14 0.04c0.3,0.07 0.61,-0.15 0.61,-0.47 0,-0.31 -0.31,-0.53 -0.61,-0.46l-0.14 0.04c-0.42,0.1 -0.42,0.75 0,0.85zm-0.08 -132.9c0.73,0 0.73,-1.14 0,-1.14 -0.73,0 -0.73,1.14 0,1.14zm0.9 8.41c-0.28,-0.04 -0.54,0.07 -0.71,0.28 -0.14,0.12 -0.23,0.28 -0.24,0.49 -0.01,0.2 0.1,0.37 0.24,0.48 0.19,0.24 0.52,0.37 0.81,0.27 0.35,-0.11 0.56,-0.39 0.58,-0.75 0.02,-0.39 -0.31,-0.72 -0.68,-0.77zm-0.9 134.04c-0.73,0 -0.73,1.14 0,1.14 0.73,0 0.73,-1.14 0,-1.14zm5.37 -6.03l0 0.07c0.08,0.02 0.14,0.05 0.22,0l0 -0.07c-0.08,-0.05 -0.14,-0.03 -0.22,0zm0 -143.59l0 0.06c0.08,0.03 0.14,0.06 0.22,0.01l0 -0.08c-0.08,-0.05 -0.14,-0.02 -0.22,0.01zm1.6 46.8c0.27,0 0.27,-0.42 0,-0.42 -0.28,0 -0.27,0.42 0,0.42zm-2.38 108.14l-0.14 -0.03c-0.17,-0.03 -0.34,0.08 -0.34,0.26 0,0.18 0.17,0.29 0.34,0.25l0.14 -0.03c0.22,-0.05 0.22,-0.4 0,-0.45zm0.07 4.08c-0.08,-0.06 -0.19,-0.08 -0.26,0l-0.07 0.04c-0.06,0.04 -0.06,0.14 0,0.17l0.07 0.04c0.07,0.08 0.18,0.06 0.26,0l0.02 -0.02c0.06,-0.05 0.06,-0.16 0,-0.21l-0.02 -0.02zm-12.02 -104.49c-0.8,0 -0.8,1.24 0,1.24 0.8,0 0.8,-1.24 0,-1.24zm11.95 -43.18l-0.14 -0.03c-0.17,-0.04 -0.34,0.07 -0.34,0.25 0,0.18 0.17,0.29 0.34,0.26l0.14 -0.03c0.22,-0.06 0.22,-0.4 0,-0.45zm0.07 4.07c-0.08,-0.06 -0.19,-0.07 -0.26,0l-0.07 0.05c-0.06,0.03 -0.06,0.13 0,0.17l0.07 0.04c0.07,0.08 0.18,0.06 0.26,0l0.02 -0.02c0.06,-0.05 0.06,-0.17 0,-0.21l-0.02 -0.03zm-12.62 138.46c-0.63,0 -0.63,0.98 0,0.98 0.63,0 0.63,-0.98 0,-0.98zm3.2 -21.54c0,0.11 0,0.23 0,0.34 -0.01,0.49 0.77,0.49 0.77,0 -0.01,-0.11 -0.01,-0.23 -0.01,-0.34 -0.01,-0.49 -0.75,-0.49 -0.76,0zm0 -143.6c0,0.12 0,0.23 0,0.35 -0.01,0.49 0.77,0.49 0.77,0 -0.01,-0.12 -0.01,-0.23 -0.01,-0.35 -0.01,-0.48 -0.75,-0.48 -0.76,0zm-3.2 21.55c-0.63,0 -0.63,0.98 0,0.98 0.63,0 0.63,-0.98 0,-0.98zm1.19 79.74c0.18,0 0.18,-0.27 0,-0.27 -0.17,0 -0.17,0.27 0,0.27zm3.79 25.07c-0.24,-0.01 -0.49,0.22 -0.47,0.47l0.01 0.15c0.02,0.25 0.19,0.44 0.46,0.45 0.25,0.01 0.43,-0.22 0.45,-0.45l0.01 -0.15c0.02,-0.26 -0.23,-0.46 -0.46,-0.47zm-0.6 -66.74c0.48,0 0.48,-0.75 0,-0.75 -0.48,0 -0.48,0.75 0,0.75zm0.6 -76.85c-0.24,-0.02 -0.49,0.22 -0.47,0.46l0.01 0.15c0.02,0.26 0.19,0.44 0.46,0.46 0.25,0.01 0.43,-0.22 0.45,-0.46l0.01 -0.15c0.02,-0.26 -0.23,-0.45 -0.46,-0.46zm51.98 113.06c-0.26,-0.1 -0.26,0.41 0,0.31 0.06,-0.03 0.12,-0.05 0.17,-0.08 0.08,-0.03 0.08,-0.13 0,-0.16 -0.05,-0.02 -0.11,-0.05 -0.17,-0.07zm1.74 -7.38l0.15 -0.02c0.23,-0.01 0.42,-0.17 0.42,-0.41 0,-0.23 -0.19,-0.39 -0.42,-0.41l-0.15 -0.01c-0.23,-0.02 -0.42,0.21 -0.42,0.42 0,0.22 0.2,0.45 0.42,0.43zm-20.09 -37.34l0 -0.04 0 0.04zm0.19 106.65c0.35,0 0.52,-0.31 0.48,-0.62 -0.03,-0.18 -0.04,-0.37 -0.19,-0.49 -0.19,-0.15 -0.39,-0.15 -0.57,0 -0.16,0.12 -0.16,0.31 -0.19,0.49 -0.02,0.18 -0.01,0.34 0.13,0.48 0.09,0.09 0.22,0.14 0.34,0.14zm-4.37 -24.34c-0.48,0 -0.48,0.74 0,0.74 0.47,0 0.47,-0.74 0,-0.74zm0 29.14c-0.12,0 -0.12,0.17 0,0.17 0.11,0 0.11,-0.17 0,-0.17zm5.17 -39.6c-0.37,0 -0.37,0.57 0,0.57 0.37,0 0.37,-0.57 0,-0.57zm-0.4 43.09c-0.22,0 -0.22,0.35 0,0.35 0.23,0 0.23,-0.35 0,-0.35zm1.2 -106.84c0.47,0 0.47,-0.72 0,-0.72 -0.47,0 -0.47,0.72 0,0.72zm1.99 11.64c-0.03,-0.07 -0.05,-0.14 -0.09,-0.2 -0.05,-0.08 -0.17,-0.08 -0.22,0 -0.04,0.06 -0.07,0.13 -0.09,0.2 -0.12,0.34 0.51,0.34 0.4,0zm-3.78 91.93c-0.35,0 -0.35,0.53 0,0.53 0.34,0 0.34,-0.53 0,-0.53zm-47.49 -16.16l0.17 0 0.1 -0.1c0.16,-0.16 0.04,-0.44 -0.18,-0.44 -0.23,0 -0.35,0.28 -0.19,0.44l0.1 0.1zm49.68 6.66c0.23,0 0.23,-0.37 0,-0.37 -0.24,0 -0.24,0.37 0,0.37zm-7.17 -60.21c-0.42,0 -0.42,0.65 0,0.65 0.42,0 0.42,-0.65 0,-0.65zm-2.56 25.38c0.12,-0.29 -0.06,-0.7 -0.41,-0.7 -0.06,0 -0.12,0.01 -0.17,0.04l-0.06 -0.03c-0.2,-0.05 -0.37,0.08 -0.44,0.26 -0.06,0.14 -0.04,0.32 0.04,0.46 0.08,0.13 0.25,0.21 0.33,0.26 0.28,0.19 0.6,-0.02 0.71,-0.29zm1.52 -79.3c0.01,-0.22 -0.14,-0.43 -0.34,-0.51 -0.19,-0.08 -0.46,-0.05 -0.6,0.12l-0.03 0.02c-0.12,0.08 -0.21,0.2 -0.21,0.37 0,0.17 0.09,0.29 0.21,0.36l0.03 0.03c0.15,0.19 0.47,0.2 0.67,0.09 0.17,-0.1 0.27,-0.29 0.27,-0.48zm3.03 44.94c-0.71,0 -0.71,1.1 0,1.1 0.71,0 0.71,-1.1 0,-1.1zm2.08 61.95c-0.12,-0.3 -0.35,-0.5 -0.69,-0.52 -0.33,-0.01 -0.57,0.24 -0.68,0.52l-0.02 0.05c-0.08,0.21 0,0.52 0.16,0.68 0.09,0.21 0.28,0.36 0.54,0.37 0.26,0.01 0.45,-0.15 0.55,-0.36 0.16,-0.16 0.24,-0.48 0.16,-0.69l-0.02 -0.05zm-2.49 6.47c-0.17,-0.15 -0.45,-0.06 -0.45,0.19 0,0.24 0.28,0.33 0.45,0.18l0.11 -0.09c0.04,-0.06 0.04,-0.13 0,-0.19l-0.11 -0.09zm1.91 10.17l-0.14 0.03c-0.14,0.03 -0.14,0.24 0,0.27l0.14 0.03c0.27,0.06 0.27,-0.39 0,-0.33zm-0.28 -112.55c-0.23,-0.47 -1.01,-0.47 -1.24,0l-0.02 0.03c-0.19,0.25 -0.21,0.62 -0.05,0.88 0.14,0.25 0.41,0.39 0.69,0.4 0.65,0.03 1.01,-0.8 0.63,-1.29l-0.01 -0.02zm-0.22 26.85c0.39,0 0.39,-0.6 0,-0.6 -0.39,0 -0.39,0.6 0,0.6zm-0.2 90.42c0.48,0 0.48,-0.75 0,-0.75 -0.49,0 -0.49,0.75 0,0.75zm11.14 -11.52c-0.52,0 -0.52,0.8 0,0.8 0.52,0 0.52,-0.8 0,-0.8zm0.8 -50.55c-0.17,-0.17 -0.49,-0.04 -0.49,0.2 0,0.25 0.31,0.38 0.49,0.21l0.1 -0.11c0.05,-0.06 0.05,-0.13 0,-0.19l-0.1 -0.11zm-8.16 4.38l0.15 -0.01c0.23,-0.02 0.23,-0.36 0,-0.37l-0.15 -0.01c-0.25,-0.01 -0.25,0.4 0,0.39zm7.44 -24.52c-0.1,0.03 -0.17,0.08 -0.25,0.15 -0.18,0.13 -0.24,0.37 -0.07,0.54 0.17,0.17 0.41,0.1 0.54,-0.07 0.06,-0.08 0.11,-0.15 0.15,-0.26 0.07,-0.2 -0.16,-0.43 -0.37,-0.36zm2.97 64c-0.2,0.04 -0.29,0.18 -0.4,0.33 -0.23,0.3 0.23,0.76 0.53,0.52 0.15,-0.11 0.28,-0.2 0.32,-0.39 0.07,-0.29 -0.17,-0.52 -0.45,-0.46zm-1.46 -46.01c-0.21,0 -0.21,0.33 0,0.33 0.22,0 0.22,-0.33 0,-0.33zm-1.39 28.15c-0.05,-0.06 -0.1,-0.11 -0.15,-0.17 -0.3,-0.33 -0.82,0.19 -0.49,0.49 0.05,0.05 0.11,0.1 0.17,0.15 0.31,0.29 0.75,-0.15 0.47,-0.47zm-6.17 31.12c0.27,0 0.26,-0.41 0,-0.41 -0.26,0 -0.26,0.41 0,0.41zm1.99 -52.92c0.01,0.15 0.06,0.26 0.14,0.37 0.11,0.23 0.33,0.36 0.6,0.3 0.16,-0.04 0.26,-0.15 0.32,-0.29 0.06,-0.07 0.12,-0.15 0.15,-0.25l0.01 -0.04 0.03 -0.09 0.01 -0.03c0.1,-0.35 -0.18,-0.67 -0.53,-0.69 -0.21,-0.01 -0.4,0.11 -0.55,0.25 -0.13,0.13 -0.18,0.29 -0.18,0.47zm0.4 -8.58c-0.27,0 -0.27,0.42 0,0.42 0.27,0 0.27,-0.42 0,-0.42zm-0.4 31.88c-0.47,0 -0.47,0.73 0,0.73 0.48,0 0.47,-0.73 0,-0.73zm-1.19 -61.4c-0.46,0 -0.46,0.71 0,0.71 0.45,0 0.45,-0.71 0,-0.71zm2.89 69.33c0.01,-0.38 -0.34,-0.7 -0.7,-0.7 -0.4,0 -0.69,0.32 -0.7,0.7 -0.02,0.37 0.33,0.7 0.7,0.7 0.39,0 0.68,-0.32 0.7,-0.7zm-3.49 16.5c-0.27,0 -0.27,0.42 0,0.42 0.27,0 0.27,-0.42 0,-0.42zm0.99 7.8l0 -0.05 0 0.05zm-1.09 7.3c0.33,-0.05 0.52,-0.25 0.64,-0.56 0.18,-0.45 -0.27,-0.99 -0.74,-0.97 -0.42,0.02 -0.77,0.34 -0.77,0.77 0,0.46 0.42,0.82 0.87,0.76zm4.7 -75.81c-0.28,-0.29 -0.74,0.17 -0.45,0.45 0.05,0.05 0.09,0.1 0.15,0.13 0.06,0.04 0.11,0.03 0.17,0.04 0.18,0.05 0.35,-0.12 0.3,-0.3 -0.01,-0.06 -0.01,-0.11 -0.04,-0.17l-0.13 -0.15zm-1.42 -35.22c-0.07,0.25 0.09,0.49 0.32,0.57 0.26,0.08 0.49,-0.1 0.57,-0.33 0.11,-0.28 0.27,-0.58 0.11,-0.88 -0.12,-0.22 -0.38,-0.25 -0.59,-0.15 -0.28,0.13 -0.33,0.52 -0.41,0.79zm-101.62 82.42c0.02,-0.38 -0.33,-0.7 -0.7,-0.7 -0.39,0 -0.68,0.32 -0.7,0.7 -0.01,0.38 0.34,0.7 0.7,0.7 0.39,0 0.68,-0.32 0.7,-0.7zm-8.34 -116.19c0.01,-0.11 0.02,-0.23 0.02,-0.34 0.03,-0.44 -0.7,-0.44 -0.68,0 0.01,0.11 0.01,0.23 0.02,0.34 0.02,0.42 0.62,0.42 0.64,0zm0.88 4.84c-0.26,0 -0.26,0.39 0,0.39 0.25,0 0.25,-0.39 0,-0.39zm-1 81.16c-0.44,0 -0.44,0.68 0,0.68 0.44,0 0.44,-0.68 0,-0.68zm-1.1 -76.79l-0.02 -0.15c-0.03,-0.35 -0.51,-0.35 -0.55,0l-0.01 0.15c-0.04,0.37 0.61,0.37 0.58,0zm1.7 51.93c-0.42,0 -0.42,0.65 0,0.65 0.42,0 0.42,-0.65 0,-0.65zm2.58 -51.3c-0.21,0 -0.21,0.33 0,0.33 0.22,0 0.22,-0.33 0,-0.33zm1.69 71.73c0.01,-0.22 -0.16,-0.43 -0.36,-0.48 -0.22,-0.06 -0.43,0.04 -0.56,0.23l-0.03 0.04c-0.07,0.11 -0.07,0.3 0,0.41l0.03 0.04c0.28,0.41 0.9,0.26 0.92,-0.24zm-0.39 -54.03c-0.06,0.09 -0.11,0.16 -0.15,0.26 -0.07,0.21 0.16,0.44 0.37,0.36 0.1,-0.03 0.17,-0.08 0.25,-0.14 0.17,-0.14 0.24,-0.38 0.07,-0.55 -0.17,-0.17 -0.41,-0.1 -0.54,0.07zm0.3 73.53c0.51,0 0.51,-0.8 0,-0.8 -0.52,0 -0.52,0.8 0,0.8zm-2.62 -32.44c0.01,0.33 -0.1,1.26 0.43,1.26 0.53,0 0.41,-0.92 0.42,-1.26 0.02,-0.55 -0.86,-0.55 -0.85,0zm-0.27 -77.08c-0.19,-0.05 -0.39,0.07 -0.44,0.25 -0.08,0.26 -0.2,0.52 -0.09,0.79 0.07,0.14 0.27,0.17 0.4,0.1 0.23,-0.13 0.29,-0.46 0.38,-0.7 0.07,-0.18 -0.08,-0.39 -0.25,-0.44zm-0.29 115.35c-0.15,0.11 -0.29,0.2 -0.33,0.4 -0.06,0.28 0.18,0.52 0.46,0.45 0.2,-0.04 0.28,-0.17 0.4,-0.32 0.23,-0.3 -0.23,-0.76 -0.53,-0.53zm-5.38 -27.5c0.29,0 0.29,-0.45 0,-0.45 -0.29,0 -0.29,0.45 0,0.45zm-0.57 9.76l0.04 -0.02c0.3,-0.12 0.53,-0.35 0.53,-0.69l0 -0.12c0,-0.32 -0.28,-0.6 -0.6,-0.6l-0.12 0c-0.34,0.01 -0.57,0.23 -0.69,0.53l-0.01 0.05c-0.19,0.47 0.38,1.03 0.85,0.85zm-0.62 -6.94c0.07,0 0.07,-0.12 0,-0.12 -0.08,0 -0.08,0.12 0,0.12zm-1.6 -2.62c0.55,0 0.55,-0.85 0,-0.85 -0.54,0 -0.54,0.85 0,0.85zm1.84 -3.37c0.16,-0.16 0.1,-0.4 -0.07,-0.53 -0.09,-0.06 -0.15,-0.11 -0.25,-0.15 -0.21,-0.07 -0.44,0.16 -0.37,0.36 0.04,0.1 0.09,0.17 0.15,0.26 0.13,0.17 0.37,0.23 0.54,0.06zm3.34 -38.29c-0.42,0 -0.42,0.65 0,0.65 0.42,0 0.42,-0.65 0,-0.65zm12.93 65.73c-0.23,0 -0.23,0.36 0,0.36 0.24,0 0.24,-0.36 0,-0.36zm-1.59 -61.75c0.46,0 0.46,-0.71 0,-0.71 -0.46,0 -0.46,0.71 0,0.71zm1.99 12.22c-0.47,0 -0.47,0.73 0,0.73 0.47,0 0.47,-0.73 0,-0.73zm0.2 -50.49l-0.15 0.01c-0.24,0.01 -0.23,0.35 0,0.36l0.15 0.01c0.25,0.01 0.25,-0.4 0,-0.38zm-2.1 39.06c0.05,0.08 0.17,0.08 0.22,0 0.04,-0.07 0.07,-0.14 0.09,-0.21 0.12,-0.34 -0.52,-0.34 -0.4,0 0.02,0.07 0.05,0.14 0.09,0.21zm-4.09 -25.91c0.28,0.3 0.74,-0.17 0.44,-0.45 -0.04,-0.04 -0.09,-0.09 -0.14,-0.13 -0.06,-0.03 -0.11,-0.03 -0.17,-0.04 -0.19,-0.05 -0.35,0.12 -0.31,0.3 0.02,0.06 0.02,0.12 0.05,0.17l0.13 0.15zm2.81 -36.27c0.47,0 0.47,-0.74 0,-0.74 -0.48,0 -0.48,0.74 0,0.74zm-1.7 -7.93c-0.01,0.37 0.34,0.7 0.7,0.7 0.39,0 0.68,-0.33 0.7,-0.7 0.02,-0.38 -0.33,-0.7 -0.7,-0.7 -0.39,0 -0.68,0.32 -0.7,0.7zm-2.01 8.95c-0.32,-0.28 -0.76,0.16 -0.47,0.48 0.05,0.05 0.1,0.11 0.15,0.16 0.3,0.33 0.82,-0.19 0.49,-0.49 -0.06,-0.05 -0.11,-0.1 -0.17,-0.15zm-1.07 26.47c0.17,0.18 0.48,0.04 0.48,-0.2 0,-0.25 -0.31,-0.38 -0.48,-0.2l-0.1 0.1c-0.05,0.06 -0.05,0.14 0,0.2l0.1 0.1zm3.78 -10.4c0.45,0 0.45,-0.7 0,-0.7 -0.45,0 -0.45,0.7 0,0.7zm0.6 14.79c0.27,0 0.27,-0.42 0,-0.42 -0.27,0 -0.27,0.42 0,0.42zm0.4 -8.59c-0.01,-0.15 -0.06,-0.26 -0.14,-0.37 -0.11,-0.23 -0.33,-0.36 -0.6,-0.3 -0.16,0.04 -0.27,0.15 -0.32,0.29 -0.06,0.07 -0.12,0.15 -0.15,0.25l-0.01 0.05 -0.03 0.08 -0.01 0.03c-0.1,0.36 0.18,0.67 0.52,0.69 0.22,0.01 0.41,-0.1 0.56,-0.25 0.13,-0.12 0.18,-0.29 0.18,-0.47zm-1.39 48.2c0.07,-0.24 -0.09,-0.49 -0.33,-0.56 -0.25,-0.09 -0.48,0.09 -0.56,0.32 -0.11,0.29 -0.28,0.58 -0.11,0.88 0.12,0.22 0.38,0.25 0.59,0.15 0.28,-0.12 0.33,-0.52 0.41,-0.79zm3.42 22.78c0.03,-0.46 -0.4,-0.84 -0.84,-0.84 -0.47,0 -0.82,0.38 -0.84,0.84 -0.02,0.46 0.4,0.84 0.84,0.84 0.47,0 0.82,-0.38 0.84,-0.84zm-35.49 18.71c0,-0.1 -0.04,-0.2 -0.11,-0.27 -0.06,-0.06 -0.11,-0.05 -0.17,-0.09l-0.18 0 -0.01 0c-0.44,0.09 -0.29,0.78 0.15,0.72 0.18,-0.03 0.32,-0.18 0.32,-0.36zm7.42 1.54c-0.4,0.26 -0.56,0.78 -0.31,1.21 0.26,0.45 0.88,0.56 1.29,0.25 0.37,-0.29 0.43,-0.78 0.21,-1.18 -0.22,-0.39 -0.82,-0.51 -1.19,-0.28zm30.81 4.13c-0.34,0 -0.52,0.32 -0.47,0.62 0.03,0.19 0.03,0.37 0.19,0.5 0.18,0.15 0.38,0.15 0.57,0 0.15,-0.13 0.16,-0.31 0.18,-0.5 0.03,-0.17 0.01,-0.34 -0.12,-0.47 -0.09,-0.09 -0.22,-0.15 -0.35,-0.15zm-18.68 -43.27l0.03 -0.15c0.03,-0.16 -0.08,-0.32 -0.25,-0.32 -0.18,0 -0.28,0.16 -0.25,0.32l0.03 0.15c0.04,0.21 0.4,0.21 0.44,0zm-4.55 15.88c0.06,-0.05 0.11,-0.11 0.16,-0.16 0.23,-0.24 0.22,-0.59 0,-0.82 -0.21,-0.24 -0.6,-0.22 -0.82,0 -0.06,0.05 -0.11,0.1 -0.16,0.15 -0.21,0.25 -0.23,0.58 0,0.83 0.22,0.24 0.6,0.2 0.82,0zm1.14 10.47l-0.14 0c-0.39,0.02 -0.38,0.58 0,0.6l0.14 0c0.4,0.02 0.39,-0.62 0,-0.6zm2.39 41.28l0 0.03 0 -0.03zm-2.73 -46.23c0.17,-0.09 0.24,-0.26 0.32,-0.41 0.15,-0.27 -0.27,-0.5 -0.39,-0.24 -0.04,0.1 -0.09,0.19 -0.13,0.28 -0.04,0.1 -0.04,0.18 -0.02,0.28 0.02,0.1 0.14,0.13 0.22,0.09zm4.52 36.52c-0.42,-0.02 -0.74,0.37 -0.76,0.77 -0.02,0.41 0.36,0.76 0.76,0.76 0.25,0 0.48,-0.13 0.62,-0.32 0.12,-0.11 0.19,-0.26 0.2,-0.44 0.01,-0.18 -0.07,-0.33 -0.2,-0.44 -0.14,-0.2 -0.36,-0.32 -0.62,-0.33zm44.17 -23.08l0.14 0.03c0.17,0.03 0.33,-0.08 0.33,-0.26 0,-0.18 -0.16,-0.29 -0.33,-0.26l-0.14 0.03c-0.23,0.06 -0.23,0.4 0,0.46zm-0.07 -4.34l-0.03 0.02c-0.05,0.05 -0.05,0.17 0,0.22l0.03 0.02c0.07,0.06 0.19,0.07 0.26,0l0.07 -0.05c0.06,-0.03 0.06,-0.13 0,-0.16l-0.07 -0.05c-0.07,-0.08 -0.19,-0.06 -0.26,0zm1.11 -3.61c-0.1,0.11 -0.14,0.2 -0.15,0.36 -0.01,0.06 0.06,0.12 0.11,0.11 0.16,-0.01 0.25,-0.05 0.37,-0.15 0.22,-0.19 -0.14,-0.55 -0.33,-0.32zm-2.05 19.23l0 0.07c0.08,0.05 0.15,0.02 0.23,-0.01l0 -0.06c-0.08,-0.03 -0.15,-0.06 -0.23,0zm0.75 7.95l-0.03 -0.1c-0.13,-0.49 -0.86,-0.49 -1,0l-0.03 0.1c-0.13,0.33 0.21,0.69 0.53,0.69 0.33,0 0.67,-0.36 0.53,-0.69zm-0.25 2.11c-0.08,0.09 -0.19,0.19 -0.18,0.32 0,0.06 0.04,0.1 0.1,0.11 0.14,0.01 0.23,-0.11 0.32,-0.19 0.18,-0.14 -0.1,-0.41 -0.24,-0.24zm0.68 7.04l-0.02 0.01 -0.03 0.03c-0.35,0.23 -0.45,0.72 -0.14,1.03 0.32,0.31 0.8,0.21 1.04,-0.14l0.02 -0.03 0.01 -0.01c0.22,-0.28 0.25,-0.62 0,-0.89 -0.25,-0.27 -0.63,-0.2 -0.88,0zm0.18 -93.19l0 -0.01c-0.04,-0.44 -0.64,-0.44 -0.68,0l0 0.01c-0.09,0.23 0.08,0.5 0.34,0.5 0.26,0 0.43,-0.27 0.34,-0.5zm-3.92 65.79c-0.24,0 -0.24,0.37 0,0.37 0.24,0 0.24,-0.37 0,-0.37zm3.06 -123.24c-0.08,0.1 -0.19,0.19 -0.18,0.32 0,0.07 0.04,0.11 0.1,0.11 0.14,0.01 0.23,-0.1 0.32,-0.18 0.18,-0.14 -0.1,-0.42 -0.24,-0.25zm-1.92 73.95c0.42,-0.19 0.41,-0.78 0.14,-1.08 -0.3,-0.33 -0.86,-0.23 -1.08,0.14 -0.19,0.33 -0.07,0.77 0.27,0.95 0.24,0.12 0.43,0.09 0.67,-0.01zm-0.35 -33.84c0.5,0 0.5,-0.77 0,-0.77 -0.5,0 -0.49,0.77 0,0.77zm5.27 -14.17c-0.24,-0.08 -0.5,0.09 -0.57,0.32 -0.07,0.22 -0.16,0.44 -0.17,0.67 -0.01,0.19 0.14,0.37 0.32,0.42 0.19,0.05 0.39,-0.04 0.5,-0.2 0.11,-0.19 0.17,-0.44 0.24,-0.65 0.08,-0.24 -0.1,-0.49 -0.32,-0.56zm-7.85 104.52c-0.42,0 -0.42,0.65 0,0.65 0.42,0 0.42,-0.65 0,-0.65zm4.04 -132.57c-0.13,0.34 0.21,0.7 0.53,0.7 0.33,0 0.67,-0.36 0.53,-0.7l-0.03 -0.09c-0.13,-0.49 -0.86,-0.49 -1,0l-0.03 0.09zm-4.04 14.98c-0.24,0 -0.24,0.38 0,0.38 0.24,0 0.24,-0.38 0,-0.38zm0.4 133.32c-0.41,0 -0.41,0.63 0,0.63 0.4,0 0.4,-0.63 0,-0.63zm-0.4 10.28c-0.24,0 -0.24,0.37 0,0.37 0.24,0 0.24,-0.37 0,-0.37zm0.59 -38.4c-0.49,0 -0.49,0.76 0,0.76 0.5,0 0.5,-0.76 0,-0.76zm-0.19 -115.48c-0.41,0 -0.41,0.64 0,0.64 0.4,0 0.4,-0.64 0,-0.64zm3.58 36.32c-0.29,0 -0.29,0.44 0,0.44 0.28,0 0.28,-0.44 0,-0.44zm-0.49 12.16c0,0.23 0.21,0.36 0.43,0.32l0.14 -0.02c0.3,-0.05 0.3,-0.56 0,-0.6l-0.14 -0.03c-0.22,-0.03 -0.43,0.1 -0.43,0.33zm0.19 64.86l-0.03 -0.14c-0.06,-0.27 -0.48,-0.27 -0.54,0l-0.03 0.14c-0.04,0.19 0.09,0.39 0.3,0.39 0.21,0 0.34,-0.2 0.3,-0.39zm0.1 3.26c0.44,0 0.44,-0.69 0,-0.69 -0.45,0 -0.45,0.69 0,0.69zm2.6 -111.21l0.02 -0.04 0.01 -0.01c0.22,-0.27 0.25,-0.61 0,-0.88 -0.25,-0.27 -0.63,-0.21 -0.88,0l-0.02 0.01 -0.03 0.02c-0.35,0.24 -0.45,0.72 -0.14,1.03 0.32,0.31 0.8,0.22 1.04,-0.13zm-3.4 78.82c-0.27,0 -0.27,0.42 0,0.42 0.27,0 0.27,-0.42 0,-0.42zm0.4 25.61c0.43,0 0.43,-0.66 0,-0.66 -0.43,0 -0.43,0.66 0,0.66zm11.01 -48.15c0.11,0.04 0.22,0.05 0.33,0.05 0.4,0.01 0.69,-0.33 0.71,-0.71 0.01,-0.37 -0.34,-0.71 -0.71,-0.7 -0.11,0 -0.22,0.01 -0.33,0.05 -0.29,0.1 -0.49,0.34 -0.5,0.65 -0.01,0.32 0.23,0.56 0.5,0.66zm5.25 -15.28c0.18,-0.07 0.29,-0.18 0.36,-0.36 0.06,-0.17 0.11,-0.36 0.05,-0.54 -0.13,-0.4 -0.54,-0.66 -0.96,-0.54 -0.44,0.12 -0.68,0.62 -0.5,1.04 0.18,0.43 0.63,0.55 1.05,0.4zm-1.93 -15.54c-0.92,0 -0.92,1.43 0,1.43 0.92,0 0.92,-1.43 0,-1.43zm0.2 89.88c0.63,0 0.63,-0.98 0,-0.98 -0.63,0 -0.63,0.98 0,0.98zm2.58 -34.3c0.29,0 0.29,-0.45 0,-0.45 -0.29,0 -0.28,0.45 0,0.45zm1.66 15.16c0.01,-0.06 0.02,-0.12 0.03,-0.19 0.01,-0.05 0.02,-0.11 0.02,-0.16l-0.01 -0.1 0.03 -0.12c0.02,-0.06 0.03,-0.12 0.05,-0.18 0.1,-0.44 -0.56,-0.62 -0.68,-0.19 -0.03,0.11 -0.04,0.23 -0.09,0.34 -0.05,0.12 -0.13,0.24 -0.15,0.38 -0.05,0.22 0.06,0.45 0.29,0.51 0.22,0.06 0.44,-0.08 0.51,-0.29zm-1.66 -81.71c-0.44,0 -0.43,0.68 0,0.68 0.44,0 0.44,-0.68 0,-0.68zm0 143.6c-0.44,0 -0.43,0.68 0,0.68 0.44,0 0.44,-0.68 0,-0.68zm-3.78 -122.5c-0.17,0 -0.17,0.27 0,0.27 0.18,0 0.18,-0.27 0,-0.27zm4.47 69.97c-0.27,-0.18 -0.68,-0.06 -0.83,0.21l-0.06 0.1c-0.06,0.07 -0.11,0.15 -0.17,0.22 -0.23,0.34 -0.02,0.8 0.32,0.95 0.38,0.16 0.77,-0.06 0.9,-0.43 0.02,-0.07 0.04,-0.13 0.05,-0.2l0.01 -0.02c0.14,-0.31 0.08,-0.64 -0.22,-0.83zm-10.17 -20.09c-0.06,-0.25 -0.34,-0.4 -0.58,-0.33 -0.26,0.07 -0.37,0.33 -0.33,0.58 0.03,0.15 0.06,0.29 0.07,0.44 0.02,0.22 0.03,0.41 0.14,0.6 0.12,0.19 0.36,0.3 0.58,0.24 0.23,-0.07 0.34,-0.27 0.37,-0.49 0.03,-0.21 -0.05,-0.37 -0.12,-0.55 -0.05,-0.16 -0.09,-0.33 -0.13,-0.49zm-1.46 -47.84c-0.36,0 -0.36,0.56 0,0.56 0.36,0 0.36,-0.56 0,-0.56zm7.76 32.22c-0.8,0 -0.8,1.24 0,1.24 0.8,0 0.8,-1.24 0,-1.24zm-8.36 0.13c-0.25,-0.02 -0.51,0.23 -0.49,0.49 0,0.09 0,0.19 0.04,0.27 0.17,0.45 0.73,0.45 0.9,0 0.04,-0.08 0.04,-0.18 0.05,-0.27 0.02,-0.28 -0.25,-0.48 -0.5,-0.49zm0.81 39.78c0.14,-0.12 0.22,-0.28 0.23,-0.49 0.01,-0.2 -0.09,-0.37 -0.23,-0.48 -0.2,-0.24 -0.52,-0.37 -0.82,-0.27 -0.34,0.11 -0.56,0.39 -0.57,0.75 -0.02,0.39 0.31,0.72 0.68,0.77 0.27,0.04 0.54,-0.07 0.71,-0.28zm0.19 8.7c-0.74,0 -0.74,1.13 0,1.13 0.73,0 0.73,-1.13 0,-1.13zm-0.08 10.68l-0.14 -0.03c-0.31,-0.07 -0.61,0.15 -0.61,0.46 0,0.32 0.3,0.54 0.61,0.46l0.14 -0.03c0.42,-0.11 0.42,-0.75 0,-0.86zm5.73 -65.27c-0.24,-0.04 -0.45,-0.1 -0.65,0.09 -0.12,0.11 -0.12,0.33 0,0.45 0.2,0.18 0.42,0.12 0.65,0.08 0.31,-0.05 0.31,-0.57 0,-0.62zm-19.35 64.08c-0.1,-0.1 -0.19,-0.15 -0.32,-0.19 -0.19,-0.07 -0.4,0.14 -0.33,0.33 0.04,0.13 0.09,0.22 0.19,0.32 0.28,0.31 0.77,-0.17 0.46,-0.46zm18.45 8.93c0,-0.12 0.01,-0.23 0.01,-0.34 0,-0.5 -0.77,-0.5 -0.77,0 0,0.11 0.01,0.22 0.01,0.34 0,0.48 0.75,0.48 0.75,0zm-1.77 -126.36c0.24,0.01 0.49,-0.22 0.47,-0.46l-0.01 -0.15c-0.02,-0.26 -0.2,-0.45 -0.46,-0.46 -0.26,-0.01 -0.44,0.22 -0.45,0.46l-0.01 0.15c-0.02,0.26 0.22,0.45 0.46,0.46zm0.6 66.74c-0.48,0 -0.48,0.75 0,0.75 0.48,0 0.48,-0.75 0,-0.75zm0.6 -31.16c0.29,0 0.29,-0.45 0,-0.45 -0.3,0 -0.3,0.45 0,0.45zm0.57 -52.82c0,-0.11 0.01,-0.22 0.01,-0.34 0,-0.49 -0.77,-0.49 -0.77,0 0,0.12 0.01,0.23 0.01,0.34 0,0.49 0.75,0.49 0.75,0zm-1.77 159.77c-0.26,-0.02 -0.44,0.21 -0.45,0.45l-0.01 0.15c-0.02,0.26 0.22,0.46 0.46,0.47 0.24,0.01 0.49,-0.23 0.47,-0.47l-0.01 -0.15c-0.02,-0.25 -0.2,-0.44 -0.46,-0.45zm-32.14 -35.58c-0.28,-0.06 -0.27,0.38 0,0.33l0.14 -0.03c0.13,-0.03 0.13,-0.25 0,-0.27l-0.14 -0.03zm6.75 13.61l-0.14 -0.02c-0.21,-0.04 -0.41,0.08 -0.41,0.3 0,0.22 0.21,0.34 0.41,0.31l0.14 -0.02c0.28,-0.05 0.28,-0.53 0,-0.57zm-0.17 -48.29c-0.21,-0.08 -0.5,-0.17 -0.69,0.03 -0.18,0.19 -0.09,0.42 0.07,0.58 0.08,0.09 0.17,0.15 0.27,0.22 0.23,0.15 0.54,0.02 0.64,-0.22 0.12,-0.27 -0.04,-0.51 -0.29,-0.61zm-3.09 -39.63c-0.42,0 -0.42,0.65 0,0.65 0.42,0 0.42,-0.65 0,-0.65zm1.98 54.96l0.02 -0.02c0.13,-0.07 0.22,-0.2 0.22,-0.37 0,-0.17 -0.09,-0.29 -0.22,-0.36l-0.02 -0.03c-0.15,-0.19 -0.48,-0.2 -0.67,-0.09 -0.17,0.1 -0.27,0.29 -0.28,0.48 -0.01,0.22 0.15,0.43 0.34,0.51 0.19,0.08 0.47,0.06 0.61,-0.12zm-0.39 -99.79c-0.24,0 -0.24,0.37 0,0.37 0.23,0 0.23,-0.37 0,-0.37zm0 143.6c-0.24,0 -0.24,0.36 0,0.36 0.23,0 0.23,-0.36 0,-0.36zm1.68 -123.79c-0.29,-0.19 -0.6,0.02 -0.71,0.29 -0.12,0.29 0.05,0.7 0.41,0.7 0.06,0 0.12,-0.01 0.17,-0.04l0.05 0.03c0.21,0.06 0.38,-0.07 0.45,-0.26 0.06,-0.14 0.03,-0.32 -0.05,-0.46 -0.08,-0.13 -0.24,-0.2 -0.32,-0.26zm-2.28 43.43c0.48,0 0.48,-0.74 0,-0.74 -0.47,0 -0.47,0.74 0,0.74zm2.19 -54.33c-0.3,0 -0.3,0.46 0,0.46 0.3,0 0.3,-0.46 0,-0.46zm-0.55 24.19c-0.12,-0.44 -0.76,-0.44 -0.89,0l-0.03 0.13c-0.09,0.32 0.16,0.63 0.48,0.63 0.32,0 0.56,-0.31 0.47,-0.63l-0.03 -0.13zm-3.43 -28.71c-0.47,0 -0.47,0.74 0,0.74 0.48,0 0.47,-0.74 0,-0.74zm-1.17 84.03l0.01 -0.03c0.19,-0.24 0.22,-0.61 0.06,-0.88 -0.14,-0.25 -0.41,-0.38 -0.69,-0.4 -0.66,-0.03 -1.02,0.8 -0.63,1.29l0.01 0.02c0.23,0.47 1.01,0.47 1.24,0zm-3.61 27.67c0.23,0 0.23,-0.34 0,-0.34 -0.22,0 -0.22,0.34 0,0.34zm0.6 3.28c0.34,0 0.34,-0.53 0,-0.53 -0.34,0 -0.34,0.53 0,0.53zm0 -31.93l0 0.05 0 -0.05zm-0.99 -71.85c0.36,0 0.36,-0.57 0,-0.57 -0.37,0 -0.37,0.57 0,0.57zm2.98 45.98c-0.39,0 -0.39,0.6 0,0.6 0.39,0 0.39,-0.6 0,-0.6zm0.2 53.93c0.49,0 0.49,-0.75 0,-0.75 -0.49,0 -0.49,0.75 0,0.75zm0.8 -62.14c-0.71,0 -0.71,1.1 0,1.1 0.71,0 0.7,-1.1 0,-1.1zm-1.4 81.65c-0.25,-0.01 -0.44,0.15 -0.54,0.36 -0.16,0.16 -0.24,0.48 -0.16,0.68l0.02 0.06c0.12,0.3 0.35,0.5 0.68,0.51 0.33,0.02 0.57,-0.23 0.69,-0.51l0.02 -0.06c0.07,-0.2 0,-0.52 -0.16,-0.67 -0.09,-0.22 -0.28,-0.36 -0.55,-0.37zm1.81 -5.75l-0.11 0.1c-0.05,0.05 -0.05,0.13 0,0.18l0.11 0.1c0.17,0.15 0.45,0.05 0.45,-0.19 0,-0.24 -0.28,-0.33 -0.45,-0.19zm0.78 -9.85c-0.11,0 -0.11,0.18 0,0.18 0.11,0 0.11,-0.18 0,-0.18zm11.54 16.55c-0.08,0 -0.08,0.12 0,0.12 0.08,0 0.08,-0.12 0,-0.12zm2.34 19.24c-0.06,-0.02 -0.1,-0.04 -0.13,-0.05 -0.11,-0.17 -0.26,-0.29 -0.49,-0.35 -0.4,-0.12 -0.8,0.14 -0.92,0.53 -0.13,0.38 0.14,0.83 0.52,0.92 0.23,0.06 0.43,0.03 0.61,-0.06 0.03,0.01 0.07,0.01 0.12,0.02 0.3,0.06 0.56,-0.08 0.65,-0.37 0.09,-0.28 -0.11,-0.55 -0.36,-0.64zm-7.71 -153.56c0.34,0 0.34,-0.52 0,-0.52 -0.34,0 -0.34,0.52 0,0.52zm-0.2 56.42c-0.29,0 -0.29,0.46 0,0.46 0.29,0 0.29,-0.46 0,-0.46zm-0.6 50.36c-0.69,0 -0.69,1.07 0,1.07 0.7,0 0.69,-1.07 0,-1.07zm5.38 29.43c-0.46,0 -0.46,0.71 0,0.71 0.45,0 0.45,-0.71 0,-0.71zm2.8 -116.77c0.04,-0.25 -0.02,-0.46 -0.17,-0.61 -0.07,-0.17 -0.23,-0.28 -0.44,-0.29 -0.22,-0.01 -0.37,0.12 -0.45,0.29 -0.15,0.15 -0.21,0.36 -0.17,0.61 0.03,0.14 0.1,0.25 0.2,0.36 0.19,0.23 0.64,0.23 0.83,0 0.1,-0.11 0.17,-0.22 0.2,-0.36zm0.84 30.8l0.1 0.08c0.15,0.09 0.36,0.09 0.51,0 0.25,0.04 0.54,-0.12 0.53,-0.43 -0.01,-0.32 -0.24,-0.57 -0.57,-0.58 -0.06,0 -0.11,0 -0.18,0.02l-0.03 0 -0.07 0.01c-0.15,0.04 -0.3,0.14 -0.37,0.29 -0.1,0.19 -0.1,0.46 0.08,0.61zm-2.05 -40.15c-0.13,0.38 0.14,0.83 0.52,0.93 0.23,0.06 0.43,0.03 0.61,-0.06 0.03,0 0.07,0.01 0.12,0.02 0.3,0.05 0.56,-0.08 0.65,-0.37 0.09,-0.28 -0.11,-0.56 -0.36,-0.65 -0.06,-0.02 -0.1,-0.03 -0.13,-0.04 -0.11,-0.17 -0.26,-0.29 -0.49,-0.36 -0.4,-0.11 -0.8,0.14 -0.92,0.53zm2.78 76.06c-0.23,-0.01 -0.49,0.23 -0.46,0.47 0.01,0.08 0.02,0.16 0.02,0.24 0.02,0.12 0.04,0.21 0.1,0.32 0.06,0.14 0.17,0.28 0.34,0.28 0.17,0 0.29,-0.14 0.35,-0.28 0.06,-0.11 0.08,-0.2 0.09,-0.32 0.01,-0.08 0.02,-0.16 0.03,-0.24 0.03,-0.26 -0.24,-0.46 -0.47,-0.47zm-1.39 -9.58c0.36,0 0.61,-0.35 0.53,-0.69l-0.03 -0.14c-0.12,-0.49 -0.87,-0.49 -0.99,0l-0.04 0.14c-0.08,0.34 0.17,0.69 0.53,0.69zm1.43 27.08c-0.09,0.05 -0.15,0.1 -0.2,0.18l0 0.2c0.05,0.08 0.11,0.13 0.2,0.18 0.21,0.11 0.49,-0.03 0.49,-0.28 0,-0.25 -0.28,-0.39 -0.49,-0.28zm0.76 -3.81c-0.07,-0.39 -0.72,-0.39 -0.79,0l-0.01 0.04c-0.16,0.3 0.03,0.67 0.4,0.69 0.19,0.01 0.36,-0.12 0.43,-0.29 0.06,-0.14 0.04,-0.28 -0.02,-0.41l-0.01 -0.03zm-9.95 -39.6c-0.25,0 -0.25,0.38 0,0.38 0.25,0 0.25,-0.38 0,-0.38zm0.8 35.11c0.47,0 0.47,-0.74 0,-0.74 -0.48,0 -0.48,0.74 0,0.74zm-0.6 -33.44c-0.91,0 -0.91,1.42 0,1.42 0.91,0 0.91,-1.42 0,-1.42zm0.6 74.41c-0.32,0 -0.32,0.49 0,0.49 0.32,0 0.31,-0.49 0,-0.49zm-0.6 6.75c-0.34,0 -0.34,0.52 0,0.52 0.34,0 0.34,-0.52 0,-0.52zm2.49 -15.66c0.02,-0.48 -0.43,-0.9 -0.9,-0.9 -0.5,0 -0.88,0.41 -0.9,0.9 -0.02,0.49 0.43,0.9 0.9,0.9 0.51,0 0.88,-0.41 0.9,-0.9zm0.69 14.47c-0.36,0 -0.63,0.3 -0.65,0.66 -0.02,0.35 0.31,0.65 0.65,0.65 0.37,0 0.64,-0.3 0.66,-0.65 0.01,-0.36 -0.31,-0.66 -0.66,-0.66zm0 -143.59c-0.36,0 -0.63,0.3 -0.65,0.65 -0.02,0.35 0.31,0.65 0.65,0.65 0.37,0 0.64,-0.29 0.66,-0.65 0.01,-0.35 -0.31,-0.65 -0.66,-0.65zm-0.69 134.74l-0.15 0.07c-0.07,0.03 -0.07,0.13 0,0.17l0.15 0.07c0.13,0.05 0.28,-0.01 0.28,-0.16 0,-0.15 -0.15,-0.21 -0.28,-0.15zm-0.1 -120.66c-0.39,0 -0.39,0.61 0,0.61 0.39,0 0.39,-0.61 0,-0.61zm-0.4 99.78c0.33,0 0.33,-0.52 0,-0.52 -0.33,0 -0.33,0.52 0,0.52z"/>
  <path class="fil7" d="M99.37 224.9c-1.18,-0.48 -2.46,-0.63 -3.69,-0.96 -1.99,-0.54 -1.09,1.28 -0.02,1.88 0.54,0.31 1.17,0.45 1.78,0.59 1.52,0.36 3.04,0.71 4.56,1.07 -0.33,-1.23 -1.44,-2.11 -2.63,-2.58z"/>
  <path class="fil7" d="M166.89 121.91c-0.25,0.98 -0.55,1.97 -0.53,2.96l-0.07 -0.02 0.07 0.06c0,0.19 0.02,0.39 0.06,0.59 0.03,0.18 0.09,0.35 0.16,0.53 -0.07,0.14 -0.17,0.27 -0.29,0.37 -1.02,0.74 -2.34,-0.32 -2.72,-1.26 -0.5,-1.26 -0.93,-2.46 -1.57,-3.69 -0.55,-1.06 -1.11,-2.15 -1.26,-3.33 -0.16,-1.19 0.17,-2.5 1.12,-3.23 1.5,-1.16 3.89,-0.21 4.79,1.46 0.91,1.67 0.7,3.72 0.24,5.56zm-3.65 30.52c-0.15,0.77 -0.31,1.58 -0.11,2.34 0.05,0.19 0.13,0.38 0.24,0.55 -0.05,0.27 -0.1,0.53 -0.14,0.79 -0.68,3.88 -1.18,7.89 -3.03,11.37 -1.8,3.38 -4.82,6.13 -5.85,9.82 -0.91,3.22 -0.15,6.64 0.3,9.95 0.45,3.32 0.5,6.99 -1.52,9.66 -5.3,-7.44 -5.83,-17.31 -4.46,-26.34 0.47,-3.13 1.45,-6.17 1.92,-9.28 0.19,-1.26 0.3,-2.31 0.7,-3.56 0.49,-1.51 0.96,-3.03 1.4,-4.56 1.1,-3.8 2.02,-7.66 2.6,-11.57 0.56,-3.79 0.1,-7.86 1.53,-11.47 0.3,-0.77 0.77,-1.6 1.58,-1.8 0.52,-0.12 1.08,0.05 1.52,0.37 0.44,0.31 0.77,0.75 1.08,1.19 4.37,6.27 3.58,15.4 2.24,22.54zm62.09 38.9c-1.29,-5.01 -3.4,-9.81 -6.18,-14.17 -0.58,-0.79 -1.01,-1.7 -1.55,-2.55 -0.9,-1.41 -1.7,-2.8 -2.43,-4.31 -1.15,-2.35 -2.49,-4.6 -3.2,-7.11 -0.89,-1.82 -1.77,-3.64 -2.62,-5.47 -0.96,-2.06 -1.64,-4.22 -2.64,-6.26 -0.5,-1.02 -1.12,-2.15 -1.3,-3.31 -3.42,-7 -7.12,-13.87 -11.62,-20.24 -2.2,-3.12 -4.56,-6.25 -7.31,-8.92 -3.03,-2.96 -6.79,-5.05 -10.49,-7.11l-7.37 -4.09c0.11,-0.01 0.23,-0.03 0.33,-0.08 0.23,-0.09 0.41,-0.25 0.58,-0.42 1.71,-1.63 2.99,-3.64 4.25,-5.64 0.32,-0.5 0.64,-1.01 0.96,-1.51 0.16,-0.25 0.35,-0.5 0.48,-0.76 0.04,-0.08 0.07,-0.17 0.11,-0.25 0.05,-0.07 0.23,-0.24 0.23,-0.32 0.09,-0.13 0.19,-0.27 0.28,-0.4 0.27,-0.39 0.46,-0.83 0.69,-1.25 0.24,-0.45 0.48,-0.9 0.71,-1.36 0.44,-0.92 0.84,-1.87 1.11,-2.86 0.05,-0.17 0.1,-0.34 0.14,-0.52 0.46,-1.93 0.56,-3.94 1.16,-5.84 0.08,-0.24 0.16,-0.47 0.25,-0.7 0.08,-0.2 0.1,-0.36 0.15,-0.56 0.11,-0.46 0.3,-0.92 0.5,-1.35 0.39,-0.88 0.89,-1.71 1.49,-2.45 0.47,-0.59 1.01,-1.13 1.38,-1.78 0.2,-0.36 0.35,-0.75 0.47,-1.15 0.12,-0.4 0.18,-0.82 0.3,-1.22 0.25,-0.81 0.3,-1.72 0.38,-2.56 0.11,-1.08 0.17,-2.16 0.19,-3.24 0,-0.54 -0.01,-1.08 -0.02,-1.62 -0.01,-0.18 0.06,-0.35 0,-0.52 -0.07,-0.17 -0.19,-0.32 -0.37,-0.37 -0.2,-0.04 -0.39,0.05 -0.57,0.15 -2.96,1.6 -5.69,3.63 -8.08,6 -2.26,2.24 -4.74,5.02 -6,7.98 -0.7,1.65 -0.92,3.61 -1.33,5.35 -0.38,1.6 -0.76,3.23 -0.78,4.88 -0.06,3.4 1.37,6.96 0.06,10.11 -0.13,0.29 -0.32,0.52 -0.45,0.81 -0.13,0.31 -0.23,0.64 -0.3,0.97 -0.09,0.45 -0.06,0.89 -0.12,1.33l-0.01 0.14 -3.96 -2.2c-0.05,-0.07 -0.09,-0.13 -0.14,-0.19 0.03,0.05 0.06,0.1 0.09,0.16 -0.27,-0.15 -0.55,-0.31 -0.82,-0.46l-0.14 -0.13c-0.27,-0.27 -0.54,-0.56 -0.8,-0.85l0.02 -0.16 -0.02 -0.93c0.33,-0.2 0.45,-0.6 0.55,-0.98 0.5,-2.03 0.96,-4.08 1.25,-6.15 0.65,-2.48 1.27,-4.97 1.85,-7.46 -0.8,-0.06 -1.49,0.59 -1.8,1.33 -0.3,0.73 -0.33,1.55 -0.48,2.33 -0.15,0.78 -0.46,1.6 -1.13,2.02 -0.27,0.18 -0.6,0.28 -0.85,0.48 -0.55,0.45 -0.57,1.22 -0.62,1.86 -0.02,0.39 -0.07,1.81 -0.84,1.28 -0.24,-0.16 -0.34,-0.46 -0.41,-0.74 -0.19,-0.69 -0.36,-1.39 -0.5,-2.1 -0.03,-0.14 -0.06,-0.28 -0.14,-0.39 -0.09,-0.12 -0.25,-0.19 -0.38,-0.13 -0.15,0.07 -0.17,0.28 -0.18,0.44 -0.02,0.58 -0.04,1.16 -0.06,1.74 -0.08,0 -0.15,0 -0.23,0 -0.42,-0.95 -1.19,-1.79 -1.88,-2.55 -0.37,-0.41 -0.74,-0.82 -1.11,-1.23 -0.18,-0.21 -0.41,-0.43 -0.69,-0.4 -0.25,0.03 -0.43,0.27 -0.48,0.51 -0.05,0.25 0,0.5 0.05,0.75 0.17,1.01 0.15,2.05 -0.04,3.06 -1.06,1.46 -2.89,2.52 -4.71,2.83 -3.02,0.53 -6.1,-0.28 -9.17,-0.36 -1.47,0 -2.92,0.09 -4.37,0.32 -0.53,0.09 -1.2,0.11 -1.7,0.32 -0.37,0.16 -0.61,0.41 -1.02,0.07 -0.22,-0.18 -0.34,-0.46 -0.42,-0.74 -0.15,-0.6 -0.11,-1.23 -0.07,-1.85 -0.35,0.89 -0.69,1.78 -1.03,2.67 -0.13,0.35 -0.24,0.51 -0.59,0.59 -0.46,0.1 -0.93,0.22 -1.4,0.34 -0.95,0.24 -1.9,0.49 -2.86,0.71 -0.72,0.17 -1.46,0.38 -2.19,0.45 -0.81,0.08 -1.64,0.05 -2.45,0.04 -1.63,-0.02 -3.26,-0.14 -4.88,-0.35 -0.34,-0.05 -0.68,-0.1 -1.02,-0.15 -1.45,0 -2.99,-0.3 -4.39,-0.22 -0.53,0.03 -1.42,0.23 -2.1,0.12 -0.1,0.02 -0.19,0.04 -0.28,0.07 -0.34,0.1 -0.65,0.11 -1,0.15 -1.42,0.15 -2.86,0.51 -4.1,1.23 -1.84,0.68 -3.47,1.81 -4.79,3.26 -1.58,1.73 -2.2,3.63 -3.22,5.66 -1.14,3.72 -1.09,8.1 -0.02,11.83 0.29,-0.64 -0.06,-1.78 -0.09,-2.49 -0.04,-1.02 -0.01,-2.05 0.09,-3.07 0.19,-1.98 0.65,-3.93 1.37,-5.78 1.4,-3.61 3.72,-7.3 7.34,-8.91 1.91,-0.85 3.55,-1.54 5.7,-1.31 2.02,0.2 4.01,1.04 5.52,2.42 1.97,1.78 3.2,4.2 3.9,6.74 0.42,1.56 0.6,3.14 0.73,4.75 0.01,0.11 0.01,0.22 -0.04,0.31 -0.08,0.12 -0.24,0.16 -0.39,0.15 -0.4,-0.02 -0.75,-0.29 -1.07,-0.53 -0.32,-0.25 -0.68,-0.49 -1.09,-0.46 -0.36,0.03 -0.68,0.29 -0.85,0.61 -0.18,0.32 -0.23,0.69 -0.25,1.06 -0.06,1.43 0.4,2.82 0.78,4.18 0.19,0.69 0.37,1.39 0.46,2.11 0.03,0.32 -0.01,0.68 0.08,0.99 0.09,0.33 0.18,0.66 0.25,1.01 0.32,1.58 0.63,3.17 0.81,4.78 0.81,7.25 -1.28,14.47 -2.37,21.69 -0.96,6.44 -1.13,12.97 -0.83,19.47 0.15,3.27 0.42,6.53 0.75,9.78 0.17,1.63 0.36,3.26 0.55,4.88 0.18,1.44 0.09,2.79 0.22,4.22 0.24,2.73 1.24,5.47 0.67,8.23 -0.26,1.29 -0.86,2.49 -1.49,3.66 -2.19,4.03 -4.79,7.85 -7.74,11.38 0.84,-1 2.09,-1.79 3.01,-2.74 0.97,-1.02 1.87,-2.1 2.73,-3.22 1.71,-2.26 3.13,-4.68 4.57,-7.11 0.58,-0.98 1.43,-1.64 1.96,-2.66 0.69,-1.32 1.28,-2.72 1.8,-4.12 1.05,-2.81 1.8,-5.74 2.23,-8.71 0.23,-1.59 0.37,-3.2 0.41,-4.81 0.04,-1.34 0.32,-2.37 0.55,-3.65 0.09,-1.06 0.19,-2.11 0.22,-3.14 0.1,-2.91 0.24,-5.79 0.56,-8.68 0.31,-2.9 0.7,-5.79 1.01,-8.69 0.23,-2.24 0.25,-4.62 0.71,-6.86 0.01,-0.64 0.01,-1.28 0.01,-1.91 0,-0.4 0,-0.79 -0.01,-1.18 -0.03,-2.52 -0.11,-5.05 -0.25,-7.57 -0.17,-3.06 -0.47,-6.15 -1.43,-9.07 -0.09,-0.26 -0.18,-0.52 -0.28,-0.78 -0.1,-0.26 -0.22,-0.38 -0.38,-0.59 -0.32,-0.41 -0.54,-0.9 -0.76,-1.37 -0.74,-1.51 -1.44,-3.01 -2.5,-4.34 -0.53,-0.66 -1.14,-1.33 -1.26,-2.17 -0.02,-0.13 -0.03,-0.27 0.02,-0.4 0.19,-0.51 0.73,-0.53 1.17,-0.44 0.53,0.11 1.02,0.1 1.55,0.32 1.05,0.45 1.97,1.25 2.65,2.16 0.87,1.17 1.55,2.46 2.16,3.77 0.61,1.31 1.22,2.63 1.76,3.97 0.32,0.8 0.54,1.66 0.81,2.47 0.29,0.84 0.59,1.68 0.92,2.51 0.14,0.37 0.28,0.73 0.5,1.05 0.22,0.32 0.52,0.6 0.88,0.74 0.9,0.33 1.4,-0.56 1.81,-1.19 0.49,-0.74 0.9,-1.53 1.44,-2.24 0.19,-0.26 0.4,-0.51 0.67,-0.69 0.84,-0.57 2.04,0 2.79,0.48 0.87,0.55 1.59,1.33 2.15,2.19 2.99,4.57 1.97,10.54 1.86,16 -0.1,4.8 -0.89,9.67 -1.35,14.44 -0.49,5.01 -0.97,10.01 -1.45,15.02 -0.47,4.85 -0.79,10.24 2.22,14.07 -2.14,0 -4.27,0.16 -6.39,0.48 -0.66,0.1 -1.38,0.25 -1.79,0.78 -0.49,0.65 -0.3,1.59 0.11,2.3 1.13,1.95 3.49,2.75 5.66,3.4 2.2,0.66 4.41,1.33 6.62,1.99 -2.96,-0.76 -6.01,-1.18 -9.06,-1.01 -2.91,0.16 -5.84,0.85 -8.44,2.21 -1.65,0.86 -0.65,1.37 0.36,2.19 1.09,0.89 1.21,2.39 1.47,3.67 0.76,3.83 3.04,7.21 5.72,10.06 2.68,2.84 5.79,5.25 8.67,7.9 10.09,9.28 17.18,21.45 22.15,34.23 0.39,1 1,2.17 1.85,3.02l0.01 0.23c0.6,0.54 1.37,0.9 2.16,0.86 0.06,0 0.12,0.01 0.18,0.01 3.02,0.09 3.5,-3.02 4.09,-5.31 1.5,-5.85 1.64,-11.99 0.9,-17.96 -0.11,-0.89 -0.25,-1.79 -0.4,-2.68 -0.72,-4.31 -1.62,-9.12 -3.45,-13.09 -2.43,-5.25 -4.87,-11.35 -9.2,-15.31 -4.02,-3.66 -8.88,-6.38 -14.02,-8.12 0.96,0.29 1.91,0.57 2.87,0.86 5.51,1.66 11.28,3.33 16.94,2.3 0.69,-0.12 1.41,-0.31 1.88,-0.82 0.26,-0.29 0.39,-0.62 0.44,-0.98 -0.44,-0.51 -0.87,-1.05 -1.28,-1.59 -0.55,-0.54 -1.14,-1.17 -1.59,-1.83 -0.19,-0.2 -0.37,-0.39 -0.56,-0.59 -0.69,-0.35 -1.36,-0.72 -1.92,-1.25 -0.22,-0.22 -0.41,-0.46 -0.59,-0.71 -0.8,-0.76 -0.85,-2.16 -0.88,-3.2 -0.03,-1.19 0.09,-2.37 0.18,-3.55 0.21,-2.7 0.22,-5.41 0.04,-8.11l-0.86 2.55c-0.05,0.13 -0.11,0.27 -0.23,0.33 -0.4,0.16 -0.46,-0.39 -0.49,-0.62 -0.05,-0.39 -0.25,-0.74 -0.41,-1.1 -0.35,-0.79 -0.72,-1.57 -1.06,-2.37 -0.65,-1.52 -1.18,-3.14 -1.09,-4.82 0.05,-0.99 0.52,-2.16 1.5,-2.29 0.55,-0.06 1.08,0.23 1.63,0.27 1.32,0.11 2.28,-1.17 2.92,-2.33 2.41,-4.4 3.98,-9.22 5.03,-14.13 0.26,-1.26 0.49,-2.55 0.51,-3.83 4.91,-5.58 7.82,-12.87 8.12,-20.29 0.17,-0.22 0.57,-0.3 0.84,-0.14 0.35,0.21 0.5,0.65 0.62,1.05 0.87,3.03 1.17,6.23 0.89,9.38 2.25,-2.18 4.21,-4.81 5.17,-7.76 0.26,-0.26 0.53,-0.51 0.86,-0.67 1.18,-0.58 2.66,0.12 3.41,1.19 0.76,1.07 0.93,2.42 1.23,3.7 4.37,18.83 23.97,46.71 25.39,48.55 1.07,1.37 2.29,2.66 3.25,4.11l0.02 0.06c0.18,0.45 0.41,0.88 0.46,1.35 0.08,0.73 -0.37,1.07 -0.88,1.46 -0.43,0.33 -0.83,0.71 -1.19,1.11 -0.93,1.03 -1.65,2.22 -2.37,3.4l-3.34 5.51c2.58,-2.84 5.17,-5.69 7.75,-8.53 0.32,-0.35 0.64,-0.7 0.91,-1.09 0.2,-0.29 0.41,-0.55 0.48,-0.9l0.01 -0.11c0.09,-0.09 0.15,-0.2 0.18,-0.32 0.53,-1.67 0.18,-3.48 -0.25,-5.18z"/>
  <path class="fil7" d="M218.87 242.29c-0.79,-3.51 -2.07,-6.92 -3.77,-10.09 -0.93,-1.74 -1.99,-3.42 -3.17,-5 -1.1,-1.48 -2.39,-2.76 -3.53,-4.21 -1.72,-2.19 -3.66,-4.21 -5.78,-6.02 -0.61,-0.37 -1.17,-0.82 -1.8,-1.18 -0.93,-0.53 -1.88,-0.95 -2.76,-1.56 -1.9,-1.32 -4.06,-2.13 -5.93,-3.46 -0.09,-0.05 -0.13,-0.17 -0.13,-0.27 -0.08,0.01 -0.16,0.03 -0.24,0.07 -0.21,-0.13 -0.42,-0.26 -0.64,-0.39 0.28,-0.08 0.41,-0.4 0.49,-0.68 0.54,-1.87 1.15,-3.71 1.84,-5.52 1.24,-3.24 2.7,-6.39 4.39,-9.41 0.1,-0.19 0.39,-0.49 0.1,-0.59 -0.19,-0.07 -0.5,0.13 -0.63,0.25 -0.57,0.54 -1.02,1.35 -1.45,2 -0.92,1.4 -1.71,2.88 -2.39,4.4 -1.2,2.65 -2.1,5.43 -2.91,8.22 -0.08,0.26 -0.16,0.55 -0.11,0.82l0.04 0.1 0.01 0.04 0.01 0.02 -0.01 0c0.06,0.36 -0.45,0.56 -0.68,0.28l-0.1 -0.08c-0.15,-0.02 -0.29,-0.13 -0.34,-0.29l-0.02 0.02c-0.01,-0.07 -0.03,-0.13 -0.04,-0.2 -1.9,-0.77 -3.83,-1.25 -5.86,-1.56 -1.63,-0.25 -3.48,-0.32 -5.05,-0.92 -0.31,0.11 -0.61,0.25 -0.88,0.45 -0.99,0.7 -1.44,1.82 -1.62,3.04 0.01,0.09 0.01,0.17 0.02,0.25l0 0.01 0 0.01c0.01,0.1 0.02,0.2 0.03,0.3l0 -0.08 0 0.08c0,0.18 -0.01,0.37 -0.01,0.55 0.02,0.85 0.03,1.68 -0.15,2.52 -0.12,4 0.18,8.04 2.19,11.43 1.83,3.06 4.83,5.19 7.47,7.58 8.21,7.44 13.2,17.68 19.64,26.69 1.57,2.19 3.52,4.5 6.2,4.8 2.56,0.28 5.02,-1.47 6.27,-3.73 0.39,-0.7 0.67,-1.44 0.89,-2.21 0.73,-1.61 1.2,-3.34 1.39,-5.09 0.22,-2.02 0,-4.04 -0.16,-6.05 -0.15,-1.8 -0.43,-3.58 -0.82,-5.34z"/>
  <path class="fil8" d="M122.96 122.98c-0.41,-0.63 -3.55,-5.47 -4.19,-3.83 -0.34,0.87 0.76,2.33 1.75,5.37 0.38,1.15 0.55,2.36 0.75,3.55 0.46,2.71 0.68,5.45 0.66,8.19 -0.05,6.75 -1.55,13.4 -2.35,20.1 -1.31,10.94 -0.7,22.39 3.89,32.41 1.11,-12.46 2.22,-24.92 3.33,-37.38 0.48,-5.39 0.96,-10.81 0.33,-16.18 -0.51,-4.3 -1.77,-8.6 -4.17,-12.23z"/>
  <path class="fil8" d="M174.59 100.63c1.67,-2.9 3.35,-5.84 4.24,-9.07 0.7,-2.53 0.91,-5.23 2.06,-7.6 0.87,-1.79 2.25,-3.31 2.98,-5.16 0.86,-2.14 0.78,-4.53 0.68,-6.83 0.01,0.28 -1.45,1.42 -1.69,1.67 -0.59,0.61 -1.16,1.25 -1.71,1.89 -1.1,1.3 -2.12,2.67 -3.05,4.1 -1.82,2.79 -2.24,6.25 -3.05,9.45 -0.53,2.11 -1.06,4.22 -1.6,6.32 -0.95,3.77 -1.91,7.57 -3.69,11.03 2.2,-1.29 3.56,-3.59 4.83,-5.8z"/>
  <path class="fil8" d="M224.47 187.74c-1.04,-3.03 -2.6,-5.85 -4.15,-8.65 0,-0.4 -0.66,-1.2 -0.86,-1.57 -0.36,-0.63 -0.71,-1.27 -1.06,-1.91 -0.71,-1.28 -1.41,-2.55 -2.12,-3.83 -1.31,-2.36 -2.74,-4.68 -3.86,-7.14 -2.35,-5.13 -4.56,-10.33 -6.93,-15.45 -4.88,-10.53 -9.98,-21.21 -18.24,-29.54 -1.04,-1.05 -2.12,-2.06 -3.24,-3.02 -1.26,-0.68 -2.41,-1.63 -3.59,-2.4 -1.6,-1.05 -3.25,-1.92 -4.97,-2.74 -1.87,-0.89 -3.53,-2.01 -5.46,-2.8 -0.75,-0.3 -1.51,-0.59 -2.21,-1.01 -0.17,-0.1 -0.36,-0.27 -0.55,-0.41 0.07,0.14 0.13,0.29 0.2,0.44 -2.05,-1.19 -4.04,-2.48 -5.69,-4.14l-0.12 -0.12c-0.6,-0.31 -1.15,-0.84 -1.63,-1.42 -0.29,-0.26 -0.53,-0.61 -0.73,-0.98 -0.22,-0.31 -0.42,-0.6 -0.6,-0.86 -0.46,-0.62 -1.23,-1.77 -1.26,-2.75 -0.59,-2.37 -1.43,-3.43 -2.5,-4.35 -0.14,0.94 0.54,1.78 0.92,2.65 0.39,0.88 0.27,2.21 -0.67,2.39 -0.3,0.06 -0.63,-0.03 -0.92,0.09 -1.14,0.48 0.09,3.11 0.18,3.9 0.07,0.63 -0.02,1.29 -0.35,1.82 -0.42,0.66 -1.18,1.04 -1.93,1.23 -1.15,0.29 -2.36,0.22 -3.54,0.1 -1.16,-0.12 -2.33,-0.3 -3.43,-0.72 -2.16,-0.82 -3.27,-3.07 -5.6,-3.6 -0.77,-0.18 -1.7,-0.08 -2.21,0.53 -0.83,0.99 -0.08,2.47 0.3,3.5 0.45,1.25 1.05,2.47 1.94,3.47 0.81,0.9 1.83,1.58 2.71,2.41 2.51,2.36 3.81,5.94 3.4,9.36 -0.03,0.25 -0.07,0.51 -0.2,0.74 -0.13,0.22 -0.37,0.39 -0.63,0.37 -0.21,-0.02 -0.38,-0.16 -0.53,-0.3 -1.86,-1.71 -2.12,-4.26 -3.12,-6.46 -0.7,-1.55 -1.7,-3.02 -3.14,-3.93 -1.55,-0.98 -4.79,-1.48 -5.65,0.7 -0.5,1.24 0.42,4.15 -1.91,3.64 -0.38,-0.09 -0.72,-0.29 -1.08,-0.42 -0.36,-0.14 -0.79,-0.19 -1.12,0.01 -0.37,0.23 -0.5,0.71 -0.51,1.15 -0.04,1.53 0.93,2.89 1.73,4.2 0.9,1.45 1.63,3 2.19,4.61 0.12,0.34 0.24,0.7 0.49,0.96 0.25,0.27 0.68,0.4 0.99,0.2 0.34,-0.23 0.35,-0.73 0.32,-1.15 -0.11,-1.32 -0.22,-2.64 -0.32,-3.96 -0.06,-0.68 -0.59,-2.8 0.32,-3.19 0.27,-0.12 0.57,0.04 0.82,0.2 5.99,3.88 10.7,9.62 13.58,16.15l-0.04 0.06c3.34,8.2 2.26,17.5 0.37,26.15 -1.9,8.65 -4.56,17.29 -4.24,26.14 0.08,2.16 0.34,4.35 -0.06,6.48 -0.34,1.77 -1.14,3.56 -0.72,5.32 0.53,2.22 2.77,3.54 4.87,4.44 6.91,2.97 14.55,4.23 22.05,3.63 0.68,-0.05 1.46,-0.18 1.84,-0.76 0.48,-0.75 -0.03,-1.73 -0.57,-2.45 -3.66,-4.9 -9.12,-8.22 -14.97,-10 1.26,2.05 2.12,4.09 2.08,6.5 -0.01,0.73 -0.13,1.53 -0.7,1.98 -0.6,0.48 -1.52,0.34 -2.15,-0.1 -0.62,-0.44 -1.03,-1.12 -1.42,-1.78 -2.51,-4.25 -5.05,-8.67 -6.54,-13.33 -0.58,-2.5 -0.72,-5.11 -0.56,-7.69 0.22,-3.44 0.95,-6.84 1.78,-10.19 0.75,-3.03 1.58,-6.03 2.42,-9.04l-0.06 0c2.63,-8.36 4.59,-17.04 4.68,-25.81 -0.59,-5.48 -1.2,-7.86 -1.42,-11.05 -0.19,-2.72 -0.76,-11.31 -0.2,-14.24 0.15,-0.78 0.6,-1.55 1.33,-1.87 0.98,-0.45 2.12,0.01 3.09,0.49 2.7,1.33 5.37,2.9 7.24,5.25 3.29,4.13 3.52,9.87 3.16,15.13 -0.15,2.19 -0.39,4.38 -0.45,6.57 -0.06,2.11 -0.47,4.22 -0.31,6.35 0.16,2.02 0.78,4.06 2.09,5.61 0.94,1.09 2.45,1.92 3.79,1.4 1.52,-0.58 1.96,-2.46 2.25,-4.06 0.94,-5.06 2.46,-10.02 4.52,-14.73 0.26,-0.58 0.59,-1.21 1.19,-1.39 0.93,-0.27 1.72,0.71 2.2,1.56 0.6,1.03 1.77,3.49 1.81,3.7 0.23,1.38 1.5,2.62 2.93,2.62 0.84,0 1.67,-0.35 2.5,-0.26 1.73,0.2 2.65,2.1 3.28,3.72 2.26,5.84 4.88,11.52 7.7,17.1 1.36,2.7 2.76,5.4 4.1,8.09 1.35,2.71 3.33,5.21 4.89,7.81 2.52,4.22 4.85,8.56 6.63,13.15 1.06,2.76 2.02,5.35 3.87,7.66 0.93,1.15 1.99,1.28 2.47,3.9 0.1,0.54 0.27,1.15 0.76,1.39 0.61,-3.14 0.1,-6.42 -0.94,-9.45z"/>
  <path class="fil8" d="M165.64 213.27c-3.11,-3.21 -7.2,-5.33 -11.45,-6.7 -2.66,-0.86 -5.4,-1.44 -8.15,-1.92 -1.13,-0.19 -6.43,-1.88 -6.09,0.42 0.1,0.65 0.6,1.16 1.07,1.62 12.9,12.78 21.91,28.85 31.95,43.98 0.57,0.87 1.5,1.85 2.45,1.45 0.67,-0.28 0.91,-1.1 1.03,-1.82 1.16,-6.93 -0.69,-13.98 -2.72,-20.71 -1.77,-5.87 -3.83,-11.91 -8.09,-16.32z"/>
  <path class="fil8" d="M180.44 207.3l0.02 0.02c0.06,0 0.12,0 0.18,0.01l-0.2 -0.03z"/>
  <path class="fil8" d="M217.39 237.64c-1.22,-3.5 -2.9,-6.83 -5.01,-9.87 -0.23,-0.33 -0.46,-0.65 -0.7,-0.97 -0.88,-1.15 -1.82,-2.24 -2.69,-3.4 -1.2,-1.6 -2.55,-3.09 -4.03,-4.44 -1.26,-1.16 -2.62,-2.21 -4.05,-3.15 -0.72,-0.47 -1.45,-0.91 -2.21,-1.32 -0.38,-0.21 -0.74,-0.38 -1.09,-0.64 -0.4,-0.29 -0.8,-0.58 -1.22,-0.83 -1.97,-1.18 -4.03,-2.42 -6.24,-3.08 -2.18,-0.64 -4.37,-1.12 -6.59,-1.61 -0.79,-0.17 -2.46,-0.35 -3.1,-1.01 -1.85,-0.11 -2.99,-0.76 -3.63,1.1 -0.71,2.03 -0.11,5.15 0.62,7.15 0.96,2.64 2.87,4.85 5.02,6.66 2.15,1.81 4.56,3.29 6.85,4.92 4.44,3.15 8.47,6.89 11.95,11.08 4.12,4.98 7.74,10.82 13.59,13.58 0.9,0.43 2.19,0.85 3.12,0.24 0.34,-0.22 0.65,-0.73 0.87,-1.06 0.29,-0.46 0.47,-0.99 0.57,-1.52 0.15,-0.85 0.1,-1.73 0.01,-2.59 -0.31,-3.14 -1,-6.25 -2.04,-9.24z"/>
  <path class="fil9" d="M165.5 287.79c0.34,0.54 0.76,1.09 1.01,1.68 0.58,1.42 0.5,3.34 -1,4.19 -1.45,0.82 -3.45,0.92 -5.06,0.95 -3.71,0.08 -7.38,-0.8 -10.91,-1.86 -6.44,-1.92 -13.16,-4.73 -19.97,-3.59 -6.74,1.29 -15.8,-1.13 -22.26,-2.68 -7.19,-1.72 -14.48,-2.58 -21.88,-2.8 -14.35,-0.44 -28.71,1.08 -43.04,-0.02 -7.88,-0.6 -19.81,-3.05 -23.14,-4.6 -2.48,-1.89 -4.98,-3.83 -6.64,-6.5 -2.26,-3.64 -1.72,-7.46 -0.64,-11.39 0.81,-2.98 1.65,-6.1 3.92,-8.33 2.72,-2.68 6.68,-4.35 10.09,-5.96 13.41,-6.36 28.06,-9.5 42.7,-11.34 8.63,-1.08 17.31,-1.72 25.97,-2.36 -2.2,3.44 -2.97,7.76 -3.35,11.75 -0.37,3.87 -0.39,8.16 0.74,11.97 -3.09,0.21 -6.23,-0.49 -9.14,-1.46 -3.78,-1.25 -7.44,-2.79 -11.23,-3.99 -3.87,-1.22 -7.8,-2.24 -11.77,-3.05 -8.77,-1.81 -17.63,-2.54 -26.58,-2.19 -0.09,0 15.78,0.87 23.5,2.29 7.9,1.46 15.47,3.83 22.98,6.65 3.86,1.44 8.16,2.74 12.29,2.48 0.17,-0.05 0.35,-0.06 0.53,-0.06l0.1 0.01c2.08,-0.22 4.11,-0.85 6,-2.11 2.89,-1.94 5,-4.91 8.1,-6.56 2.86,-1.53 6.32,-1.62 9.35,-0.54 3.76,1.34 5.91,4.18 7.36,7.78 0.99,2.47 1.94,5.21 3.87,7.05 -2.89,-0.79 -5.82,-1.42 -8.8,-1.87 -0.31,-0.05 20.48,4.95 32.88,14.01 4.84,3.53 11.72,8.85 14.02,12.45z"/>
  <path class="fil10" d="M255.33 280.98c-1.27,2.21 -3.28,3.9 -5.53,5.04 -6.29,3.19 -13.47,1.52 -19.76,-0.78l-0.1 -0.02c-2.26,-2.51 -4.08,-5.37 -3.53,-8.96 0.01,-0.07 0.03,-0.13 0.04,-0.19 0.08,-0.52 0.06,-0.31 0.15,-0.71 1.18,-4.66 9.29,-10.77 9.02,-10.61 -4.01,2.34 -8.2,5.41 -9.7,10.01 -0.03,0.08 -0.04,0.17 -0.07,0.26 -2.97,-0.94 -6.11,-1.3 -9.22,-1.13 -2.14,0.11 -4.66,0.42 -6.79,1.31 3.92,-2.82 6.91,-6.77 8.89,-11.25 2.66,-5.99 1.69,-13.73 1.68,-13.8 -0.03,-0.35 -0.06,-0.7 -0.09,-1.05 0.1,0.04 0.2,0.08 0.31,0.11 0.88,1.01 2.48,0.9 3.64,0.28 0.66,-0.36 1.22,-0.88 1.79,-1.36 1.62,-1.37 3.51,-2.02 5.62,-1.54 2.92,0.66 5.07,2.82 7.07,4.91 2.02,2.1 4.04,4.2 5.96,6.39 1.86,2.14 3.64,4.36 5.21,6.74 1.6,2.43 2.96,5.01 4.67,7.38 0.88,1.22 1.76,2.41 1.96,3.94 0.22,1.77 -0.34,3.52 -1.22,5.03z"/>
  <path class="fil11" d="M177.86 232.06c-0.41,-4.67 -1.85,-9.12 -2.44,-13.74 -0.53,-4.14 0.09,-7.24 1.46,-11.09 -0.38,0.11 -1.48,-1.14 -1.75,-1.22 -0.41,-0.11 -0.88,0.08 -1.33,-0.09 -0.5,-0.2 -0.79,-0.5 -1.07,-0.95 -0.05,0.1 -0.12,0.19 -0.25,0.25 -5.1,2.13 -10.63,0.98 -15.65,-0.78 -5.81,-2.03 -11.29,-4.34 -17.56,-4.32 -5.92,0.01 -11.78,1.68 -16.69,5 -3.79,2.55 -6.58,5.89 -8.91,9.68 -0.66,1.15 -1.56,4.24 -2.04,6.42l0.11 0.06 0.03 0.02 0 0c1.52,-6.59 7.28,-12.4 13.11,-15.35 13.03,-6.6 28.75,-0.3 38.71,9.05 8.07,7.57 13.17,18.05 14.15,28.97 0.35,-3.95 0.48,-7.91 0.12,-11.91z"/>
  <path class="fil11" d="M164.9 276.78c2.05,-1.45 3.88,-3.2 5.47,-4.88 7.29,-7.64 7.41,-19.42 7.78,-22.3 -0.01,1.06 -0.04,2.13 -0.11,3.19 -0.13,1.76 -0.33,3.51 -0.6,5.25 0.06,1.35 -2.09,9.59 -2.29,10.25 -0.51,1.72 -1.05,3.93 -2.16,5.33 -1.25,1.56 -5.47,3.59 -8.09,3.16z"/>
  <path class="fil12" d="M132.07 90.35c-0.13,-0.11 -0.29,-0.18 -0.44,-0.27l0 0c0.1,-0.01 0.2,-0.01 0.3,-0.02 2.09,-0.22 3.77,-1.8 5.51,-2.82 0.17,-0.11 0.03,-0.36 -0.16,-0.28 -2.27,1.01 -6.5,4.69 -8.34,1.12 -0.05,-0.09 -0.18,-0.17 -0.29,-0.13 -1.48,0.48 -2.31,0.72 -3.67,-0.61 -0.28,-0.27 -0.18,-0.45 -0.54,-0.67 -0.3,-0.18 -0.56,-0.09 -0.89,-0.15 -0.82,-0.17 -1.29,-0.4 -1.89,-0.92 -1.41,-1.69 -1.8,-3.89 -0.81,-5.94 0.06,-0.12 -0.06,-0.25 -0.18,-0.27 -1.69,-0.26 -2.78,-1.83 -1.93,-3.63 0.05,-0.1 0,-0.26 -0.09,-0.32 -0.9,-0.57 -1.55,-1.41 -1.74,-2.47 -0.14,-0.78 0.2,-1.42 0.16,-2.14 -0.03,-0.51 -0.54,-1.25 -0.73,-1.71 -0.24,-0.58 -0.47,-1.16 -0.71,-1.75 -0.49,-1.24 -1.01,-2.47 -1.25,-3.79 -0.95,-5.05 2.94,-9.16 7.47,-10.65 4.18,-1.37 9.85,-1.55 13.24,1.67 3.68,3.49 4.05,8.77 4.43,13.52 0.02,0.22 0.37,0.25 0.37,0.01 -0.18,-4.94 -0.63,-10.65 -4.55,-14.19 1.27,0.29 2.43,0.32 3.51,1.18 0.78,0.62 0.85,0.8 1.83,0.93 1.76,0.22 2.97,0.54 3.63,2.42 0.3,0.83 0.41,1.71 0.9,2.46 0.47,0.74 1.23,1.2 1.76,1.88 0.52,0.68 0.83,1.48 1.36,2.15 0.73,0.91 1.49,1.66 2,2.73 0.71,1.48 0.83,3.02 0.8,4.64 -0.01,0.1 0.09,0.13 0.18,0.11 -0.01,1.22 0.32,2.47 0.95,3.5 0.08,0.12 0.3,0.06 0.24,-0.09 -0.59,-1.57 -0.87,-3.05 -0.86,-4.74l-0.06 -0.09c0.09,-1.99 -0.72,-3.92 -2.01,-5.48 -0.83,-0.99 -1.33,-2.09 -2.1,-3.09 -0.83,-1.08 -1.83,-1.62 -2.27,-3.03 -0.58,-1.88 -1.32,-3.62 -3.53,-3.92 -0.98,-0.13 -1.59,-0.2 -2.44,-0.76 -0.32,-0.21 -0.47,-0.4 -0.82,-0.58 -0.95,-0.49 -2.16,-0.58 -3.19,-0.39l-0.04 0.02 -0.02 -0.02c-1.75,-1.5 -4.03,-2.22 -6.41,-2.39 4.1,-3.98 7.91,-8.23 12.62,-11.53 4.96,-3.48 10.83,-5.86 16.95,-5.9 6.04,-0.04 11.67,2.29 15.87,6.62 4.53,4.68 9.5,16.59 9.53,16.68 0.13,0.43 4.77,4.59 3.79,9.02 -0.61,2.77 -2.63,4.92 -4.6,6.83 -2.29,2.23 -4.95,5.04 -6.02,8.26 0.13,-0.96 0.3,-1.92 0.53,-2.87 0.03,-0.14 -0.18,-0.22 -0.26,-0.11 -0.53,0.67 -0.97,1.43 -1.39,2.2 0.23,-0.68 0.45,-1.38 0.71,-2.06 0.08,-0.16 0.21,-0.44 0.23,-0.57 0.08,-0.17 0.15,-0.35 0.23,-0.52 0.05,-0.1 -0.11,-0.18 -0.16,-0.09 -1.26,1.97 -2.43,3.81 -4.3,5.25 -1.89,1.46 -4.19,2.4 -6.56,2.7 -4.91,0.62 -9.84,-1.51 -12.7,-5.53 0.02,-0.08 0.01,-0.16 -0.08,-0.23 -0.07,-0.05 -0.13,-0.11 -0.2,-0.16l-0.01 -0.01c-0.3,-1.52 -0.87,-3.02 -1.39,-4.46l-0.06 0.02c0.44,1.39 0.88,2.92 1.07,4.46 -0.08,0.06 -0.12,0.17 -0.04,0.29l0.09 0.12c0.15,1.58 0.01,3.16 -0.68,4.59 -1.31,2.69 -4.21,3.76 -6.97,4.3 -0.35,0.07 -1.18,0.24 -0.83,0.24 0.66,0.05 1.98,0.5 1.74,1.92 0,0 -1.09,1.99 -1.2,3.88 -0.82,-1.36 -1.07,-3.91 -1.94,-5.18 -0.12,-0.18 -0.4,-0.17 -0.52,-0.01 -0.85,1.08 -2.03,1.23 -3.3,0.8 -0.1,-0.03 -0.2,0.02 -0.26,0.1 -1.18,1.41 -1.62,3.15 -1.1,4.78 -0.48,-0.75 -0.77,-1.6 -0.75,-2.62 0.01,-0.49 0.15,-1.24 -0.63,-1.15 -0.4,0.05 -0.58,0.62 -1.08,0.44 -0.18,-0.06 -0.51,-0.7 -0.72,-0.86 -0.63,-0.5 -1.48,-0.67 -2.29,-0.67z"/>
  <path class="fil7" d="M187.34 62.71c-0.45,-1.22 -1.15,-2.36 -1.87,-3.44 -0.69,-1.03 -1.41,-2.03 -2.02,-3.11 -0.58,-1.02 -0.88,-2.12 -1.37,-3.16 -0.91,-1.92 -1.83,-3.84 -2.78,-5.74 -0.56,-1.12 -1.14,-2.23 -1.88,-3.23 -0.57,-0.76 -1.23,-1.44 -1.91,-2.1 -0.42,-0.6 -0.86,-1.18 -1.34,-1.74 -1.18,-1.36 -2.57,-2.57 -4.19,-3.37 -1.72,-0.86 -3.46,-1.69 -5.35,-2.12 -0.74,-0.17 -1.48,-0.29 -2.24,-0.36 -0.4,-0.1 -0.8,-0.22 -1.2,-0.29 -1.52,-0.27 -3.08,-0.31 -4.6,-0.11 -0.31,0.04 -0.58,-0.01 -0.89,0.01 -0.38,0.02 -0.76,0.06 -1.15,0.11 -0.76,0.1 -1.52,0.23 -2.27,0.41 -1.48,0.34 -2.93,0.83 -4.33,1.43 -2.52,1.09 -4.86,2.54 -7.07,4.17 -1.51,1.11 -2.89,2.46 -4.44,3.47 -0.85,0.55 -1.61,1.36 -2.35,2.04 -0.74,0.7 -1.47,1.41 -2.17,2.15 -0.62,0.66 -1.22,1.35 -1.81,2.03 -0.22,0.26 -0.47,0.46 -0.71,0.69 -0.33,0.33 -0.59,0.75 -0.87,1.12 1.8,0.27 3.56,0.75 5.25,1.43 -0.56,-0.8 -0.94,-1.72 -1.12,-2.68 -0.26,0.42 -0.52,0.84 -0.77,1.25 0.09,-1.82 0.87,-3.61 2.15,-4.91 -0.34,1.61 -0.28,3.3 0.19,4.88 1.83,-4.55 5.46,-8.22 9.63,-10.79 4.17,-2.58 8.89,-4.14 13.65,-5.35 -1.23,0.52 -2.47,1.04 -3.7,1.56 2.34,-0.77 4.92,-0.77 7.27,-0.04l0.07 0.62c-2.12,0.12 -4.26,-0.15 -6.38,0.02 -4.65,0.37 -9.05,3.06 -11.51,7.02 1.8,-1.61 3.99,-2.79 6.33,-3.41 -0.42,0.37 -0.84,0.73 -1.26,1.1 2.05,-1.59 4.61,-2.49 7.2,-2.56 -0.12,0.42 0.23,0.85 0.65,0.97 0.41,0.12 0.85,0.01 1.27,-0.09 0.73,-0.19 1.44,-0.38 2.18,-0.44 -0.82,0.51 -1.58,1.07 -2.25,1.77 1.28,-0.73 2.64,-1.32 4.04,-1.78l0.28 2.64c-1.34,0.11 -2.68,0.33 -3.98,0.72 0.8,0.21 1.6,0.42 2.39,0.63 0,0.14 -0.11,0.25 -0.23,0.31 -0.13,0.06 -0.28,0.07 -0.42,0.08 -2.24,0.18 -4.39,1.03 -6.33,2.16 -1.21,0.71 -2.35,1.52 -3.46,2.37 -0.55,0.43 -1.1,0.87 -1.65,1.31 -0.52,0.41 -1.15,0.7 -1.74,1.02 -0.59,0.32 -1.19,0.65 -1.81,0.93 -0.49,0.22 -1.03,0.47 -1.56,0.56 -0.17,0.02 -0.81,-0.07 -0.87,0.13 -0.08,0.29 0.71,0.68 0.9,0.75 0.42,0.15 0.89,0.18 1.33,0.11 0.81,-0.13 1.53,-0.56 2.24,-0.98 1.42,-0.85 2.85,-1.7 4.28,-2.55 0.8,-0.48 1.63,-0.94 2.45,-1.4 0.87,-0.5 1.76,-0.95 2.66,-1.37 1.8,-0.82 3.66,-1.5 5.57,-2 0.18,-0.05 0.35,-0.1 0.51,-0.17l0.03 0.32c-0.36,0.23 -0.73,0.46 -1.1,0.69 -0.46,0.15 -0.93,0.27 -1.35,0.41 -1.66,0.58 -3.33,1.16 -5,1.74 1,-0.32 2.14,-0.16 3,0.43 -1.03,-0.05 -2.08,0.34 -2.83,1.05 1.43,-0.5 3,-1 4.41,-0.45 0.08,-0.22 0.17,-0.43 0.25,-0.65 1.02,0.59 1.82,1.55 2.21,2.66 0.37,-0.51 -0.16,-1.16 -0.37,-1.75 -0.31,-0.91 0.28,-1.99 1.18,-2.33 0.9,-0.34 1.97,-0.01 2.63,0.68 0.67,0.7 0.95,1.7 0.9,2.67 -1.08,0.44 -2.16,0.88 -3.25,1.32 0.04,0.13 0.07,0.27 0.11,0.41 -2.49,2.19 -6.4,2.25 -8.74,4.6 4.22,-0.88 8.51,-1.78 12.25,-3.93 0.33,-0.19 0.68,-0.42 0.78,-0.79 0.05,-0.19 0.02,-0.39 -0.01,-0.58 -0.35,-2.04 -1.43,-3.93 -3.01,-5.26 0.65,-0.72 1.66,-1.08 2.62,-0.98 0.9,0.26 1.72,0.79 2.31,1.5 0.16,0.27 0.29,0.57 0.36,0.88 0.17,0.77 0.18,1.79 0.93,2.04 0.49,0.17 1.04,-0.15 1.55,-0.05 0.7,0.12 1.03,1.03 0.91,1.67 -0.06,0.33 -0.34,0.51 -0.6,0.69 -0.46,0.31 -0.91,0.61 -1.37,0.92 -1.83,1.24 -3.65,2.47 -5.48,3.71 -0.53,0.36 -1.06,0.72 -1.59,1.07 -0.07,-0.39 -0.15,-0.78 -0.22,-1.17 -2.11,1.48 -4.84,2.05 -7.37,1.53 0.82,0.27 1.66,0.54 2.36,1.04 0.7,0.51 1.26,1.29 1.28,2.15 0.64,-0.44 1.47,-0.89 2.13,-0.49 0.47,0.28 0.64,0.88 0.67,1.43 0.04,0.54 0,1.11 0.23,1.61 0.35,-0.17 0.41,-0.65 0.36,-1.04 -0.05,-0.4 -0.14,-0.83 0.06,-1.17 0.26,-0.43 0.92,-0.46 1.35,-0.2 0.43,0.26 0.69,0.72 0.93,1.16 0.23,0.45 0.48,0.92 0.89,1.21 0.57,0.39 1.34,0.36 1.98,0.09 0.63,-0.27 1.16,-0.74 1.67,-1.2 1.25,-1.14 2.51,-2.28 3.76,-3.42 0.64,-0.57 1.26,-1.16 1.91,-1.72 0.3,-0.27 0.35,-0.15 0.48,0.2 0.14,0.36 0.18,0.72 0.07,1.1 -0.13,0.46 -0.41,0.86 -0.7,1.25 -1.26,1.7 -2.64,3.32 -4.13,4.82 0.47,-0.02 0.95,-0.04 1.42,-0.07 -1.56,2.29 -4.02,3.78 -6.4,5.2 2.65,-0.76 5.18,-1.92 7.48,-3.44 -0.45,0.51 -0.91,1.03 -1.36,1.54 1.68,-0.05 3.15,-1.28 3.97,-2.76 0.82,-1.47 1.11,-3.17 1.38,-4.84 0.42,1.09 0.83,2.17 1.25,3.26 0.19,-0.84 0.22,-1.73 0.08,-2.58 0.53,0.64 0.88,1.42 1.01,2.24 -0.29,1.13 -1.12,2.09 -1.99,2.89 -3.62,3.3 -8.38,4.97 -13.01,6.56 0.69,0.22 1.44,0.01 2.13,-0.22 4.58,-1.52 8.88,-3.87 12.63,-6.9 0.59,-0.48 1.19,-0.99 1.91,-1.28 -0.31,0.57 -0.7,1.12 -1.09,1.62 -1.77,2.3 -3.63,4.67 -6.25,5.89 0.18,0.12 0.36,0.24 0.54,0.35 -1.12,0.31 -2.24,0.63 -3.26,1.18 -1.01,0.56 -1.92,1.38 -2.36,2.45 2.42,-1.17 4.73,-2.54 6.9,-4.12 -0.7,0.48 -1.21,1.22 -1.4,2.05 1.18,-0.77 2.32,-1.6 3.44,-2.47 0.19,-0.09 0.38,-0.17 0.58,-0.24 0.13,-0.04 0.31,-0.07 0.38,0.05 0.05,0.09 0.01,0.2 -0.04,0.29 -0.12,0.26 -0.24,0.52 -0.36,0.78 0.79,-0.8 1.58,-1.62 2.3,-2.49 -1.52,2.1 -3.63,3.89 -4.09,6.42 0.85,-1.06 1.84,-2.01 2.95,-2.8 -1.28,1.34 -2,3.21 -1.94,5.06 0.41,-0.79 0.9,-1.54 1.45,-2.24 0.49,-0.64 0.91,-1.26 1.51,-1.8 1.32,-1.2 2.73,-2.31 3.94,-3.62 1.47,-1.59 2.67,-3.58 2.72,-5.75 0.03,-0.95 -0.17,-1.88 -0.5,-2.76z"/>
  <path class="fil7" d="M174.63 79.04c-0.51,0.58 -1.03,1.14 -1.57,1.69 -0.95,0.96 -1.96,1.86 -3.11,2.56 -1.15,0.7 -2.45,1.19 -3.8,1.26 2.19,-0.11 4.33,-0.86 6.11,-2.13 0.62,-0.45 1.2,-0.96 1.71,-1.52 0.46,-0.49 0.88,-1.03 1.24,-1.59 0.14,-0.22 1.03,-1.52 0.81,-1.71 -0.21,-0.17 -1.21,1.23 -1.39,1.44z"/>
  <path class="fil7" d="M171.01 81.16c0.51,-0.37 0.99,-0.78 1.42,-1.23 0.26,-0.27 0.91,-0.81 0.85,-1.23 -0.4,0.18 -0.8,0.58 -1.16,0.85 -0.42,0.31 -0.85,0.62 -1.29,0.91 -0.88,0.57 -1.8,1.09 -2.79,1.46 -1.51,0.57 -3.16,0.79 -4.77,0.64 0.54,0.62 1.48,0.7 2.31,0.63 0.7,-0.05 1.38,-0.18 2.05,-0.37 1.21,-0.35 2.36,-0.92 3.38,-1.66z"/>
  <path class="fil7" d="M138.4 75.62c-0.83,-1.17 -1.47,-2.48 -1.88,-3.85 0.63,0.15 0.99,0.9 1.63,1.03 0.51,0.1 1.02,-0.25 1.26,-0.7 0.25,-0.45 0.3,-0.98 0.32,-1.49 0.1,-2.01 -0.03,-4.04 -0.37,-6.02 -0.34,-1.96 -0.83,-4.02 -1.76,-5.79 -0.76,-1.45 -1.81,-2.73 -2.85,-4 -0.61,-0.75 -1.24,-1.51 -2.05,-2.02 -0.88,-0.56 -1.92,-0.79 -2.95,-0.93 -2.63,-0.38 -5.35,-0.27 -7.86,0.57 -2.51,0.84 -4.81,2.44 -6.26,4.66 -0.64,0.97 -1.1,2.06 -1.36,3.19 -0.22,0.99 -0.46,2.42 -0.1,3.4 0.17,-0.13 0.16,-0.45 0.18,-0.65 0.03,-0.38 0.07,-0.76 0.13,-1.14 0.12,-0.75 0.3,-1.5 0.57,-2.22 0.57,-1.48 1.62,-2.83 3.09,-3.45 2.2,-0.93 4.98,-0.07 6.96,-1.41 -1.15,0.18 -2.33,0.22 -3.5,0.13 -0.24,-0.02 -0.48,-0.05 -0.68,-0.18 -0.2,-0.13 -0.34,-0.39 -0.25,-0.61 0.08,-0.17 0.26,-0.27 0.43,-0.35 3.69,-1.69 8.09,-1.76 11.83,-0.19 0.37,0.16 0.74,0.33 1.01,0.62 0.27,0.29 0.42,0.73 0.27,1.1 -1.17,-0.43 -2.35,-0.87 -3.59,-1.08 -1.23,-0.22 -2.52,-0.2 -3.69,0.24 2.29,-0.12 4.61,0.79 6.22,2.43 1.6,1.63 2.47,3.97 2.31,6.26 0.83,-1.02 0.5,-2.29 0.42,-3.47 0.39,0.17 0.76,0.35 0.94,0.74 0.25,0.57 0.46,1.16 0.66,1.74 0.41,1.19 0.73,2.4 0.88,3.65 0.26,2.02 0.06,4.14 -0.84,5.96 -0.64,-1.17 -2.07,-1.87 -3.39,-1.65 2.09,2.39 3.34,5.51 3.46,8.69 0.48,-0.68 0.34,-1.6 0.18,-2.42 1.7,2.37 2.54,5.3 2.57,8.21 1.27,-3.7 0.62,-8.01 -1.69,-11.17 -0.08,0.72 -0.16,1.45 -0.25,2.17z"/>
  <path class="fil7" d="M118.24 72.59c-0.36,-0.7 -0.51,-1.51 -0.41,-2.29 -0.23,0.16 -0.4,0.38 -0.5,0.63 -0.61,-0.73 -0.65,-1.81 -0.42,-2.74 0.23,-0.94 0.69,-1.8 0.98,-2.72 0.49,-1.56 0.49,-3.25 0.16,-4.86 -0.64,0.91 -0.67,2.1 -0.74,3.21 -0.06,1.11 -0.23,2.32 -1.04,3.09 -0.11,0.11 -0.25,0.22 -0.41,0.25 -0.43,0.1 -0.74,-0.28 -0.91,-0.62 -0.23,0.51 0.47,1.56 0.72,1.99 0.37,0.67 0.78,1.34 0.92,2.11 0.12,0.7 -0.01,1.43 0.05,2.14 0.1,1.33 0.87,2.6 2,3.3 -0.26,-0.73 -0.12,-1.53 0.1,-2.27 0.21,-0.74 0.5,-1.48 0.52,-2.25 -0.49,0.14 -0.89,0.55 -1.02,1.03z"/>
  <path class="fil7" d="M151.92 78.66l0.12 -0.01c-0.28,-0.94 -0.56,-1.88 -0.78,-2.83l-0.05 0c-0.18,-0.8 -0.26,-1.66 -0.3,-2.45 -0.08,-1.51 0.14,-3.06 -0.25,-4.52 -0.31,-1.12 -0.95,-2.1 -1.59,-3.07 -0.74,-1.12 -1.3,-2.31 -2.14,-3.38 -0.79,-1.02 -1.65,-2.01 -2.21,-3.18 -0.41,-0.86 -0.67,-1.84 -1.36,-2.49 -0.79,-0.75 -1.94,-0.91 -3.02,-1.04 -0.26,-0.03 -0.56,-0.05 -0.77,0.11 -0.11,0.09 -0.18,0.22 -0.3,0.29 -0.26,0.17 -0.6,-0.03 -0.84,-0.22 -0.6,-0.46 -1.2,-0.91 -1.8,-1.37 0.11,0.92 0.59,1.74 1.05,2.54 0.48,0.83 0.97,1.67 1.45,2.5 0.47,-0.84 0.66,-1.82 0.55,-2.77 0.62,0.39 1.06,1.04 1.21,1.76 0.23,-0.5 0.09,-1.14 -0.33,-1.51 1.09,0.55 2.06,1.31 2.85,2.24 0.85,1 1.29,2.2 1.4,3.52 -1.17,-1.1 -2.57,-1.94 -4.09,-2.44 1.24,0.63 1.75,2.12 2.74,3.09 0.57,0.56 1.28,0.93 1.94,1.36 1.53,1.01 2.82,2.38 3.74,3.96 -2.02,-1.72 -4.22,-3.21 -6.56,-4.46 2.5,1.7 4.6,3.98 6.11,6.59 -1.87,-1.91 -4.09,-3.48 -6.5,-4.64 3.13,1.75 5.72,4.47 7.3,7.69 -0.4,-0.32 -0.91,-0.5 -1.43,-0.5 0.8,0.63 1.47,1.41 1.97,2.29l-0.22 -0.02c0.75,1.37 1.31,2.84 1.67,4.36 0.03,0.13 0.03,0.31 -0.1,0.35 -0.12,0.03 -0.22,-0.1 -0.26,-0.21 -0.11,-0.3 -0.14,-0.62 -0.22,-0.92 -0.09,-0.31 -0.24,-0.62 -0.52,-0.77 0.61,1.19 0.7,2.59 0.5,3.91 -0.2,1.32 -0.66,2.59 -1.12,3.84 1.05,-0.69 1.77,-1.81 2.13,-3.02 0.35,-1.2 0.35,-2.49 0.18,-3.73 -0.04,-0.29 -0.09,-0.57 -0.15,-0.85z"/>
  <path class="fil7" d="M146.94 77.64c-0.28,-0.41 -0.58,-0.81 -0.9,-1.19 -0.13,-0.15 -0.84,-0.91 -0.63,-0.31 0.17,0.5 0.5,0.99 0.72,1.48 0.22,0.5 0.42,1 0.59,1.52 0.35,1.02 0.62,2.07 0.81,3.14 0.03,0.16 -0.01,0.39 -0.17,0.38 -0.11,-0.01 -0.16,-0.13 -0.19,-0.22 -0.25,-0.74 -0.5,-1.48 -0.75,-2.21 0.17,1.02 0.21,2.06 0.15,3.09 -0.05,0.73 -0.16,1.49 -0.57,2.1 -0.49,0.73 -1.32,1.16 -2.16,1.43 -0.84,0.27 -1.71,0.41 -2.53,0.74 1.9,0.67 4.17,0.08 5.51,-1.43 -0.46,0.98 -1.23,1.81 -2.16,2.34 0.71,-0.24 1.42,-0.48 2.08,-0.85 0.65,-0.37 1.25,-0.88 1.61,-1.54 0.42,-0.75 0.5,-1.64 0.47,-2.5 -0.03,-1.12 -0.24,-2.24 -0.6,-3.3 -0.31,-0.94 -0.75,-1.84 -1.28,-2.67z"/>
  <path class="fil13" d="M153.67 199.48c0.24,0.28 0.76,-0.05 0.55,-0.38 -2.4,-3.91 -4.2,-7.82 -4.99,-12.38 -0.78,-4.52 -0.69,-9.14 -0.09,-13.68 1.34,-10.13 5.04,-19.78 6.44,-29.9 0.74,-5.37 0.97,-10.97 -0.42,-16.25l-0.05 0.01c0.95,6.87 0.43,13.53 -0.97,20.3 -1.4,6.72 -3.5,13.27 -4.9,19.98 -1.2,5.71 -1.89,11.56 -1.26,17.39 0.57,5.2 2.16,10.9 5.69,14.91z"/>
  <path class="fil13" d="M122.29 199.97c3.34,-1.83 6.74,-3.45 10.4,-4.58 3.51,-1.09 7.06,-1.3 10.65,-1.93 0.33,-0.06 0.34,-0.57 -0.01,-0.61 -3.9,-0.45 -8.28,0.67 -11.95,1.96 -3.28,1.15 -6.48,2.8 -9.2,4.98 -0.11,0.08 -0.01,0.25 0.11,0.18z"/>
  <path class="fil13" d="M255.33 280.98c-1.27,2.21 -3.28,3.9 -5.53,5.04 -6.29,3.19 -13.47,1.52 -19.76,-0.78l-0.1 -0.02c-2.26,-2.51 -4.08,-5.37 -3.53,-8.96 0.01,-0.07 0.03,-0.13 0.04,-0.19 0.08,-0.52 0.06,-0.31 0.15,-0.71 1.18,-4.66 9.29,-10.77 9.02,-10.61 -4.01,2.34 -8.2,5.41 -9.7,10.01 -0.03,0.08 -0.04,0.17 -0.07,0.26 -2.97,-0.94 -6.11,-1.3 -9.22,-1.13 -2.14,0.11 -4.66,0.42 -6.79,1.31 3.92,-2.82 6.91,-6.77 8.89,-11.25 2.66,-5.99 1.69,-13.73 1.68,-13.8 -0.03,-0.35 -0.06,-0.7 -0.09,-1.05 0.1,0.04 0.2,0.08 0.31,0.11 0.88,1.01 2.48,0.9 3.64,0.28 0.66,-0.36 1.22,-0.88 1.79,-1.36 1.62,-1.37 3.51,-2.02 5.62,-1.54 2.92,0.66 5.07,2.82 7.07,4.91 2.02,2.1 4.04,4.2 5.96,6.39 1.86,2.14 3.64,4.36 5.21,6.74 1.6,2.43 2.96,5.01 4.67,7.38 0.88,1.22 1.76,2.41 1.96,3.94 0.22,1.77 -0.34,3.52 -1.22,5.03zm-47.66 -5.39c-5.02,3.04 -10.88,4.01 -16.68,3.57 -3.08,-0.23 -6.13,-0.85 -9.11,-1.69 -2.83,-0.79 -5.63,-2.16 -8.51,-2.74l0.02 -0.06c0.88,-0.78 1.16,-1.72 1.36,-2.31 0.67,-1.93 3.46,-13.77 3.83,-17.79 0.32,-3.52 0.42,-17.89 0.18,-21.35 -0.29,-4.35 -1.35,-8.47 -2.18,-12.73 -0.5,-2.61 -0.73,-5.2 -0.32,-7.84 0.28,-1.83 0.85,-3.61 1.48,-5.35 0.02,0.08 0.07,0.14 0.17,0.16 5.63,1.05 10.97,2.21 16.14,4.77 4.64,2.29 8.89,5.36 12.51,9.07 6.99,7.16 10.86,16.08 12.62,25.75 0.08,0.13 0.52,7.05 0.43,7.69 0,0.37 0,0.73 -0.02,1.11 -0.17,2.78 -0.78,5.58 -1.85,8.16 -2.01,4.81 -5.62,8.89 -10.07,11.58zm-42.77 1.19c2.05,-1.45 3.88,-3.2 5.47,-4.88 7.29,-7.64 7.41,-19.42 7.78,-22.3 -0.01,1.06 -0.04,2.13 -0.11,3.19 -0.13,1.76 -0.33,3.51 -0.6,5.25 0.06,1.35 -2.09,9.59 -2.29,10.25 -0.51,1.72 -1.05,3.93 -2.16,5.33 -1.25,1.56 -5.47,3.59 -8.09,3.16zm-1.67 0.01c-0.21,0.13 -0.43,0.25 -0.65,0.37l-0.06 0.01c-0.12,0.01 -0.19,0.08 -0.24,0.16 -1.31,0.73 -2.68,1.32 -4.03,1.97 -0.41,-0.34 -0.82,-0.68 -1.23,-1.01 -5.17,-4.09 -10.82,-7.57 -16.79,-10.36 -3.5,-1.62 -7.09,-3.01 -10.76,-4.13 -3.09,-1.88 -4.11,-5.31 -5.44,-8.5 -1.12,-2.7 -2.69,-5.01 -5.22,-6.54 -4.79,-2.89 -10.57,-2.33 -14.83,1.17 -2.72,2.23 -4.99,5.07 -8.41,6.26 -1.03,0.36 -2.08,0.57 -3.13,0.68 -0.46,-3.39 -0.97,-6.68 -0.77,-10.15 0.23,-3.89 1.06,-8.07 2.76,-11.6 1.62,-3.35 4.42,-5.53 7.93,-6.42l0 0 0.1 -0.03c0.21,-0.04 0.43,-0.06 0.64,-0.08l-0.02 -0.06c0.15,-0.02 0.3,-0.06 0.45,-0.08 2.47,-0.41 4.98,-0.13 6.95,1.07 0.08,0.64 0.22,1.33 0.52,1.9 0.13,0.24 0.51,1.1 0.47,0.81 -0.06,-0.42 -1.27,-3.87 0.06,-10.52 0.43,-2.18 1.43,-5.67 2.14,-6.91 2.33,-3.79 5.12,-7.13 8.91,-9.68 4.91,-3.32 10.77,-4.99 16.69,-5 6.27,-0.02 11.75,2.29 17.56,4.32 5.02,1.76 10.55,2.91 15.65,0.78 0.13,-0.06 0.2,-0.15 0.25,-0.25 0.28,0.45 0.57,0.75 1.07,0.95 0.45,0.17 0.92,-0.02 1.33,0.09 0.27,0.08 1.37,1.33 1.75,1.22 -1.37,3.85 -1.99,6.95 -1.46,11.09 0.59,4.62 2.03,9.07 2.44,13.74 0.36,4 0.23,7.96 -0.12,11.91 -0.98,-10.92 -6.08,-21.4 -14.15,-28.97 -9.96,-9.35 -25.68,-15.65 -38.71,-9.05 -6.07,3.07 -12.08,9.24 -13.29,16.16 -0.02,0.11 0.15,0.19 0.21,0.07 1.34,-3.1 2.66,-6.03 4.85,-8.65 2.03,-2.42 4.46,-4.47 7.19,-6.07 6.27,-3.65 13.49,-4.17 20.45,-2.36 13.38,3.48 24.67,13.9 29.64,26.74 2.32,5.98 3.27,12.36 3.04,18.74 -0.48,3.43 0.09,13.79 -8.37,21.93 -1.65,1.59 -3.42,3.06 -5.37,4.28zm2.27 11c0.34,0.54 0.76,1.09 1.01,1.68 0.58,1.42 0.5,3.34 -1,4.19 -1.45,0.82 -3.45,0.92 -5.06,0.95 -3.71,0.08 -7.38,-0.8 -10.91,-1.86 -6.44,-1.92 -13.16,-4.73 -19.97,-3.59 -6.74,1.29 -15.8,-1.13 -22.26,-2.68 -7.19,-1.72 -14.48,-2.58 -21.88,-2.8 -14.35,-0.44 -28.71,1.08 -43.04,-0.02 -7.88,-0.6 -19.81,-3.05 -23.14,-4.6 -2.48,-1.89 -4.98,-3.83 -6.64,-6.5 -2.26,-3.64 -1.72,-7.46 -0.64,-11.39 0.81,-2.98 1.65,-6.1 3.92,-8.33 2.72,-2.68 6.68,-4.35 10.09,-5.96 13.41,-6.36 28.06,-9.5 42.7,-11.34 8.63,-1.08 17.31,-1.72 25.97,-2.36 -2.2,3.44 -2.97,7.76 -3.35,11.75 -0.37,3.87 -0.39,8.16 0.74,11.97 -3.09,0.21 -6.23,-0.49 -9.14,-1.46 -3.78,-1.25 -7.44,-2.79 -11.23,-3.99 -3.87,-1.22 -7.8,-2.24 -11.77,-3.05 -8.77,-1.81 -17.63,-2.54 -26.58,-2.19 -0.09,0 15.78,0.87 23.5,2.29 7.9,1.46 15.47,3.83 22.98,6.65 3.86,1.44 8.16,2.74 12.29,2.48 0.17,-0.05 0.35,-0.06 0.53,-0.06l0.1 0.01c2.08,-0.22 4.11,-0.85 6,-2.11 2.89,-1.94 5,-4.91 8.1,-6.56 2.86,-1.53 6.32,-1.62 9.35,-0.54 3.76,1.34 5.91,4.18 7.36,7.78 0.99,2.47 1.94,5.21 3.87,7.05 -2.89,-0.79 -5.82,-1.42 -8.8,-1.87 -0.31,-0.05 20.48,4.95 32.88,14.01 4.84,3.53 11.72,8.85 14.02,12.45zm-55.12 -59.51l0 0.16c-1.59,-0.78 -3.47,-1.1 -5.2,-1.01 -0.8,0.05 -1.6,0.16 -2.39,0.33 -0.42,-0.94 -1.03,-1.76 -1.88,-2.38 -0.62,-0.45 -1.32,-0.78 -2.06,-0.97 -0.59,-0.15 -2.68,-0.07 -3.14,-0.55 6.52,-4.77 13.28,-11.15 14.2,-12.11 0.12,0.6 0.5,1.21 0.77,1.71 0.41,0.8 0.95,1.96 1.73,2.57 -0.76,1.84 -1.26,3.8 -1.6,5.74 -0.36,2.07 -0.66,4.36 -0.43,6.51zm79.92 -18.64c-3.95,-1.53 -8.11,-2.62 -12.3,-2.69 -0.06,0 -0.11,0.02 -0.15,0.05 0.12,-0.33 -0.05,0.03 0.07,-0.3 0.09,-0.26 -0.21,-0.59 -0.48,-0.49 -0.65,0.34 -2.01,-1.14 -2.17,-1.08 -1.35,0.26 -1.67,-0.48 -1.77,-0.69 -0.1,-0.22 -0.16,-0.43 -0.4,-0.52 -0.13,-0.05 -0.28,-0.05 -0.43,-0.01 -0.06,-0.16 -0.12,-0.33 -0.21,-0.48 -0.29,-0.5 -3.69,-4 -4.98,-5.03 -0.25,-0.19 -0.5,-0.38 -0.75,-0.57 0.05,-10.32 -0.28,-20.88 3.87,-30.58 1.38,-3.23 3.24,-6.14 5.27,-8.96 2.62,6.03 5.94,12.02 9.82,17.33 2,2.73 4.32,5.17 6.52,7.74 2.52,2.96 4.35,5.97 5.65,9.62 -2.1,2.11 -3.57,5.24 -4.78,7.88 -0.69,1.49 -1.28,3.02 -1.8,4.57 -0.42,1.29 -1.04,4.18 -0.98,4.21zm-118.89 14.36c1.57,-3.27 3.8,-6.26 5.72,-9.33 3.95,-6.3 7.18,-13.22 11.07,-19.56 3.53,-5.76 7.48,-11.09 8.97,-17.74 1.49,-6.63 1.27,-30.1 0.9,-36.86 -0.39,-7.13 -2.18,-15.65 -3.03,-19.65 -0.63,-2.96 -0.59,-10.97 3.12,-15.12 3.53,-3.94 8.68,-5.04 13.77,-4.83 4.86,0.2 9.63,1.22 14.41,0.1 10.54,-2.47 13.48,-6.14 13.18,-5.95 -0.47,0.3 -0.94,0.59 -1.42,0.87 -0.37,-0.77 -0.57,-1.59 -0.49,-2.46 0.05,-0.63 0.46,-2.16 1.08,-2.46 0.33,-0.17 0.52,0.04 0.86,0.11 1.07,0.24 2.11,-0.13 2.87,-0.86 1.55,4.96 2.93,5.99 2.85,5.81 -0.86,-2.12 1.22,-3.56 1.26,-5.77 0.01,-0.55 -0.2,-1 -0.55,-1.28 2.6,-0.64 5.18,-1.82 6.43,-4.34 0.69,-1.37 0.84,-2.78 0.69,-4.19 3.14,4.03 8.31,6.07 13.39,5.16 2.85,-0.51 5.52,-1.89 7.58,-3.92 0.77,-0.76 1.46,-1.62 2.03,-2.54 -0.15,0.53 -0.26,1.09 -0.38,1.48 -0.8,1.46 -1.58,2.95 -2.92,3.92 -0.17,0.11 -0.03,0.38 0.15,0.27 2.12,-1.36 2.7,-3.82 4.05,-5.78 -0.24,1.16 -0.39,2.32 -0.43,3.49 -0.2,1.03 -0.24,2.1 -0.03,3.2 0.02,0.11 0.19,0.15 0.22,0.01 0.54,-2.83 0.82,-5.4 2.49,-7.89 1.45,-2.16 3.35,-3.7 5.14,-5.58 -0.08,0.3 -0.01,5.16 -1.12,7.13 -0.77,1.35 -1.82,2.37 -2.65,3.64 -1.44,2.21 -1.52,5.01 -2.13,7.5 -1.63,6.63 -5.8,13.47 -10.08,16.84 -2.95,-1.44 -4.98,-2.64 -7.24,-4.74 1.53,-3.62 2.49,-7.52 2.58,-11.45 0,-0.09 -0.13,-0.09 -0.15,-0.01 -0.72,3.81 -1.54,7.51 -2.7,11.2 -2.01,-1.96 -3.5,-4.36 -4.06,-7.46 -0.01,-0.09 -0.15,-0.07 -0.14,0.02 0.84,8.39 9.17,12.19 15.88,15.27 7.45,3.42 13.63,8.28 18.77,14.68 10.81,13.46 15.57,30.19 23.36,45.34 4.29,8.36 11.28,16.15 10.64,26.05l0 0.05c-3.25,3.37 -6.47,7.63 -9.44,11.24 -1.76,2.13 -3.52,4.25 -5.28,6.38 -1.53,1.86 -3.17,3.68 -4.55,5.66 -4.05,-3.86 -8.74,-7.01 -13.78,-9.19 -0.58,-0.25 -1.04,-0.44 -1.65,-0.68 0.08,0.01 0.05,-0.06 0.08,-0.15 0.64,-2.43 2.47,-7.22 3.16,-8.7 0.65,-1.4 1.38,-2.77 2.17,-4.09 0.69,-1.15 2.38,-3.73 2.38,-3.76 0.02,-0.05 0.1,-0.1 0.08,-0.16 -1.79,-7.04 -7.76,-11.72 -11.63,-16.79 -4.32,-5.67 -7.11,-12.1 -10.58,-18.26l-0.08 -0.09c3.63,-4.98 7.7,-9.68 10.41,-15.23 0.03,-0.07 -0.07,-0.13 -0.11,-0.07 -3.04,4.44 -6.28,8.7 -9.51,13 -2.79,3.74 -5.46,7.61 -7.29,11.93 -3.97,9.29 -4.17,19.8 -3.9,29.78 -1.94,-1.32 -4.03,-2.4 -6.19,-3.33 -0.07,-0.03 -0.12,0.07 -0.05,0.1 2.21,1.16 4.29,2.57 6.26,4.1l0 0.01c0.27,0.16 0.52,0.36 0.74,0.58 0.19,0.15 0.38,0.29 0.57,0.44 1.21,1 2.37,2.08 3.45,3.22 0.55,0.6 1.06,1.25 1.59,1.87 -5.27,3 -12.82,0.3 -18.73,-1.88 -5.55,-2.06 -11.07,-3.42 -17.02,-2.85 -8.92,0.86 -18.28,6 -22.74,14.03l-0.04 0.04c-0.31,0.51 -0.6,1.05 -0.86,1.61 -0.32,-0.5 -0.73,-0.96 -1.01,-1.43 -0.39,-0.66 -0.71,-1.36 -1.03,-2.05 -0.11,-0.24 -0.17,-0.38 -0.28,-0.51 4.11,-4.35 7.69,-9.2 10.3,-14.6 3.62,-7.49 4.59,-15.55 5.05,-23.77 0.27,-4.78 0.53,-9.55 1.09,-14.31 0.54,-4.57 1.17,-9.12 1.38,-13.72 0.41,-8.79 -1.02,-18.28 -7.19,-25 -0.1,-0.11 -0.29,0.03 -0.19,0.15 5.43,6.39 6.9,14.85 6.7,23.01 -0.22,8.8 -1.92,17.5 -2.39,26.29 -0.46,8.46 -0.85,16.97 -4.19,24.88 -3.13,7.4 -8.18,13.87 -13.95,19.39 -6.89,6.59 -14.86,11.63 -22.54,17.19 -0.27,0.2 0.04,0.57 0.31,0.4 3.53,-2.14 7.02,-4.43 10.4,-6.86 0.14,0.81 1.4,0.71 2.15,0.73 2.07,0.07 3.76,1.26 4.63,3.02 -2.78,0.74 -5.32,2.3 -7.01,4.67 -0.07,-0.15 -0.22,-0.28 -0.43,-0.26 -7.52,0.56 -15.06,1.13 -22.56,1.97 -0.12,-0.18 -0.26,-0.34 -0.4,-0.5l-0.05 -0.09c-2.29,-2.88 -1.67,-6.64 -0.19,-9.73zm60.85 -128.83c0.59,-1.21 1.29,-2.4 1.65,-3.71 0.25,0.24 0.46,0.52 0.73,0.78 0.24,0.23 0.35,0.46 0.74,0.45 0.26,-0.01 0.45,-0.37 0.68,-0.38 0.3,-0.01 0.15,0.06 0.16,0.47 0,0.23 0.02,0.43 0.05,0.66 0.08,0.49 0.23,0.98 0.44,1.43 0.23,0.5 0.53,0.96 0.89,1.34 -2.23,1.26 -4.6,2.25 -7.05,2.98 0.63,-1.3 1.08,-2.71 1.71,-4.02zm-0.19 -4.82c-0.13,-0.11 -0.29,-0.18 -0.44,-0.27l0 0c0.1,-0.01 0.2,-0.01 0.3,-0.02 2.09,-0.22 3.77,-1.8 5.51,-2.82 0.17,-0.11 0.03,-0.36 -0.16,-0.28 -2.27,1.01 -6.5,4.69 -8.34,1.12 -0.05,-0.09 -0.18,-0.17 -0.29,-0.13 -1.48,0.48 -2.31,0.72 -3.67,-0.61 -0.28,-0.27 -0.18,-0.45 -0.54,-0.67 -0.3,-0.18 -0.56,-0.09 -0.89,-0.15 -0.82,-0.17 -1.29,-0.4 -1.89,-0.92 -1.41,-1.69 -1.8,-3.89 -0.81,-5.94 0.06,-0.12 -0.06,-0.25 -0.18,-0.27 -1.69,-0.26 -2.78,-1.83 -1.93,-3.63 0.05,-0.1 0,-0.26 -0.09,-0.32 -0.9,-0.57 -1.55,-1.41 -1.74,-2.47 -0.14,-0.78 0.2,-1.42 0.16,-2.14 -0.03,-0.51 -0.54,-1.25 -0.73,-1.71 -0.24,-0.58 -0.47,-1.16 -0.71,-1.75 -0.49,-1.24 -1.01,-2.47 -1.25,-3.79 -0.95,-5.05 2.94,-9.16 7.47,-10.65 4.18,-1.37 9.85,-1.55 13.24,1.67 3.68,3.49 4.05,8.77 4.43,13.52 0.02,0.22 0.37,0.25 0.37,0.01 -0.18,-4.94 -0.63,-10.65 -4.55,-14.19 1.27,0.29 2.43,0.32 3.51,1.18 0.78,0.62 0.85,0.8 1.83,0.93 1.76,0.22 2.97,0.54 3.63,2.42 0.3,0.83 0.41,1.71 0.9,2.46 0.47,0.74 1.23,1.2 1.76,1.88 0.52,0.68 0.83,1.48 1.36,2.15 0.73,0.91 1.49,1.66 2,2.73 0.71,1.48 0.83,3.02 0.8,4.64 -0.01,0.1 0.09,0.13 0.18,0.11 -0.01,1.22 0.32,2.47 0.95,3.5 0.08,0.12 0.3,0.06 0.24,-0.09 -0.59,-1.57 -0.87,-3.05 -0.86,-4.74l-0.06 -0.09c0.09,-1.99 -0.72,-3.92 -2.01,-5.48 -0.83,-0.99 -1.33,-2.09 -2.1,-3.09 -0.83,-1.08 -1.83,-1.62 -2.27,-3.03 -0.58,-1.88 -1.32,-3.62 -3.53,-3.92 -0.98,-0.13 -1.59,-0.2 -2.44,-0.76 -0.32,-0.21 -0.47,-0.4 -0.82,-0.58 -0.95,-0.49 -2.16,-0.58 -3.19,-0.39l-0.04 0.02 -0.02 -0.02c-1.75,-1.5 -4.03,-2.22 -6.41,-2.39 4.11,-3.98 7.91,-8.23 12.62,-11.53 4.96,-3.48 10.83,-5.86 16.95,-5.9 6.04,-0.04 11.67,2.29 15.87,6.62 4.53,4.68 9.5,16.59 9.53,16.68 0.13,0.43 4.77,4.59 3.79,9.02 -0.61,2.77 -2.63,4.92 -4.6,6.83 -2.29,2.23 -4.95,5.04 -6.02,8.26 0.13,-0.96 0.3,-1.92 0.53,-2.87 0.03,-0.14 -0.18,-0.22 -0.26,-0.11 -0.53,0.67 -0.97,1.43 -1.39,2.2 0.23,-0.68 0.45,-1.38 0.71,-2.06 0.08,-0.16 0.21,-0.44 0.23,-0.57 0.08,-0.17 0.15,-0.35 0.23,-0.52 0.05,-0.1 -0.11,-0.18 -0.16,-0.09 -1.26,1.97 -2.43,3.81 -4.3,5.25 -1.89,1.46 -4.19,2.4 -6.56,2.7 -4.91,0.62 -9.84,-1.51 -12.7,-5.53 0.02,-0.08 0.01,-0.16 -0.08,-0.23 -0.07,-0.05 -0.13,-0.11 -0.2,-0.16l-0.01 -0.01c-0.3,-1.52 -0.87,-3.02 -1.39,-4.46l-0.06 0.02c0.44,1.39 0.88,2.92 1.07,4.46 -0.08,0.06 -0.12,0.17 -0.04,0.29l0.09 0.12c0.15,1.58 0.01,3.16 -0.68,4.59 -1.31,2.69 -4.21,3.76 -6.97,4.3 -0.35,0.07 -1.18,0.24 -0.83,0.24 0.66,0.05 1.98,0.5 1.73,1.92 0,0 -1.08,1.99 -1.19,3.88 -0.82,-1.36 -1.07,-3.91 -1.94,-5.18 -0.12,-0.18 -0.4,-0.17 -0.52,-0.01 -0.85,1.08 -2.03,1.23 -3.3,0.8 -0.1,-0.03 -0.2,0.02 -0.26,0.1 -1.18,1.41 -1.62,3.15 -1.1,4.78 -0.48,-0.75 -0.77,-1.6 -0.75,-2.62 0.01,-0.49 0.15,-1.24 -0.63,-1.15 -0.4,0.05 -0.58,0.62 -1.08,0.44 -0.18,-0.06 -0.51,-0.7 -0.72,-0.86 -0.63,-0.5 -1.48,-0.67 -2.29,-0.67zm123.37 181.1c-1.92,-2.68 -3.43,-5.63 -5.31,-8.34 -3.51,-5.06 -7.88,-9.81 -12.37,-14.02 -2.19,-2.05 -4.9,-3.83 -8.04,-3.59 -1.18,0.1 -2.44,0.31 -3.22,1.2 -3.47,3.91 -5.73,1.76 -6.11,1.64l-0.15 -0.04c-0.03,-0.31 -0.08,-0.61 -0.14,-0.9 -0.95,-10.34 -6.11,-20.02 -13.55,-27.3 3.46,-3.47 6.42,-7.62 9.54,-11.39 3.26,-3.95 6.88,-7.79 9.78,-12.01 0.11,-0.17 0.07,-0.27 0.08,-0.54 0.58,-8.09 -4.39,-15.22 -8.22,-21.96 -4.45,-7.87 -7.88,-16.23 -11.53,-24.48 -6.36,-14.34 -14.12,-29.47 -28.2,-37.61 -2.4,-1.39 -6.06,-3.01 -8.86,-4.34 4.51,-4.18 8.17,-10.19 9.72,-16.03 0.24,-0.89 0.41,-1.78 0.59,-2.68l0.03 0.01c0.42,0.18 1.09,0.16 1.37,0.07l-0.01 -0.02c-0.22,0.03 -0.45,0.03 -0.67,-0.03l0.15 0.01c0.35,0 0.8,-0.12 0.96,-0.45 0.03,-0.04 -0.66,0.23 -1.04,0.21l-0.09 -0.02c0.17,-0.01 0.51,-0.14 0.64,-0.24 0.04,-0.03 -0.63,0.15 -0.83,0.12 0.2,-0.02 0.63,-0.19 0.82,-0.29l-0.54 0.15c0.13,-0.05 0.36,-0.2 0.39,-0.26 0.02,-0.04 -0.26,0.13 -0.57,0.18 0.25,-0.15 0.05,-0.07 -0.33,-0.03 -0.05,0 -0.11,0 -0.16,0 0.41,-2.08 1.34,-5.27 2.8,-6.93 3.04,-3.47 2.43,-9.2 2.51,-9.66 0.29,-0.32 0.58,-0.65 0.85,-1 1.54,-1.95 2.7,-4.34 2.28,-6.87 -0.4,-2.37 -1.88,-4.31 -3.49,-6.02 -0.12,-0.28 -0.29,-0.55 -0.48,-0.77 0.05,-0.02 -6.32,-18.77 -16.95,-22.23 -9.51,-3.11 -19.5,-0.58 -27.18,5.18 -4.27,3.19 -8.09,7.09 -11.51,11.18 -2.6,-0.13 -5.29,0.38 -7.51,1.23 -4.24,1.64 -7.86,5.7 -7.26,10.5 0.18,1.39 0.68,2.71 1.22,3.99 0.63,1.52 1.55,2.95 1.44,4.61 -0.05,0.8 -0.05,1.53 0.27,2.29 0.34,0.76 1.29,1.35 1.48,2.04 0.12,0.47 -0.17,1.12 -0.03,1.66 0.11,0.4 0.29,0.77 0.55,1.09 0.35,0.42 1.6,0.8 1.72,1.16 0.06,0.22 -0.32,1.02 -0.36,1.31 -0.07,0.52 -0.06,1.05 0.01,1.57 0.19,1.32 0.8,2.44 1.8,3.31l0.05 0.02c0.25,0.31 0.55,0.53 0.97,0.69 0.37,0.13 0.85,0.03 1.17,0.16 0.44,0.18 0.57,0.62 0.84,0.93 0.41,0.47 0.79,0.8 1.43,0.92 0.74,0.15 1.64,-0.36 2.28,-0.18 0.52,0.16 0.96,0.9 1.55,1.16 0.29,0.12 0.58,0.19 0.88,0.24 0.16,0.4 0.72,0.75 1.15,0.66 0.05,-0.01 0.91,0.13 1.28,0.32 0.15,0.07 0.27,0.15 0.38,0.24 -1.41,2.32 -3.54,6.55 -3.74,8.09 -1.91,0.52 -3.87,0.89 -5.87,1.07 -5.41,0.49 -10.8,-0.83 -16.19,-0.27 -4.19,0.43 -8.28,2.41 -10.89,5.78 -2.74,3.54 -3.45,9.89 -2.43,16.21 2.52,15.55 3.77,13.01 2.53,50.14 -0.26,7.45 -6.04,16.17 -9.93,22.45 -3.98,6.43 -7.72,14.37 -11.67,20.82 -3.09,5.03 -9.39,12.82 -4.52,18.66l0.14 0.11 0.05 0.05 0.02 0.04c-8.86,1.02 -17.66,2.45 -26.29,4.76 -7.81,2.07 -15.48,4.85 -22.63,8.64 -2.86,1.52 -6.01,3.11 -7.98,5.78 -1.97,2.69 -2.79,6.25 -3.52,9.45 -0.83,3.62 -0.61,7.06 1.52,10.18 2.01,2.96 4.64,5.92 7.97,7.13 8.09,2.95 27.22,4.67 40.71,4.41 14.81,-0.3 29.78,-1.22 44.34,2.12 7.38,1.69 14.84,4.09 22.45,3.06 0.07,-0.02 1.74,-0.15 3.43,-0.14 6.83,-0.25 13.26,2.53 19.81,4.38 3.52,0.99 7.2,1.67 10.87,1.34 2.07,-0.19 4.93,-0.6 5.77,-2.85 1.01,-2.68 -1.47,-5.51 -3.08,-7.36 -1.72,-1.98 -3.64,-3.77 -5.64,-5.46 1.4,-0.45 2.78,-1.09 4.1,-1.87 3.55,0.42 7.87,-0.84 9.77,-2.9 0.06,0.04 4.89,2.04 7.09,2.72 2.19,0.68 4.42,1.25 6.67,1.66 4.75,0.88 9.72,1.01 14.43,-0.16 2.44,-0.59 4.75,-1.56 6.87,-2.81l0.08 0.01c1.61,-0.23 3.15,-0.82 4.75,-1.14 1.58,-0.32 3.18,-0.5 4.78,-0.53 2.79,-0.06 5.48,0.4 8.13,1.18 -0.65,3.65 0.92,7.3 3.53,9.91 1,0.31 4.06,1.2 4.5,1.5 4.44,1.4 9.2,1.96 13.71,0.64 4.56,-1.34 9,-4.76 10.07,-9.61 0.61,-2.76 -0.41,-4.82 -1.98,-7.01z"/>
  <path class="fil13" d="M140.02 85.35c-0.03,0.14 0.18,0.18 0.23,0.06 1.72,-3.67 0.98,-8.16 -1.24,-11.43 -0.08,-0.13 -0.26,0.01 -0.19,0.13 2.07,3.57 2.2,7.34 1.2,11.24z"/>
  <path class="fil13" d="M156.1 58.13c5.63,-1.4 10.97,-3.7 16,-6.57 0.08,-0.05 0.01,-0.18 -0.08,-0.14 -5.13,2.63 -10.5,4.72 -15.97,6.51 -0.13,0.04 -0.08,0.24 0.05,0.2z"/>
  <path class="fil13" d="M159.45 74.34c-0.13,-0.01 -0.14,0.19 -0.01,0.2 8.22,0.66 17.39,-2.7 22.39,-9.53 0.12,-0.18 -0.1,-0.38 -0.25,-0.22 -2.68,2.79 -5.45,5.24 -8.97,6.94 -4.08,1.96 -8.65,2.79 -13.16,2.61z"/>
 </g>
</svg>
